<?xml version="1.0" standalone="no"?>
<!DOCTYPE svg PUBLIC "-//W3C//DTD SVG 20010904//EN"
 "http://www.w3.org/TR/2001/REC-SVG-20010904/DTD/svg10.dtd">
<svg version="1.0" xmlns="http://www.w3.org/2000/svg"
 width="350.000000pt" height="350.000000pt" viewBox="0 0 350.000000 350.000000"
 preserveAspectRatio="xMidYMid meet">

<g transform="translate(0.000000,350.000000) scale(0.100000,-0.100000)"
fill="#000000" stroke="none">
<path d="M805 2978 c-4 -29 -10 -152 -15 -273 l-8 -220 -61 -185 c-72 -213
-180 -568 -210 -685 -34 -135 -93 -561 -86 -615 12 -84 58 -166 143 -250 64
-65 94 -86 182 -128 88 -43 122 -54 210 -67 207 -31 258 -34 579 -40 179 -4
426 -9 547 -12 228 -6 474 8 565 31 69 18 151 71 240 154 114 106 128 140 146
349 19 207 7 388 -37 604 -17 79 -46 221 -65 314 -19 94 -51 231 -71 305 -43
162 -45 244 -15 525 11 110 15 186 10 197 -7 13 -20 15 -71 11 -35 -3 -77 -11
-95 -19 -29 -11 -147 -15 -339 -11 -49 2 -67 -2 -84 -18 -21 -19 -22 -19 -68
-1 -99 38 -124 40 -169 17 l-42 -21 -53 25 c-65 30 -83 31 -133 4 -39 -20 -41
-20 -98 -3 -56 17 -60 17 -93 -1 -34 -18 -35 -18 -57 3 -13 13 -43 25 -69 28
-38 5 -51 3 -77 -17 -30 -22 -32 -22 -60 -6 -39 23 -74 21 -121 -5 -38 -22
-39 -22 -59 -4 -16 15 -28 17 -58 11 -21 -4 -65 -11 -98 -15 -33 -3 -68 -10
-77 -14 -13 -6 -17 -2 -20 21 -2 23 -8 29 -35 31 -17 2 -37 10 -43 18 -20 24
-27 16 -35 -38z m738 -58 c63 -36 71 -36 120 -10 34 19 40 19 67 5 41 -21 97
-19 137 6 l35 22 48 -23 c51 -24 98 -24 156 0 28 12 37 11 82 -8 61 -26 106
-27 151 -3 31 16 36 17 76 2 37 -13 53 -13 102 -3 33 7 93 12 134 12 41 0 92
5 114 10 22 5 40 8 41 7 7 -9 -21 -230 -33 -259 -15 -36 -19 -38 -59 -38 l-44
0 6 78 c4 62 3 73 -7 58 -6 -10 -14 -48 -17 -83 l-5 -64 -31 3 -31 3 0 64 c-1
40 -5 66 -12 68 -15 5 -27 -57 -20 -102 5 -29 2 -34 -19 -39 -13 -4 -33 -2
-44 4 -17 9 -19 18 -14 63 4 39 2 57 -10 72 -14 19 -15 16 -17 -40 -2 -97 -8
-110 -54 -110 l-40 0 3 78 c2 46 -1 77 -7 77 -11 0 -20 -42 -23 -115 l-3 -50
-40 0 -40 0 0 65 c-1 80 -3 90 -15 90 -5 0 -10 -35 -12 -77 l-3 -78 -35 -3
c-53 -4 -57 4 -50 83 7 73 5 89 -11 80 -5 -4 -9 -28 -9 -54 0 -27 -3 -63 -6
-80 -6 -28 -10 -31 -42 -31 l-35 0 7 73 c7 75 1 111 -15 101 -5 -3 -9 -41 -9
-85 0 -91 -5 -97 -73 -83 l-42 9 3 73 c3 43 0 72 -6 72 -14 0 -22 -25 -22 -68
0 -74 -7 -82 -64 -82 -28 0 -56 4 -63 8 -7 4 -13 36 -15 71 -2 44 -7 66 -17
69 -11 4 -13 -9 -9 -67 l5 -71 -33 0 -34 0 0 70 c0 39 -4 70 -9 70 -14 0 -21
-28 -21 -86 0 -51 -2 -54 -24 -54 -40 0 -56 25 -56 86 0 30 -4 54 -10 54 -6 0
-10 -28 -10 -65 l0 -65 -103 0 -104 0 1 67 c1 40 -3 68 -10 70 -8 3 -10 -17
-6 -68 l5 -72 -49 7 c-26 3 -51 12 -56 19 -4 6 -4 38 -1 69 4 37 2 58 -5 58
-15 0 -22 -26 -22 -86 l0 -54 -112 0 c-62 0 -130 -3 -150 -6 l-38 -7 0 100 c0
55 3 121 6 146 l7 45 34 -16 c31 -15 38 -15 76 -1 31 11 51 12 75 5 22 -6 40
-5 57 2 19 9 36 9 69 0 38 -10 50 -9 85 7 35 15 47 16 80 7 55 -17 85 -15 106
8 23 26 25 26 88 -10z m1216 -471 c7 -77 21 -153 45 -234 19 -66 44 -169 56
-230 12 -60 35 -167 50 -236 51 -223 64 -338 64 -544 0 -153 -3 -201 -18 -249
-22 -74 -61 -152 -95 -189 -56 -62 -215 -117 -391 -136 -267 -29 -1141 -10
-1305 29 -44 10 -125 22 -180 26 -94 7 -106 10 -200 58 -80 40 -115 66 -175
126 -42 42 -84 92 -93 112 -18 38 -21 5 28 385 20 159 43 243 164 615 101 308
151 481 151 528 1 54 -3 53 271 46 140 -4 376 -14 524 -22 149 -7 342 -14 430
-14 164 0 562 25 625 39 19 4 36 7 37 6 2 -1 7 -53 12 -116z"/>
<path d="M1036 2798 c-12 -38 -16 -117 -6 -123 17 -10 19 -4 26 62 4 40 3 63
-5 67 -6 4 -13 1 -15 -6z"/>
<path d="M1096 2371 c-13 -24 -26 -131 -31 -266 -11 -289 -38 -510 -86 -697
-10 -42 -19 -90 -19 -108 0 -45 26 -89 57 -96 31 -8 313 1 503 17 101 8 225 8
491 -1 388 -14 401 -12 425 40 7 15 17 156 25 335 23 502 17 600 -38 666 l-26
30 -206 -7 c-192 -6 -231 -4 -571 30 -201 20 -400 42 -443 50 -43 7 -79 10
-81 7z m299 -120 c88 -12 214 -25 280 -31 66 -5 161 -14 210 -21 50 -6 183
-12 297 -12 l206 -2 7 -79 c7 -77 0 -476 -11 -688 l-6 -108 -82 0 c-44 1 -112
5 -151 10 -64 8 -201 5 -914 -17 l-204 -6 7 29 c66 257 115 681 101 870 l-7
91 54 -8 c29 -4 125 -17 213 -28z"/>
<path d="M1395 2067 c-2 -7 -11 -48 -20 -92 -25 -116 -17 -197 29 -290 42 -84
90 -130 180 -170 76 -33 207 -35 291 -4 148 55 255 206 272 384 4 51 2 64 -16
87 l-21 26 -74 -22 c-84 -26 -125 -49 -199 -113 l-52 -44 -20 25 c-11 13 -28
36 -37 49 -22 32 -96 74 -227 131 -67 29 -103 40 -106 33z m183 -99 c89 -42
157 -101 168 -144 8 -30 -9 -68 -54 -122 l-27 -32 -32 20 c-26 15 -49 52 -108
170 -41 82 -75 152 -75 154 0 9 49 -8 128 -46z m-93 -105 c31 -65 64 -134 73
-153 10 -21 32 -43 55 -55 36 -19 37 -21 31 -60 -3 -22 -8 -42 -10 -44 -2 -2
-21 1 -42 7 -94 29 -188 160 -199 278 -5 61 10 144 27 144 5 0 35 -53 65 -117z
m463 -52 c-274 -268 -313 -292 -249 -154 36 76 164 211 245 258 45 26 120 53
154 54 7 1 -61 -71 -150 -158z m157 33 c-10 -72 -69 -177 -131 -233 -41 -38
-71 -56 -121 -71 -71 -22 -119 -25 -143 -10 -12 8 -8 15 25 42 82 67 163 143
264 246 112 115 120 117 106 26z"/>
<path d="M727 1703 c-2 -4 -25 -71 -50 -148 -49 -150 -67 -265 -67 -423 0 -90
14 -157 31 -146 6 3 7 45 3 102 -9 135 10 318 42 406 53 145 67 197 56 208 -5
5 -12 6 -15 1z"/>
<path d="M2686 1619 c-33 -32 -56 -62 -53 -65 9 -9 127 96 127 112 0 23 -12
15 -74 -47z"/>
<path d="M2750 1555 c-24 -25 -52 -48 -62 -51 -10 -3 -18 -12 -18 -20 0 -21
24 -6 95 60 34 31 53 55 45 56 -9 0 -36 -20 -60 -45z"/>
<path d="M2765 1460 c-38 -38 -66 -72 -63 -75 3 -3 38 25 79 63 40 38 68 71
63 75 -6 3 -41 -25 -79 -63z"/>
<path d="M728 1217 c-5 -10 -8 -55 -7 -100 0 -64 2 -77 10 -58 5 14 8 59 7
100 -2 46 -6 69 -10 58z"/>
</g>
</svg>
