<?xml version="1.0" standalone="no"?>
<!DOCTYPE svg PUBLIC "-//W3C//DTD SVG 20010904//EN"
 "http://www.w3.org/TR/2001/REC-SVG-20010904/DTD/svg10.dtd">
<svg version="1.0" xmlns="http://www.w3.org/2000/svg"
 width="350.000000pt" height="350.000000pt" viewBox="0 0 350.000000 350.000000"
 preserveAspectRatio="xMidYMid meet">

<g transform="translate(0.000000,350.000000) scale(0.100000,-0.100000)"
fill="#000000" stroke="none">
<path d="M1603 2823 c-92 -91 -115 -121 -148 -188 -34 -71 -39 -89 -39 -155
-1 -61 4 -85 26 -133 26 -56 100 -159 132 -186 25 -21 19 -44 -22 -76 -126
-100 -305 -279 -730 -731 -254 -270 -340 -420 -330 -578 9 -134 80 -240 233
-345 137 -95 240 -130 295 -101 52 28 93 148 115 340 25 206 40 267 90 354 66
117 106 163 312 366 262 258 442 422 456 413 71 -42 180 -130 257 -207 52 -53
100 -96 107 -96 6 0 29 21 50 48 57 71 212 241 353 387 167 174 279 307 291
347 5 18 9 50 9 70 0 30 -6 42 -32 61 -63 48 -268 150 -380 190 -16 6 -16 9
-3 41 34 81 8 137 -88 190 -100 56 -183 86 -254 93 l-64 6 -76 -77 c-73 -75
-77 -77 -112 -71 -67 13 -291 106 -301 126 -6 10 -17 19 -24 19 -8 0 -63 -48
-123 -107z m808 11 c87 -36 149 -73 149 -90 0 -27 -29 -84 -43 -84 -20 0 -297
77 -305 85 -9 9 102 115 120 115 8 0 43 -12 79 -26z m-518 -83 c60 -23 166
-57 235 -76 70 -18 187 -50 261 -69 127 -34 305 -98 326 -117 5 -6 -26 -42
-81 -93 -134 -126 -299 -322 -387 -459 -43 -67 -82 -126 -87 -131 -5 -5 -46
22 -95 60 -47 38 -112 85 -144 104 -103 62 -174 120 -273 221 -156 160 -187
224 -153 319 20 57 111 176 184 241 66 59 61 59 214 0z m1034 -358 c29 -19 55
-39 58 -43 9 -14 -124 -170 -393 -462 l-253 -275 -57 60 c-31 33 -56 65 -54
71 7 23 88 144 159 239 103 136 206 249 330 362 119 110 118 109 210 48z
m-1159 -412 c50 -40 92 -78 92 -84 -1 -19 -18 -36 -145 -146 -273 -236 -501
-480 -576 -616 -67 -123 -88 -195 -104 -367 -21 -216 -36 -267 -89 -317 -25
-24 -26 -24 -70 -7 -96 37 -272 182 -312 257 -28 53 -24 132 9 201 57 116 244
332 661 762 294 302 412 412 429 398 7 -5 54 -41 105 -81z"/>
<path d="M1730 2705 c0 -8 7 -15 15 -15 8 0 15 7 15 15 0 8 -7 15 -15 15 -8 0
-15 -7 -15 -15z"/>
<path d="M1820 2651 c0 -17 18 -21 24 -6 3 9 0 15 -9 15 -8 0 -15 -4 -15 -9z"/>
<path d="M1790 2610 c0 -13 5 -20 13 -17 6 2 12 10 12 17 0 7 -6 15 -12 18 -8
2 -13 -5 -13 -18z"/>
<path d="M1680 2599 c0 -24 23 -21 28 4 2 10 -3 17 -12 17 -10 0 -16 -9 -16
-21z"/>
<path d="M1760 2529 c0 -12 5 -19 12 -17 18 6 20 25 3 31 -10 5 -15 0 -15 -14z"/>
<path d="M2800 2315 c0 -9 5 -15 11 -13 6 2 11 8 11 13 0 5 -5 11 -11 13 -6 2
-11 -4 -11 -13z"/>
<path d="M2702 2234 c4 -21 22 -23 26 -1 2 10 -3 17 -13 17 -10 0 -15 -6 -13
-16z"/>
<path d="M2780 2195 c0 -8 5 -15 10 -15 6 0 10 7 10 15 0 8 -4 15 -10 15 -5 0
-10 -7 -10 -15z"/>
<path d="M759 1028 c-44 -59 -107 -195 -115 -249 -7 -40 -6 -43 9 -30 10 7 17
19 17 27 0 48 78 200 125 244 14 13 25 29 25 37 0 27 -31 12 -61 -29z"/>
<path d="M769 878 c-45 -77 -86 -184 -75 -195 11 -12 23 10 44 82 14 45 34 85
57 112 34 40 45 73 25 73 -5 0 -28 -32 -51 -72z"/>
</g>
</svg>
