<?xml version="1.0" standalone="no"?>
<!DOCTYPE svg PUBLIC "-//W3C//DTD SVG 20010904//EN"
 "http://www.w3.org/TR/2001/REC-SVG-20010904/DTD/svg10.dtd">
<svg version="1.0" xmlns="http://www.w3.org/2000/svg"
 width="350.000000pt" height="350.000000pt" viewBox="0 0 350.000000 350.000000"
 preserveAspectRatio="xMidYMid meet">

<g transform="translate(0.000000,350.000000) scale(0.100000,-0.100000)"
fill="#000000" stroke="none">
<path d="M653 3028 l-72 -11 -27 -111 c-16 -65 -29 -151 -32 -209 -5 -122 10
-169 75 -227 l45 -40 -6 -62 c-3 -35 -13 -166 -21 -293 -16 -232 -37 -453 -55
-555 -5 -30 -18 -109 -30 -175 -25 -148 -28 -278 -5 -364 13 -51 14 -73 6
-113 -18 -82 -14 -158 12 -208 18 -37 33 -51 87 -78 115 -58 211 -71 610 -83
462 -14 1021 -6 1145 16 52 10 107 14 130 10 55 -9 98 -8 262 2 200 13 214 26
228 202 5 63 15 113 32 155 24 57 25 68 19 176 -8 130 -32 198 -89 246 -45 38
-152 86 -292 129 -65 21 -127 42 -138 49 -10 6 -38 41 -63 77 -72 108 -78 200
-32 534 9 69 8 85 -5 112 l-16 31 56 43 c37 29 63 59 76 88 28 64 43 228 30
335 -24 200 -119 256 -414 243 -116 -5 -140 -3 -150 9 -20 25 -80 51 -144 64
-78 16 -1118 22 -1222 8z m1092 -68 c93 -6 173 -14 178 -19 14 -14 20 -213 8
-290 -15 -98 -28 -122 -76 -146 -37 -18 -70 -20 -440 -28 -536 -10 -744 4
-787 55 -34 39 -18 229 30 349 21 52 70 80 161 92 45 6 783 -5 926 -13z m697
-118 c22 -21 23 -32 26 -175 5 -198 0 -226 -46 -277 -58 -65 -120 -81 -329
-87 l-173 -6 -10 27 c-26 69 -25 74 19 86 54 14 100 55 125 110 17 37 21 69
23 184 1 77 6 143 10 147 11 11 96 16 225 15 98 -1 110 -3 130 -24z m-1124
-456 c443 1 492 -1 492 -15 -1 -9 -7 -47 -15 -86 -21 -100 -29 -339 -17 -480
19 -211 59 -297 178 -383 91 -65 88 -64 286 -126 257 -82 268 -94 276 -317 l4
-137 -43 1 c-24 1 -127 -4 -229 -11 -332 -22 -760 -9 -995 28 -33 6 -173 10
-311 10 -240 0 -253 1 -278 21 -80 63 -78 122 19 744 8 50 21 196 30 325 8
129 23 281 32 337 l16 102 31 -7 c17 -4 253 -7 524 -6z m777 -181 c44 0 120 4
169 9 l89 9 -7 -34 c-3 -19 -9 -113 -12 -210 -5 -143 -3 -190 10 -259 45 -218
141 -323 336 -366 140 -30 181 -45 221 -81 50 -46 62 -91 57 -223 -5 -165 -34
-195 -214 -221 -123 -19 -120 -22 -126 130 -5 109 -9 137 -30 182 -52 113
-106 149 -344 228 -280 92 -326 129 -359 290 -33 156 -26 481 11 539 14 21 19
22 67 15 29 -4 88 -8 132 -8z m-1413 -1397 c50 -21 66 -22 283 -19 183 1 266
-2 405 -19 270 -32 806 -46 1048 -26 41 3 42 3 42 -28 0 -40 -34 -96 -59 -96
-11 0 -26 -3 -34 -6 -11 -4 -16 2 -19 21 -4 33 -22 37 -27 5 -6 -49 -48 -55
-53 -7 -4 39 -22 39 -26 0 -5 -37 -19 -53 -48 -53 -21 0 -23 5 -26 53 -4 63
-21 65 -28 3 -3 -25 -8 -47 -10 -49 -3 -2 -27 -7 -53 -10 l-48 -5 2 32 c4 37
-15 48 -19 11 -3 -26 -35 -50 -52 -40 -5 3 -6 21 -3 40 4 27 2 35 -10 35 -10
0 -18 -14 -22 -40 -7 -39 -8 -40 -47 -40 l-40 0 7 39 c4 23 2 42 -4 45 -13 8
-31 -25 -31 -58 0 -23 -4 -26 -35 -26 l-35 0 0 50 c0 28 -5 50 -10 50 -12 0
-16 -10 -25 -62 l-6 -38 -59 0 -60 0 7 45 c7 57 -12 61 -27 5 -9 -34 -15 -40
-38 -40 -26 0 -28 2 -24 35 3 27 1 35 -12 35 -11 0 -16 -9 -16 -30 0 -31 -3
-34 -52 -44 -25 -6 -27 -4 -30 36 -4 57 -26 62 -30 6 l-3 -43 -52 -3 -53 -3 0
45 c0 34 -4 46 -15 46 -11 0 -15 -11 -15 -40 l0 -40 -76 0 -76 0 6 45 c6 35 4
45 -7 45 -9 0 -16 -15 -20 -41 -3 -22 -7 -42 -9 -44 -2 -2 -22 -1 -46 2 l-42
6 0 48 c0 63 -16 63 -25 1 l-6 -47 -52 5 c-58 6 -58 7 -42 94 12 61 -16 41
-31 -22 -6 -29 -13 -54 -15 -56 -2 -2 -19 -1 -37 1 -31 5 -33 8 -31 42 3 50 1
61 -11 61 -5 0 -10 -11 -10 -24 0 -56 -25 -71 -68 -40 -17 11 -22 25 -22 57 0
57 11 117 21 117 5 0 32 -10 61 -22z m2218 -107 c0 -50 -8 -63 -47 -75 -21 -7
-23 -4 -23 24 0 21 -4 30 -12 27 -7 -2 -13 -14 -13 -27 0 -30 -24 -38 -41 -15
-13 17 -15 17 -32 2 -28 -25 -40 -21 -44 15 -4 46 -26 47 -30 1 -3 -35 -6 -38
-35 -41 l-33 -3 0 54 c0 66 1 67 118 68 48 0 105 4 127 8 66 14 65 15 65 -38z"/>
<path d="M777 2823 c-12 -20 -56 -182 -59 -215 -5 -57 16 -48 24 10 4 29 19
80 33 114 14 34 25 70 25 80 0 18 -15 25 -23 11z"/>
<path d="M842 2767 c-6 -6 -20 -51 -33 -99 -18 -67 -20 -91 -11 -100 9 -9 12
-8 15 3 2 8 11 41 19 74 9 33 20 75 26 92 11 34 2 52 -16 30z"/>
<path d="M892 2723 c-16 -42 -26 -123 -15 -123 14 0 45 132 35 142 -5 5 -14
-3 -20 -19z"/>
<path d="M2186 2769 c-20 -55 -46 -148 -46 -166 0 -33 19 -38 26 -6 3 15 15
58 27 96 16 51 18 70 9 79 -9 9 -13 8 -16 -3z"/>
<path d="M2232 2668 c-44 -137 -28 -164 19 -33 33 93 33 95 15 95 -9 0 -22
-25 -34 -62z"/>
<path d="M2290 2631 c-12 -39 -20 -75 -18 -82 5 -14 46 76 54 121 12 58 -14
30 -36 -39z"/>
<path d="M836 2268 c-2 -7 -14 -74 -25 -148 -69 -445 -84 -586 -60 -578 8 2
15 20 16 39 3 49 18 150 63 434 22 138 40 253 40 258 0 12 -30 8 -34 -5z"/>
<path d="M945 2088 c-54 -230 -63 -292 -43 -286 9 3 65 248 67 296 1 21 -18
13 -24 -10z"/>
<path d="M986 1871 c-3 -5 1 -14 9 -21 13 -10 15 -9 15 9 0 21 -14 28 -24 12z"/>
<path d="M1715 1540 c-8 -13 4 -32 16 -25 12 8 12 35 0 35 -6 0 -13 -4 -16
-10z"/>
<path d="M1780 1461 c0 -6 5 -13 10 -16 6 -3 10 1 10 9 0 9 -4 16 -10 16 -5 0
-10 -4 -10 -9z"/>
<path d="M1680 1445 c0 -8 7 -15 15 -15 8 0 15 7 15 15 0 8 -7 15 -15 15 -8 0
-15 -7 -15 -15z"/>
<path d="M1762 1297 c-12 -13 -25 -37 -28 -55 l-6 -32 53 0 c39 0 50 3 39 10
-8 5 -25 10 -37 10 -28 0 -29 19 -3 53 34 42 19 54 -18 14z"/>
<path d="M2183 2138 c-29 -32 -73 -112 -73 -131 0 -31 16 -17 40 33 13 27 34
59 47 71 23 22 31 49 15 49 -5 0 -18 -10 -29 -22z"/>
<path d="M2218 2043 c-36 -55 -58 -100 -58 -118 0 -9 23 17 50 58 28 41 50 80
50 86 0 22 -18 10 -42 -26z"/>
</g>
</svg>
