<svg xmlns="http://www.w3.org/2000/svg" width="200" height="85" viewBox="0 0 199 85"><path style="stroke:none;fill-rule:nonzero;fill:#baccd3;fill-opacity:1" d="M1.531 76.414s-1.625 4.977 2.836 6.254c4.457 1.277 8.969.68 19.11-2.297 10.277-3.016 74.457-18.45 74.457-18.45s16.914 5.794 49.21 5.794c34.95 0 61.055-15.074 46.532-23.305C169.023 30.441 1.53 76.414 1.53 76.414Zm0 0"/><path style="stroke:none;fill-rule:nonzero;fill:#9d9d9c;fill-opacity:1" d="M103.238 8.05c.145.223.293.442.438.665.207.316.39.652.629.945.328.406.715.43 1.093.07a2.86 2.86 0 0 0 .5-.625c.352-.593.668-1.21 1.024-1.804.223-.371.484-.719.742-1.07.172-.227.348-.2.5.035.2.308.402.617.594.93.808 1.324 1.383 1.324 2.16-.008.281-.481.523-.985.793-1.473.152-.27.312-.543.5-.79.285-.37.414-.37.691-.003.25.324.465.68.711 1.012.164.226.328.453.528.648.382.379.793.395 1.187.035a4.05 4.05 0 0 0 .606-.71c.332-.489.62-1.009.953-1.497.203-.305.449-.578.695-.851.145-.16.324-.153.461.023.21.273.414.55.617.832.246.332.457.691.727 1 .46.527.968.524 1.425 0 .247-.285.45-.61.653-.93.215-.34.398-.699.613-1.039a7.44 7.44 0 0 1 .496-.672c.188-.23.387-.246.57.008.196.274.38.551.57.824.266.375.5.774.802 1.114.414.472.875.48 1.289.008.343-.391.613-.848.906-1.278.285-.414.535-.851.84-1.25.246-.316.39-.3.613.035.246.371.45.77.684 1.149.187.304.37.617.601.887.344.398.781.39 1.117-.016.223-.274.399-.59.57-.902.25-.446.466-.914.727-1.36.293-.5.434-.508.801-.066.172.203.32.43.477.648.218.309.418.633.644.934.723.957 1.352.972 2.098.047.37-.461.687-.965 1.047-1.434.199-.254.43-.48.66-.703.137-.133.281-.113.387.059.144.25.289.5.433.753.281.508.528 1.036.852 1.516.289.426.734.453 1.082.074.297-.328.531-.71.777-1.082.274-.41.504-.843.785-1.246.219-.308.375-.304.59.008.285.414.524.855.79 1.281.206.332.405.672.655.969.368.441.84.426 1.18-.035.223-.3.39-.645.574-.98.246-.458.48-.919.723-1.383.035.007.07.015.102.02.109.304.214.605.32.905.183.516.332 1.047.555 1.543.19.422.578.45.882.102a2.12 2.12 0 0 0 .309-.477c.207-.433.39-.875.598-1.308.113-.235.25-.461.375-.688l.117-.012c.215.36.43.715.64 1.079.286.488.536 1.004.852 1.472.289.426.703.48 1.14.207.16-.097.313-.222.43-.363.403-.496.782-1.008 1.18-1.5.586-.73.758-.707 1.16.145.266.562.504 1.144.8 1.691.384.707.919.805 1.528.262.38-.336.692-.754 1.035-1.133.239-.266.461-.547.727-.785.32-.29.488-.285.754.05.281.36.512.758.762 1.137.3.457.57.938.902 1.371.387.5.91.551 1.406.157.262-.207.48-.465.7-.715.324-.371.62-.766.956-1.121.309-.325.524-.325.82.004.282.312.524.664.77 1.007.39.555.742 1.145 1.164 1.676.457.574 1.067.645 1.657.207.402-.297.742-.676 1.109-1.015.219-.207.43-.426.672-.602.379-.281.55-.246.762.172.222.45.402.922.609 1.375.184.406.355.82.582 1.203.27.46.7.555 1.144.266.247-.164.458-.387.66-.61.294-.32.551-.676.848-.992.32-.344.493-.328.778.047.195.258.363.535.52.82.343.625.648 1.274 1.015 1.883.644 1.066 1.238 1.078 1.984.074.192-.261.367-.535.567-.789.34-.437.433-.43.675.059.118.238.22.488.32.734.286.715.536 1.445.856 2.145.332.722.918.789 1.45.191.245-.273.452-.578.687-.863.078-.094.18-.172.312-.293.094.258.18.453.23.656.188.734.356 1.473.548 2.207.074.293.164.586.293.852.175.355.535.355.73.011.11-.191.176-.41.242-.62.098-.317.18-.637.282-1.016.043.113.07.164.078.215.21 1.308.418 2.62.62 3.933.009.059-.023.125-.046.184-.086.222-.211.437-.254.668-.078.437-.105.886-.156 1.328-.055.472-.117.941-.172 1.41-.14-.219-.215-.441-.309-.652-.093-.22-.23-.48-.492-.414-.176.043-.312.27-.445.433-.063.082-.082.207-.11.313-.136.566-.265 1.132-.402 1.695-.101.406-.21.812-.34 1.3-.199-.53-.355-.972-.531-1.405-.09-.223-.215-.434-.5-.422-.293.011-.383.238-.445.472-.094.332-.18.668-.254 1.004-.133.594-.258 1.192-.41 1.883-.266-.582-.48-1.074-.72-1.55-.108-.22-.269-.423-.558-.41-.297.01-.43.23-.508.468-.199.59-.37 1.191-.554 1.789-.106.344-.215.683-.348 1.101-.082-.175-.129-.261-.164-.355-.184-.469-.351-.941-.547-1.402-.094-.22-.254-.461-.52-.38a.812.812 0 0 0-.449.419c-.164.39-.257.804-.375 1.215-.136.488-.265.976-.398 1.464a1.757 1.757 0 0 1-.336-.527c-.176-.398-.344-.8-.535-1.191-.11-.227-.293-.461-.559-.391-.191.05-.406.242-.496.426-.199.406-.332.847-.488 1.277-.176.504-.344 1.008-.55 1.606-.141-.227-.24-.36-.313-.504-.184-.36-.352-.727-.536-1.082-.18-.336-.347-.735-.785-.743-.46-.007-.64.407-.804.758-.29.614-.543 1.246-.825 1.867-.101.223-.242.43-.406.72-.164-.356-.281-.618-.406-.88-.203-.433-.379-.883-.621-1.293-.223-.37-.602-.394-.899-.07a3.184 3.184 0 0 0-.46.691c-.293.579-.547 1.172-.836 1.75-.11.22-.274.41-.47.696-.277-.399-.5-.715-.714-1.035-.238-.352-.445-.727-.711-1.055-.445-.54-.941-.52-1.363.035-.172.23-.32.484-.461.734-.297.54-.563 1.094-.875 1.622-.317.527-.48.527-.86.062-.191-.234-.359-.484-.535-.73-.183-.25-.351-.516-.55-.758-.696-.856-1.282-.793-1.758.187-.258.532-.477 1.086-.723 1.621-.09.2-.21.383-.363.649-.145-.332-.262-.578-.367-.832-.188-.453-.344-.922-.563-1.36-.289-.57-.7-.613-1.133-.132a3.554 3.554 0 0 0-.445.625c-.305.52-.578 1.054-.887 1.574-.105.183-.265.34-.457.574-.207-.395-.37-.707-.535-1.016-.258-.484-.48-.984-.781-1.437-.25-.375-.672-.371-.965-.027a4.068 4.068 0 0 0-.473.726c-.254.484-.476.984-.726 1.473-.086.168-.22.316-.383.554-.23-.457-.418-.835-.613-1.207-.22-.425-.414-.87-.684-1.261-.281-.414-.684-.422-1.008-.043-.21.242-.37.531-.527.812-.281.508-.528 1.031-.82 1.535-.184.32-.293.32-.493 0-.25-.41-.449-.847-.691-1.261-.2-.336-.395-.676-.64-.977-.258-.312-.65-.34-.95-.07a4.33 4.33 0 0 0-.668.789c-.3.441-.558.914-.851 1.36-.118.175-.282.32-.473.527-.117-.336-.211-.586-.293-.84-.164-.485-.297-.985-.488-1.457-.243-.61-.621-.707-1.149-.309a2.579 2.579 0 0 0-.472.473c-.258.324-.485.668-.735.996-.226.289-.449.586-.703.848-.277.28-.402.269-.598-.063-.285-.477-.523-.984-.796-1.473-.168-.297-.34-.605-.56-.867-.339-.398-.722-.36-1.023.07a3.504 3.504 0 0 0-.3.56c-.203.448-.383.905-.582 1.355-.07.152-.172.293-.317.539-.289-.57-.527-1.047-.773-1.52-.203-.383-.39-.777-.633-1.137-.273-.394-.652-.457-1.05-.183-.22.148-.41.347-.575.554-.348.45-.656.93-1.004 1.38-.496.64-.73.656-1.258.042-.39-.453-.718-.965-1.093-1.433-.274-.34-.547-.684-.875-.965-.477-.41-.926-.375-1.364.074-.222.23-.41.5-.601.758-.246.332-.465.687-.719 1.008-.379.476-.555.472-.902-.035-.258-.38-.465-.79-.707-1.176-.258-.418-.5-.848-.809-1.227-.375-.465-.863-.504-1.324-.125-.29.242-.528.543-.778.828-.308.352-.585.73-.91 1.067-.25.258-.433.242-.629-.063-.277-.43-.504-.89-.757-1.336-.274-.468-.52-.965-.852-1.394-.336-.442-.777-.399-1.117.039a4.453 4.453 0 0 0-.38.59c-.214.379-.405.773-.624 1.148-.2.332-.324.356-.574.055-.309-.375-.578-.79-.852-1.195-.375-.555-.695-1.149-1.113-1.668-.55-.688-1.086-.637-1.59.09-.254.367-.469.761-.715 1.132-.11.172-.25.32-.441.559-.196-.438-.364-.785-.508-1.145-.246-.597-.45-1.215-.723-1.797-.328-.695-.824-.754-1.32-.168-.293.348-.512.758-.77 1.133-.125.18-.265.348-.43.563-.156-.176-.292-.293-.382-.438a18.253 18.253 0 0 1-.606-1.082c-.355-.68-.668-1.387-1.066-2.043-.418-.68-1-.707-1.547-.125-.242.262-.449.555-.68.828-.109.13-.242.239-.43.422-.105-.523-.195-.949-.28-1.37-.114-.583-.207-1.169-.36-1.74-.047-.167-.25-.382-.406-.401-.156-.02-.375.14-.5.285-.145.16-.215.386-.309.59-.105.226-.199.457-.297.687a5.47 5.47 0 0 1-.402-1.094c-.23-.922-.437-1.847-.676-2.765-.101-.391-.273-.743-.812-.7.152-1.656.312-3.285.86-4.941.05.184.073.277.1.371.11.375.2.758.345 1.117.054.13.234.282.363.29.125.003.277-.145.383-.262.086-.094.129-.235.164-.36.144-.496.273-.992.414-1.484.164-.586.332-1.172.5-1.758.16.188.234.36.308.531.121.29.227.586.375.86.301.55.703.562 1.035.035.126-.2.231-.41.317-.625.273-.684.523-1.38.8-2.059.122-.293.29-.57.434-.855h.125Zm62.36 6.278c-.23-.406-.45-.82-.688-1.226a5.049 5.049 0 0 0-.43-.637c-.597-.754-1.195-.727-1.738.074-.14.215-.258.445-.387.664-.43.735-.902 1.43-1.69 1.836.437-.105.78-.367 1.054-.7.332-.405.613-.847.914-1.277.156-.214.285-.457.465-.652.359-.387.675-.398 1.02 0 .273.317.491.684.706 1.047.227.371.399.777.633 1.14.098.153.305.337.441.325.133-.012.305-.25.348-.418.2-.8.348-1.613.54-2.414.081-.356.214-.703.35-1.047.06-.156.18-.29.325-.516.14.254.273.422.336.614.273.882.516 1.773.8 2.656.133.406.298.82.528 1.18.285.449.77.52 1.14.148.34-.34.598-.77.86-1.18.203-.316.332-.68.54-.996.222-.344.41-.316.53.082.125.414.192.848.27 1.274.074.386.23.715.586.941-.543-.484-.461-1.16-.574-1.773-.04-.196-.079-.395-.153-.582-.164-.422-.469-.477-.75-.13-.168.208-.297.446-.43.677-.203.347-.374.71-.593 1.046a1.991 1.991 0 0 1-.461.48c-.242.192-.524.188-.7-.081a3.721 3.721 0 0 1-.46-.914c-.27-.875-.496-1.762-.75-2.64-.063-.212-.137-.434-.262-.61-.113-.16-.309-.367-.457-.36-.176.008-.422.196-.488.368-.23.585-.426 1.195-.582 1.804-.149.563-.227 1.14-.344 1.707-.027.149-.094.285-.168.5-.125-.18-.215-.289-.281-.41Zm-33.739-4.32c-.058-.735-.086-1.469-.129-2.207a.916.916 0 0 0-.066-.29c-.09-.187-.238-.21-.367-.054a1.358 1.358 0 0 0-.242.434c-.297.89-.578 1.78-.868 2.671-.046.149-.101.29-.187.54-.14-.395-.246-.696-.355-.997-.258-.722-.504-1.453-.786-2.168-.097-.25-.214-.597-.539-.562-.347.043-.351.422-.402.7-.148.823-.254 1.655-.418 2.476-.129.652-.41 1.23-1.063 1.535.497-.11.817-.45.977-.895.203-.59.348-1.199.488-1.804.098-.414.133-.836.215-1.254.031-.18.106-.356.16-.531.04-.008.075-.016.114-.02.109.203.246.402.324.617.277.79.531 1.586.805 2.38.066.198.136.401.242.581.156.262.375.258.504-.015.129-.286.214-.586.312-.883.227-.688.445-1.38.672-2.07.04-.11.09-.215.21-.317.02.438.032.879.063 1.313.036.425.059.851.149 1.261.039.18.21.414.367.457.152.04.41-.09.54-.222.554-.59.765-1.348.944-2.11.055-.23.082-.465.145-.691.035-.13.113-.25.215-.465.164.242.312.398.383.582.195.52.37 1.05.535 1.582.172.559.508.953 1.066 1.16-.746-.367-.922-1.062-1.09-1.785-.101-.441-.285-.867-.48-1.277-.074-.157-.293-.344-.434-.336-.133.011-.304.242-.363.406-.152.457-.215.941-.383 1.387-.16.433-.394.843-.62 1.25-.079.133-.24.215-.442.39-.082-.312-.176-.539-.196-.77Zm13.25 8.664c.188.664.38 1.332.606 1.98.094.274.226.618.594.598.355-.02.421-.371.511-.637.18-.535.317-1.09.485-1.633.07-.222.14-.457.27-.644.124-.176.327-.297.5-.441.144.171.323.328.417.523.098.195.11.434.153.652.14.68.55 1.164 1.082 1.559.023-.02.043-.035.062-.055-.14-.129-.289-.254-.418-.394-.34-.36-.539-.782-.601-1.278a2.683 2.683 0 0 0-.223-.8c-.227-.489-.684-.54-.996-.106a3.495 3.495 0 0 0-.438.86c-.195.542-.347 1.105-.531 1.656-.059.172-.16.328-.289.586-.16-.266-.309-.426-.363-.614-.246-.836-.465-1.675-.692-2.515-.086-.313-.16-.63-.27-.93-.038-.105-.187-.258-.261-.246-.11.02-.258.148-.285.262-.149.582-.242 1.18-.395 1.758-.18.69-.39 1.375-.605 2.054-.05.16-.172.301-.305.524-.097-.184-.172-.297-.226-.422-.274-.621-.528-1.254-.825-1.864-.14-.293-.304-.648-.707-.625-.418.028-.476.426-.593.723-.211.531-.387 1.074-.606 1.598-.156.379-.36.738-.531 1.129.11-.157.242-.297.32-.461.324-.711.617-1.434.95-2.14.113-.24.3-.446.453-.665.191.2.441.371.558.61.266.538.465 1.109.692 1.667.05.125.093.25.152.372.184.355.46.386.691.054.133-.191.254-.402.317-.625.277-1.031.535-2.07.8-3.105.036-.137.067-.27.098-.403.031 0 .063-.004.094-.004.117.48.223.965.355 1.442Zm-30.453 5a6.394 6.394 0 0 0-.277-.996c-.043-.121-.203-.2-.313-.297-.082.11-.21.207-.242.328a3 3 0 0 1-1.039 1.637c-.101.086-.254.11-.383.164-.03-.133-.086-.27-.09-.403-.03-1.015-.035-2.035-.078-3.046-.011-.223-.144-.438-.218-.657-.098.2-.227.387-.293.594-.176.555-.29 1.125-.493 1.668-.125.34-.363.64-.554.973.832-.739.933-1.813 1.336-2.77.011.16.039.317.039.477 0 .914-.008 1.832-.008 2.75 0 .078 0 .156.004.234.031.434.328.625.683.371.352-.254.66-.59.934-.933.2-.258.309-.586.496-.953.13.593.254 1.144.363 1.695.079.383.122.773.211 1.152.032.133.16.242.243.363.12-.097.3-.175.347-.3.223-.594.406-1.203.606-1.809.093-.285.168-.578.273-.86.063-.171.168-.324.305-.581.133.226.265.359.3.515.106.508.2 1.024.254 1.543.055.492.196.918.653 1.18-.48-.402-.496-.945-.524-1.512a6.09 6.09 0 0 0-.25-1.375c-.05-.176-.27-.394-.437-.418-.125-.02-.36.219-.422.387-.277.73-.508 1.477-.758 2.215-.074.215-.164.426-.246.637l-.074-.012c-.113-.653-.219-1.309-.348-1.961Zm34.121-15.969c.32-.664.551-1.371.883-2.058.016.257.04.515.047.773.02.687.55 1.02 1.176.727.375-.18.59-.5.754-.864.074-.16.148-.32.304-.484.106.355.207.71.313 1.066.07.235.125.477.226.7.192.433.54.476.81.082.202-.293.355-.622.5-.946.155-.355.276-.726.413-1.094.008-.015.031-.027.09-.078.277 1.114.262 2.348 1.387 3.047-.012-.031-.016-.062-.035-.078-.614-.543-.895-1.234-.977-2.031a5.67 5.67 0 0 0-.16-.89c-.031-.118-.16-.212-.246-.317-.09.086-.215.156-.266.265-.23.508-.43 1.028-.664 1.536-.098.21-.258.398-.45.691-.12-.281-.214-.453-.269-.637-.133-.437-.23-.886-.375-1.32-.047-.137-.195-.316-.312-.328-.113-.012-.274.148-.36.273-.12.184-.175.41-.289.602-.105.168-.222.363-.382.45-.188.1-.47.183-.645.112-.145-.058-.242-.34-.285-.539-.059-.281-.035-.578-.078-.863-.016-.102-.133-.188-.203-.281-.09.07-.23.125-.266.218-.14.36-.27.731-.371 1.106-.3 1.125-.844 2.062-1.902 2.644a2.92 2.92 0 0 0 1.632-1.484Zm29.711 11.781c-.129-.343-.234-.699-.383-1.035-.09-.203-.19-.512-.468-.414-.14.05-.227.34-.282.54-.171.597-.308 1.206-.48 1.804-.055.183-.184.348-.281.52h-.094c-.05-.192-.105-.387-.152-.583-.149-.648-.426-1.218-.942-1.656-.246-.21-.535-.328-.863-.238-.121.031-.23.121-.332.226.289-.16.59-.238.86-.027.23.18.48.387.617.637.203.387.324.82.464 1.242.082.242.036.633.36.629.187-.004.453-.293.531-.508.234-.621.39-1.273.57-1.914.032-.105.035-.215.055-.324a.607.607 0 0 0 .09-.02l.387 1.004c.101.258.171.535.3.778.196.363.532.378.711.007.242-.496.41-1.03.61-1.55.07-.184.144-.368.254-.645.148.195.285.305.332.445.222.63.46 1.254.609 1.903.09.39.254.633.621.73.344.09.691.149 1.043.192-.367-.114-.738-.211-1.098-.34-.234-.082-.336-.254-.39-.524-.13-.64-.32-1.27-.5-1.902a.94.94 0 0 0-.203-.379c-.118-.117-.286-.27-.418-.258-.13.008-.297.184-.36.324-.152.348-.238.72-.375 1.075-.117.304-.265.601-.398.902-.047-.004-.094-.004-.14-.004-.087-.21-.173-.422-.255-.637Zm-70.515-8.515c-.051-.215-.043-.547-.344-.52-.133.012-.25.309-.356.489-.203.332-.359.695-.593.996-.235.3-.41.242-.532-.121-.105-.317-.183-.645-.32-.95-.172-.379-.476-.441-.726-.117-.286.375-.559.79-.711 1.23-.2.583-.528.91-1.137.958.57.058.926-.168 1.168-.668.215-.438.441-.875.719-1.274.234-.34.41-.293.543.09.086.254.14.52.207.777.16.598.586.73.992.258.305-.36.52-.793.785-1.21.066.34.133.702.215 1.066.14.644.437.742.933.297.496-.442.786-1.016.965-1.653.051-.176.117-.347.2-.594.144.157.277.235.316.344.156.434.351.871.41 1.324.05.407.164.739.469.993.273.234.574.437.902.593-.254-.207-.516-.402-.754-.62-.285-.259-.39-.579-.441-.973-.063-.508-.246-1.008-.438-1.489-.062-.148-.328-.308-.484-.3-.133.011-.309.25-.356.421-.168.59-.394 1.141-.82 1.586-.137.149-.316.258-.527.422-.106-.508-.184-.933-.285-1.355Zm0 0"/><path style="stroke:none;fill-rule:nonzero;fill:#706f6f;fill-opacity:1" d="M187.723 19.063v.3c0 4.93.007 9.864-.008 14.793a4.436 4.436 0 0 1-.23 1.313c-.446 1.363-1.383 2.383-2.454 3.281-1.55 1.305-3.312 2.262-5.148 3.082-4.051 1.813-8.305 2.945-12.633 3.828-4.922 1-9.89 1.61-14.898 1.957-4.829.34-9.66.43-14.5.29a137.025 137.025 0 0 1-10.434-.692c-4.3-.453-8.57-1.117-12.781-2.106-3.813-.894-7.555-2.011-11.086-3.738-1.844-.898-3.594-1.941-5.035-3.43-.97-.996-1.73-2.125-1.805-3.566-.055-1.05-.012-2.102-.008-3.152 0-.032.024-.063.04-.094.054.457.05.902.058 1.348.008.43.027.859.043 1.293.047-.004.094-.004.136-.004V22.305h-.062c-.055 1.605-.106 3.215-.16 4.82a.63.63 0 0 1-.059-.29c0-2.76-.004-5.523.004-8.284 0-.227.09-.45.137-.672h.101c.063.207.133.418.184.629.23.933.441 1.867.684 2.797.082.308.21.613.367.894.226.395.57.39.808.008.13-.207.215-.437.32-.66.094-.207.184-.414.274-.621.102.16.137.308.168.457.156.777.29 1.558.473 2.328.117.484.55.621.965.34.136-.094.257-.219.363-.344.21-.242.406-.504.617-.75.398-.469.559-.469.867.05.262.438.473.911.715 1.36.328.61.621 1.242 1.008 1.809.433.637.95.617 1.402.004.27-.371.492-.77.754-1.149.11-.156.254-.289.43-.492.168.356.308.633.426.918.257.64.472 1.305.761 1.93.391.836.934.867 1.47.105.265-.383.491-.797.75-1.187.374-.575.515-.594.91-.043.382.535.698 1.113 1.066 1.66.273.406.547.824.886 1.172.493.504.938.437 1.317-.153.242-.375.43-.78.652-1.168.14-.246.297-.484.504-.816.23.344.422.598.578.871.352.633.653 1.3 1.04 1.91.476.75 1.085.782 1.698.13.274-.294.504-.626.766-.934.23-.27.469-.536.723-.786.203-.203.425-.18.597.059.2.281.391.566.57.863.325.52.598 1.075.958 1.57.527.723 1.047.723 1.648.063.082-.09.156-.187.227-.289.289-.41.562-.832.863-1.234.457-.61.676-.63 1.168-.055.406.477.742 1.004 1.14 1.488.297.36.606.719.97 1.008.421.336.847.285 1.238-.09.246-.242.453-.523.664-.797.312-.402.593-.84.925-1.226.31-.363.461-.34.692.082.285.531.527 1.082.808 1.617a3.6 3.6 0 0 0 .473.723c.3.336.668.304.938-.051a2.41 2.41 0 0 0 .257-.43c.22-.488.422-.984.641-1.472.078-.176.188-.34.32-.582.188.296.34.511.47.742.323.586.608 1.195.964 1.758.32.503.8.57 1.254.18.308-.266.562-.606.816-.927.328-.41.625-.843.953-1.25.102-.128.262-.218.434-.355.09.242.164.414.223.594.207.601.382 1.21.62 1.8.204.504.602.586 1.009.22.234-.216.437-.477.613-.747.293-.433.543-.898.836-1.332.137-.203.324-.371.543-.613.21.336.386.59.539.86.3.523.554 1.073.89 1.57.375.558.836.546 1.25.023.122-.156.227-.332.32-.508.266-.504.516-1.015.786-1.515.09-.168.223-.313.371-.516.148.254.27.43.363.617.227.461.426.934.664 1.387.172.336.34.73.79.734.456.004.652-.387.835-.73.286-.532.532-1.082.809-1.617.101-.2.242-.38.398-.618.149.239.262.403.352.582.21.43.402.871.621 1.297.54 1.063 1.117 1.098 1.746.09.32-.512.582-1.058.883-1.578.144-.242.32-.461.527-.758.125.258.215.422.285.594.184.453.344.918.543 1.367.137.309.258.692.676.703.426.012.598-.355.754-.672.254-.507.461-1.039.703-1.554.13-.278.29-.543.492-.922.32.375.579.672.825.976.336.43.629.899 1 1.293.41.434.898.399 1.265-.07.262-.332.465-.707.676-1.074.25-.434.457-.895.715-1.324.324-.547.457-.551.812-.04.297.434.547.895.848 1.329.629.906 1.195.886 1.723-.078.304-.555.543-1.149.824-1.72.129-.265.289-.515.437-.773.036 0 .067.004.102.004.172.395.34.793.523 1.184.149.324.286.656.48.953.231.344.563.36.849.059.16-.168.296-.372.394-.579.281-.605.535-1.226.813-1.836.105-.238.25-.457.406-.738.12.188.207.301.273.426.2.387.375.785.586 1.168.18.324.328.742.785.727.47-.02.57-.458.7-.801.218-.586.398-1.188.601-1.778.07-.207.16-.406.262-.66.086.149.144.23.183.317.204.472.395.949.618 1.41.117.254.27.523.601.508.34-.016.446-.309.528-.575.175-.566.32-1.136.48-1.707.074-.261.148-.52.227-.777.265.488.441.98.636 1.46.11.27.23.587.575.583.343 0 .472-.313.562-.59.215-.656.402-1.32.61-1.984.077-.254.167-.508.288-.856l.329.703c.152.332.28.688.476.993.102.152.336.296.504.293.14-.008.34-.215.395-.375.152-.43.246-.88.347-1.325.113-.472.207-.949.313-1.425.234.472.39.949.601 1.398.067.14.274.293.422.297.13.008.324-.16.387-.297.148-.32.258-.664.348-1.008.195-.765.367-1.539.546-2.308.11.117.153.238.196.359.101.27.18.555.312.809.164.312.492.304.653.003a1.11 1.11 0 0 0 .101-.316c.082-.492.156-.988.234-1.484.012.004.024.004.036.008Zm-1.864 17.921h.121c-.046-4.562-.097-9.12-.148-13.683-.043 0-.086 0-.133.004-.11 4.558-.058 9.12.16 13.68Zm1.723-15.48h-.082c-.242 1.328-.36 12.21-.059 12.824l.141-12.824Zm-67.055 8.086c-.082 2.07-.195 4.137-.238 6.207-.039 2.078-.008 4.152-.008 6 .258-1.442.41-10.274.246-12.207Zm49.809 13.566c.176-2.152.105-10.965-.094-11.793-.117 3.93-.129 7.864.094 11.793Zm-43.813.852c.254-4.043.336-8.09.223-12.14-.242 4.042-.355 8.089-.223 12.14Zm60.278-20.102v11.621h.137c.132-3.875.113-7.75-.137-11.62Zm-86.895.832c-.457 4.04-.699 8.09-.777 12.153.457-4.036.691-8.09.777-12.153Zm31.18 19.672c.289-3.918.39-7.844.312-11.773a120.799 120.799 0 0 0-.312 11.773Zm-30.844-6.7c.356-3.8.488-7.608.469-11.425-.352 3.8-.5 7.61-.469 11.426Zm2.309 1.009c.043.004.082.004.125.008l.457-11.301h-.121a121.122 121.122 0 0 0-.461 11.293Zm81.316-.04c.18-1.343.14-9.511-.07-11.886-.149 3.965-.14 7.926.07 11.887Zm-9.527 2.282c.172-3.395.14-6.79-.074-10.188a91.38 91.38 0 0 0 .074 10.188Zm-15.05 3.281c.284-3.648.312-7.304.233-10.96-.265 3.648-.351 7.3-.234 10.96Zm-7.462.809c.293-1.606.277-9.383 0-10.73v10.73Zm31.246-6.414V28.398c-.277 1.446-.273 9.059 0 10.239Zm-19.672-5.969c-.238.703-.21 8.96-.023 10.371.176-3.441.172-6.883.023-10.371Zm18.797-5.867c-.164 3.625-.137 7.25.074 10.875.16-3.63.137-7.254-.074-10.875Zm-59.351 17.164c.3-3.492.437-6.992.363-10.496-.305 3.492-.445 6.992-.363 10.496Zm33.695.113h.121V33.953a86.696 86.696 0 0 0-.121 10.125Zm-58.3-7.766c.327-3.32.429-6.644.402-9.98-.254 1.148-.532 8-.403 9.98Zm14.429 5.184c.398-3.332.586-6.68.617-10.039a86.245 86.245 0 0 0-.617 10.04Zm-14.77-16.71a88.312 88.312 0 0 0-.304 9.855c.293-3.282.394-6.567.304-9.856Zm49.563 19.241c.207-.89.07-7.797-.2-9.652-.113 3.215-.027 6.422.2 9.652Zm-5.242-10.132h-.098v9.777h.098c.183-3.258.183-6.52 0-9.777Zm42.808-8.208c-.199.887-.113 7.602.13 9.493.163-3.153.066-6.305-.13-9.492Zm-77.988 4.446c-.285 3.23-.324 6.472-.238 9.715.277-3.235.34-6.473.238-9.715Zm71.148 9.324c.25-2.902.282-5.809.153-8.71-.223 2.901-.305 5.804-.153 8.71Zm-11.296 1.59h.109a86.91 86.91 0 0 0 .004-9.024h-.113v9.024Zm-28.454 2.605c.286-.879.301-6.715.086-8.394l-.086-.012v8.406Zm-19.933-9.703h-.11c-.171 2.7-.175 5.399.004 8.098h.106v-8.098Zm16.582 2.192c-.293 2.629-.328 5.265-.242 7.906.289-2.629.324-5.266.242-7.906ZM129 42.48c.188-2.415.184-4.829.027-7.243 0-.004-.02-.008-.05-.015A46.888 46.888 0 0 0 129 42.48Zm0 0"/><path style="stroke:none;fill-rule:nonzero;fill:#634e42;fill-opacity:1" d="M9.05 68.836c-2.413-2-5.48-1.324-6.87 1.488-1.477 2.977-.5 7.106 2.152 9.102 1.848 1.394 4.086 1.328 5.652-.196 1.036-1.007 1.516-2.285 1.68-3.699.031-.27.04-.539.059-.812-.094-2.32-.836-4.364-2.672-5.883Zm0 0"/><path style="stroke:none;fill-rule:nonzero;fill:#7b6a58;fill-opacity:1" d="M10.047 79.809c.805-.207 1.558-.399 2.312-.594 6.024-1.555 12.051-3.106 18.078-4.66 9.032-2.332 18.067-4.664 27.098-6.993l25.805-6.656c5.46-1.406 10.926-2.812 16.387-4.226 1.52-.39 2.472-1.426 3.074-2.832 1.285-3.008.207-7.016-2.371-8.86-1.211-.863-2.512-1.117-3.973-.734-7.71 2.004-15.426 3.984-23.14 5.976l-29.079 7.5c-9.379 2.422-18.758 4.844-28.136 7.262l-8.829 2.274c-.078.02-.152.046-.277.086 4.75 1.351 6.7 8.722 3.05 12.457Zm0 0"/><path style="stroke:none;fill-rule:nonzero;fill:#634e42;fill-opacity:1" d="M97.46 43.621c-1.542-.789-3.034-1.61-4.39-2.644-1.37-1.047-2.586-2.227-3.437-3.864v8.485c2.597-.657 5.183-1.309 7.828-1.977Zm0 0"/><path style="stroke:none;fill-rule:nonzero;fill:#a48a7b;fill-opacity:1" d="M188.148 33.309c.102 1.777-.386 3.379-1.539 4.652-1.261 1.394-2.808 2.41-4.449 3.293-3.078 1.66-6.37 2.77-9.73 3.68-4.051 1.097-8.172 1.84-12.328 2.382-3.895.512-7.801.844-11.723.985-2.473.09-4.95.144-7.422.129a139.324 139.324 0 0 1-13.016-.703c-4.78-.493-9.523-1.227-14.195-2.372-3.5-.859-6.933-1.925-10.191-3.496-1.98-.957-3.864-2.062-5.407-3.664-1.015-1.05-1.77-2.246-1.937-3.742a4.708 4.708 0 0 1-.023-.469V27.137c-.063.008-.106 0-.141.02-1.738.98-3.379 2.093-4.688 3.632-.87 1.027-1.625 2.148-1.726 3.527-.11 1.504.55 3.157 1.445 4.313 2.317 2.867 6.524 4.742 7.824 5.32 9.672 3.98 19.153 5.172 22.735 5.637 6.039.848 18.097 1.105 21.797 1.117 9.406.024 18.644-1.254 22.132-1.812 6.043-.965 11.73-2.344 17.434-4.625 2.324-.934 8.594-3.985 9.648-6.887 1.063-1.828.817-3.633-.257-5.45-.98-1.648-2.621-2.921-4.243-4.015Zm0 0"/><path style="stroke:none;fill-rule:nonzero;fill:#7b6a58;fill-opacity:1" d="M192.438 37.852c-.915 1.468-2.184 2.586-3.586 3.558-2.5 1.735-10.891 5.621-19.868 7.133-3.52.695-17.808 2.18-21.402 2.344-3.137.14-17.144.023-26.418-1.082-6.605-.84-13.125-2.11-19.426-4.332-.062-.024-.125-.04-.25-.078 1.961 2.039 2.645 5.52 1.528 8.496-.66 1.754-1.922 2.902-3.79 3.304-.16.035-.824.403-.714.45 3.32 1.414 7.21 2.554 10.71 3.394 14.977 3.516 26.176 3.574 34.7 3.418 12.668-.312 14.082-1.004 17.527-1.219 3.64-.23 14.942-2.558 20.403-4.703 2.546-1.004 5.168-2.062 7.359-3.734 1.101-.836 2.566-2.219 3.289-3.414.563-.93.867-2.145.863-3.239-.008-3.511 0-7.378 0-10.89 0-.117-.804.398-.925.594Zm0 0"/><path style="stroke:none;fill-rule:nonzero;fill:#000;fill-opacity:1" d="M6.809 80.953c-.04-.016-.075-.05-.114-.05-1.187-.114-2.195-.626-3.082-1.4-2.39-2.089-3.304-5.96-2.101-8.94.656-1.63 1.754-2.81 3.5-3.27.797-.211 1.593-.414 2.394-.621l27.332-7.02 28.075-7.218c8.656-2.227 17.312-4.457 25.972-6.672.293-.075.36-.2.356-.477a2248.03 2248.03 0 0 1 0-10.265c0-.336.015-.672.062-1.004.215-1.446.942-2.633 1.899-3.7 1.308-1.453 2.898-2.539 4.593-3.476.336-.184.457-.38.453-.766 0-3.074-.011-6.148.063-9.222.035-1.497.285-2.98.723-4.418.093-.309.234-.61.398-.88.168-.277.457-.253.606.04.093.183.144.394.203.597.086.305.16.61.242.918.277-.773.465-1.543.691-2.3.114-.383.258-.762.453-1.11.188-.336.543-.328.754-.004.153.23.254.496.367.75.13.285.243.578.399.957.133-.273.234-.445.308-.629.227-.582.434-1.171.672-1.746.168-.402.348-.804.582-1.164.329-.515.766-.527 1.133-.043.262.344.465.735.703 1.094.121.184.262.352.465.613.293-.43.559-.78.785-1.156.399-.672.758-1.367 1.168-2.031.16-.258.39-.488.63-.68.32-.258.648-.226.925.07.21.23.383.497.559.75.207.305.398.622.605.926.168.254.352.254.516.004.234-.367.457-.738.675-1.113.34-.574.63-1.188 1.02-1.727.488-.672 1.012-.66 1.531-.011.313.39.574.82.867 1.23.473.664.664.676 1.141.004.352-.5.648-1.043.996-1.547.258-.375.527-.754.848-1.07.433-.426.87-.395 1.289.043.191.199.347.433.508.66.277.379.523.777.82 1.14.254.313.363.293.637-.015.11-.121.215-.258.3-.399.258-.418.493-.851.758-1.261.227-.348.453-.696.735-.996.422-.453.882-.43 1.3.023.141.152.27.328.387.504.25.379.48.777.742 1.152.43.614.61.618 1.035-.007.336-.489.614-1.012.946-1.5.219-.325.457-.641.738-.903.348-.32.742-.273 1.063.074.164.18.308.387.433.594.23.383.434.781.664 1.164.125.203.29.38.492.64.2-.304.372-.53.508-.78.309-.555.57-1.137.906-1.68.47-.762 1.032-.797 1.606-.117.3.36.547.761.82 1.14.184.254.356.516.559.75.297.348.488.356.808.04a6.58 6.58 0 0 0 .555-.672c.356-.473.676-.973 1.055-1.426.703-.84 1.308-.77 1.832.187.27.489.5 1 .762 1.492.097.18.234.336.39.555.18-.207.336-.351.446-.523.28-.442.539-.899.808-1.352.242-.402.508-.789.95-1.004h.398c.492.305.765.79 1.047 1.27.226.398.453.797.699 1.183.086.137.215.246.379.426.18-.281.347-.512.48-.762.219-.41.406-.843.633-1.253.121-.223.27-.442.45-.618.304-.297.675-.246.85.137.22.473.368.98.544 1.473.11.312.215.629.351 1.043.141-.25.246-.41.325-.582.238-.508.437-1.028.699-1.52.426-.805.941-.828 1.449-.066.273.418.484.879.73 1.316.149.274.297.55.473.809.207.304.356.324.621.066.254-.246.473-.531.696-.808.312-.383.605-.778.921-1.149.114-.133.266-.242.422-.324.399-.211.754-.145.993.234.265.426.468.887.695 1.332.18.36.355.723.531 1.082.129.254.332.274.516.102.312-.285.597-.598.882-.91.31-.336.586-.703.91-1.024.571-.562 1.176-.547 1.66.086.372.485.665 1.031.997 1.547.191.297.379.606.598.883.265.332.445.348.75.05.289-.28.535-.6.8-.898.274-.312.524-.644.828-.922.48-.433 1.012-.43 1.45.047.39.426.71.914 1.05 1.383.317.445.598.918.942 1.344.34.422.598.437 1.027.097.297-.238.551-.52.832-.777.32-.293.621-.617.977-.86.566-.386 1.074-.261 1.398.344.293.547.512 1.137.77 1.704.133.296.273.586.414.878.125.254.308.274.512.098.164-.148.324-.308.468-.473.297-.335.563-.699.875-1.015.547-.57 1.125-.555 1.57.101.45.66.801 1.387 1.204 2.082.199.348.41.692.629 1.028.16.242.355.246.539.02.191-.231.367-.477.554-.716.176-.226.34-.468.543-.675.43-.446.91-.407 1.207.136.282.516.489 1.075.715 1.618.164.402.297.82.465 1.218.309.75.438.762.938.11.113-.153.218-.309.34-.457.113-.137.226-.278.363-.39.386-.325.812-.25 1.004.222.183.449.312.93.437 1.402.156.586.285 1.18.426 1.774h.086c.097-.36.191-.72.293-1.075.054-.18.094-.375.191-.53.07-.118.227-.25.344-.25.117 0 .3.136.34.25.195.546.406 1.093.512 1.655.335 1.793.511 3.606.503 5.434-.015 2.851 0 5.703-.011 8.555 0 .242.078.375.281.507 1.457.95 2.805 2.024 3.836 3.45.637.879 1.09 1.84 1.242 2.93.008.038.04.074.055.113v14.964c-.016.036-.043.075-.055.114-.215.652-.36 1.343-.656 1.953-.73 1.488-1.918 2.597-3.219 3.578-2.082 1.574-4.394 2.719-6.797 3.687-6.012 2.422-12.285 3.81-18.668 4.739a153.84 153.84 0 0 1-9.558 1.09c-3.239.27-6.493.445-9.743.507-3.44.063-6.886-.011-10.328-.101-4.011-.102-8.007-.45-11.992-.926-4.238-.504-8.445-1.195-12.601-2.164-4.04-.945-8.004-2.125-11.801-3.824a.864.864 0 0 0-.508-.024c-10.3 2.641-20.594 5.293-30.89 7.938-11.02 2.832-22.04 5.66-33.06 8.492-6.816 1.75-13.628 3.508-20.44 5.258-1.981.508-3.965.992-5.95 1.488H6.81Zm95.87-72.047c-.277.68-.527 1.375-.8 2.059a3.911 3.911 0 0 1-.317.625c-.332.527-.734.515-1.035-.035-.148-.274-.25-.57-.375-.86-.074-.172-.148-.347-.308-.53-.168.585-.336 1.17-.5 1.757-.14.492-.27.988-.414 1.484-.035.125-.078.266-.164.36-.106.117-.258.265-.383.261-.13-.007-.309-.16-.363-.289-.145-.36-.235-.742-.344-1.117-.028-.094-.051-.187-.102-.371-.547 1.656-.707 3.285-.855 4.941.535-.043.707.309.808.7.239.918.446 1.843.676 2.765.094.367.219.723.402 1.094.098-.23.192-.46.297-.688.094-.203.164-.43.309-.59.125-.144.344-.304.5-.285.156.02.36.235.406.403.153.57.246 1.156.36 1.738.085.422.175.848.28 1.371.188-.183.321-.293.43-.422.231-.273.438-.566.68-.828.547-.582 1.13-.554 1.547.125.398.656.711 1.363 1.066 2.043.192.367.391.73.606 1.082.09.145.227.262.383.438.164-.215.304-.383.43-.563.257-.375.476-.785.769-1.133.496-.586.992-.527 1.32.168.274.582.477 1.2.723 1.797.144.36.312.707.508 1.145.191-.238.332-.387.441-.559.246-.37.461-.765.715-1.133.504-.726 1.04-.777 1.59-.09.418.516.738 1.114 1.113 1.669.274.406.543.82.856 1.195.246.3.37.277.57-.055.219-.375.41-.77.625-1.148.113-.203.234-.407.379-.59.34-.438.781-.48 1.12-.04.329.43.575.927.849 1.395.253.446.48.907.757 1.336.196.301.38.32.63.063.323-.336.6-.715.913-1.067.246-.285.489-.586.778-.828.46-.379.945-.34 1.32.125.309.38.55.809.809 1.227.242.387.449.797.707 1.176.347.507.523.511.902.035.254-.32.473-.676.719-1.008.191-.258.379-.527.601-.758.438-.45.887-.484 1.364-.074.328.281.601.625.875.965.375.468.703.98 1.097 1.433.524.614.758.598 1.254-.043.348-.449.656-.93 1.004-1.379.164-.207.356-.406.574-.554.399-.274.778-.211 1.051.183.242.36.43.754.633 1.137.246.473.484.95.773 1.52.145-.247.246-.387.317-.54.199-.449.382-.906.582-1.355.086-.191.18-.383.3-.559.301-.43.684-.468 1.024-.07.219.262.39.567.559.867.273.489.511.993.796 1.473.196.332.32.344.598.063.254-.262.477-.56.703-.848.25-.328.477-.672.735-.996.136-.176.296-.34.472-.473.528-.398.906-.3 1.149.309.191.472.324.972.488 1.457.082.254.176.504.297.84.187-.207.351-.352.469-.528.293-.445.55-.918.851-1.36a4.33 4.33 0 0 1 .668-.788c.3-.27.691-.242.95.07.245.3.445.64.64.977.242.414.441.851.691 1.261.2.32.309.32.493 0 .292-.504.539-1.027.82-1.535.156-.281.316-.57.527-.812.324-.38.727-.371 1.008.043.27.39.465.836.684 1.261.195.372.382.75.613 1.207.164-.238.297-.386.383-.554.25-.489.476-.989.726-1.473.137-.254.285-.508.473-.726.293-.344.715-.348.965.027.3.453.523.953.781 1.437.164.309.328.621.535 1.016.192-.234.352-.39.461-.574.305-.52.578-1.055.883-1.574.129-.223.273-.438.445-.625.434-.48.844-.438 1.133.132.219.438.375.907.563 1.36.109.254.222.5.367.832.152-.266.273-.45.363-.649.246-.535.465-1.09.723-1.62.476-.981 1.062-1.044 1.757-.188.2.242.368.508.551.758.176.246.344.496.535.73.38.465.543.465.86-.062.312-.528.578-1.082.875-1.622.14-.25.289-.503.46-.734.423-.555.919-.574 1.364-.035.266.328.473.703.71 1.055.216.32.438.632.716 1.035.195-.285.363-.477.472-.696.29-.578.543-1.171.832-1.75.125-.246.278-.488.461-.691.297-.324.676-.3.899.07.242.41.418.86.62 1.293.126.262.243.524.407.88.164-.29.305-.497.406-.723.282-.618.536-1.25.825-1.864.164-.351.343-.765.804-.758.438.008.606.407.786.743.187.355.351.722.535 1.082.074.144.172.277.312.504.207-.598.375-1.102.555-1.606.152-.43.285-.871.484-1.277.09-.184.305-.375.496-.426.266-.07.45.164.559.39.191.391.36.794.535 1.192.082.176.168.355.336.527.133-.488.262-.976.398-1.464.118-.41.211-.825.375-1.215a.812.812 0 0 1 .45-.418c.265-.082.425.16.52.379.195.46.362.933.546 1.402.035.094.082.18.164.355.133-.418.242-.757.348-1.101.183-.598.355-1.2.554-1.79.079-.237.211-.456.508-.468.29-.012.45.191.559.41.238.477.453.969.723 1.551.148-.691.273-1.29.406-1.883.078-.336.164-.672.254-1.004.062-.234.152-.46.445-.472.285-.012.41.199.5.422.176.433.332.875.531 1.406.13-.489.239-.895.34-1.301.137-.563.266-1.129.402-1.695.028-.106.047-.23.11-.313.133-.164.27-.39.445-.433.262-.067.399.195.492.414.094.21.168.433.309.652.055-.469.117-.938.172-1.41.05-.442.078-.89.156-1.328.043-.23.168-.446.254-.668.023-.059.055-.125.047-.184-.203-1.312-.41-2.625-.621-3.933-.008-.051-.035-.102-.078-.215-.102.379-.184.699-.282 1.015-.066.211-.132.43-.242.621-.195.344-.555.344-.73-.011a4.471 4.471 0 0 1-.293-.852c-.192-.734-.36-1.473-.547-2.207-.05-.203-.137-.398-.23-.656-.133.12-.235.2-.313.293-.234.285-.442.59-.688.863-.53.598-1.117.531-1.449-.191-.32-.7-.57-1.43-.855-2.145-.102-.25-.203-.496-.32-.734-.243-.489-.337-.496-.676-.059-.2.254-.375.528-.567.79-.746 1.003-1.34.991-1.984-.075-.367-.61-.672-1.258-1.016-1.883a6.607 6.607 0 0 0-.52-.82c-.285-.379-.456-.39-.777-.047-.297.316-.554.672-.847.992-.2.223-.414.446-.66.61-.446.289-.875.195-1.145-.266-.227-.383-.398-.797-.582-1.203-.207-.453-.387-.926-.61-1.375-.21-.418-.382-.453-.761-.172-.242.176-.453.394-.672.602-.367.34-.707.718-1.106 1.015-.593.438-1.203.367-1.66-.207-.422-.531-.773-1.121-1.164-1.676-.246-.343-.488-.695-.77-1.007-.296-.329-.511-.329-.82-.004-.335.355-.632.75-.957 1.12-.218.25-.437.509-.699.716-.496.394-1.02.343-1.406-.157-.332-.433-.602-.914-.902-1.37-.25-.38-.48-.778-.762-1.138-.266-.335-.434-.34-.754-.05-.266.238-.488.52-.727.785-.343.379-.656.797-1.035 1.133-.61.543-1.14.445-1.527-.262-.297-.547-.535-1.129-.8-1.691-.403-.852-.575-.875-1.161-.149-.398.496-.777 1.008-1.18 1.504-.117.14-.27.266-.43.363-.437.274-.851.22-1.14-.207-.316-.468-.566-.984-.852-1.476-.21-.36-.425-.715-.64-1.075l-.117.012c-.125.227-.262.453-.375.688-.207.433-.391.875-.598 1.308a1.992 1.992 0 0 1-.309.477c-.304.348-.691.32-.882-.102-.223-.496-.372-1.027-.555-1.543-.106-.3-.211-.601-.32-.906-.032-.004-.067-.012-.102-.02-.242.465-.477.926-.723 1.383-.18.336-.351.68-.574.98-.34.462-.809.477-1.18.036-.25-.297-.449-.637-.656-.969-.265-.426-.504-.867-.785-1.281-.215-.313-.375-.316-.594-.008-.281.403-.511.836-.785 1.246-.242.371-.48.754-.777 1.082-.348.38-.793.352-1.082-.078-.325-.476-.57-1.004-.852-1.512-.144-.253-.289-.503-.433-.753-.106-.172-.25-.192-.387-.059-.23.223-.461.45-.66.703-.36.469-.676.973-1.047 1.434-.746.925-1.375.91-2.094-.047-.23-.301-.43-.625-.648-.934-.153-.222-.305-.445-.477-.648-.367-.442-.508-.434-.8.066-.262.446-.477.914-.727 1.36-.172.312-.348.628-.57.902-.337.406-.774.414-1.118.016-.23-.27-.414-.582-.601-.887-.235-.38-.438-.778-.684-1.149-.219-.336-.367-.351-.613-.035-.305.399-.555.836-.84 1.25-.293.43-.563.887-.906 1.278-.414.472-.871.464-1.29-.008-.3-.34-.535-.739-.8-1.114-.192-.273-.375-.55-.57-.824-.184-.254-.383-.238-.57-.008a8.27 8.27 0 0 0-.497.672c-.215.34-.398.7-.613 1.04-.203.316-.406.644-.653.93-.457.522-.964.526-1.425 0-.27-.31-.48-.669-.727-1a32.736 32.736 0 0 0-.617-.833c-.137-.176-.316-.184-.461-.023-.246.273-.492.546-.695.851-.332.488-.621 1.008-.953 1.496a4.05 4.05 0 0 1-.606.711c-.394.36-.805.344-1.187-.035a5.305 5.305 0 0 1-.528-.648c-.242-.332-.46-.688-.71-1.012-.278-.367-.407-.367-.692.004-.188.246-.348.52-.5.789-.27.488-.512.992-.793 1.473-.777 1.332-1.352 1.332-2.16.007-.192-.312-.395-.62-.594-.93-.152-.234-.328-.261-.5-.035-.258.352-.52.7-.742 1.07-.356.595-.672 1.212-1.024 1.805a2.843 2.843 0 0 1-.496.625c-.382.36-.77.336-1.097-.07-.239-.293-.422-.629-.63-.95-.144-.218-.292-.437-.437-.66h-.125c-.144.286-.312.563-.433.856Zm84.774 11.633c-.02.11-.05.223-.101.316-.16.301-.489.31-.653-.003-.133-.254-.21-.54-.312-.809a.935.935 0 0 0-.196-.36c-.18.77-.351 1.544-.546 2.31-.09.343-.2.687-.348 1.007-.063.137-.258.305-.387.297-.148-.004-.355-.156-.422-.297-.21-.45-.367-.926-.601-1.398-.106.476-.2.953-.313 1.425-.101.446-.195.895-.347 1.325-.055.16-.254.367-.395.375-.168.007-.402-.141-.504-.293-.195-.305-.324-.657-.476-.993-.094-.199-.188-.398-.329-.703-.12.348-.21.602-.293.86-.203.66-.39 1.324-.605 1.98-.09.277-.219.59-.563.59-.343.004-.464-.313-.574-.582-.195-.48-.37-.973-.636-1.461a45.13 45.13 0 0 0-.227.777c-.16.57-.305 1.141-.48 1.707-.083.266-.188.559-.528.575-.332.015-.484-.254-.601-.508-.223-.461-.414-.938-.618-1.406-.043-.09-.097-.172-.183-.32-.102.253-.192.452-.262.66-.203.59-.383 1.19-.601 1.777-.13.343-.23.785-.7.8-.457.016-.605-.402-.785-.726-.21-.383-.387-.781-.586-1.168-.066-.125-.152-.238-.273-.426-.156.281-.301.5-.406.738-.278.61-.532 1.23-.813 1.836-.098.207-.234.41-.394.579-.286.3-.618.285-.848-.06-.195-.296-.332-.628-.48-.952-.184-.39-.352-.79-.524-1.184-.035 0-.066-.004-.102-.004-.148.258-.308.508-.441.774-.277.57-.516 1.164-.82 1.722-.528.961-1.094.98-1.723.075-.3-.43-.55-.895-.848-1.325-.355-.515-.488-.511-.812.036-.258.43-.465.89-.715 1.324-.21.367-.414.742-.676 1.074-.367.469-.855.504-1.265.074-.371-.394-.664-.867-1-1.297-.246-.304-.504-.601-.825-.976-.203.379-.363.644-.492.922-.242.515-.449 1.047-.703 1.554-.156.317-.328.684-.754.672-.418-.012-.539-.394-.676-.703-.199-.45-.359-.914-.543-1.367-.07-.172-.16-.336-.285-.594-.207.297-.383.516-.527.758-.3.52-.563 1.066-.883 1.578-.629 1.008-1.207.973-1.746-.09-.219-.426-.41-.867-.621-1.297-.09-.175-.203-.34-.352-.582-.156.239-.297.418-.398.618-.277.535-.524 1.085-.809 1.617-.183.343-.379.734-.836.73-.449-.004-.617-.398-.789-.734-.238-.453-.437-.926-.664-1.387-.093-.187-.215-.363-.363-.617-.148.203-.281.348-.371.516-.27.5-.52 1.011-.785 1.515-.094.176-.2.352-.32.508-.415.523-.876.535-1.25-.023-.337-.497-.59-1.047-.891-1.57-.153-.266-.328-.524-.54-.86-.218.242-.405.41-.542.613-.293.434-.543.899-.836 1.332-.176.27-.38.531-.613.746-.407.367-.805.285-1.008-.218-.239-.586-.414-1.2-.621-1.801-.059-.18-.133-.352-.223-.594-.172.14-.332.227-.434.355-.328.407-.625.84-.953 1.25-.254.32-.508.66-.816.926-.453.39-.934.324-1.254-.18-.356-.562-.64-1.171-.965-1.757-.129-.23-.281-.446-.469-.742-.132.242-.242.406-.32.582-.219.488-.422.984-.64 1.472-.07.153-.157.297-.258.43-.274.355-.637.387-.938.05a3.6 3.6 0 0 1-.473-.722c-.28-.531-.523-1.086-.808-1.617-.23-.422-.383-.445-.692-.082-.332.39-.613.824-.925 1.23-.211.274-.418.551-.668.793-.387.375-.813.426-1.235.09-.363-.289-.672-.648-.968-1.008-.399-.484-.735-1.011-1.141-1.488-.492-.574-.711-.555-1.168.055-.3.402-.574.824-.863 1.234-.07.102-.145.2-.227.29-.601.66-1.12.66-1.648-.063-.36-.496-.633-1.051-.957-1.57-.18-.294-.371-.583-.57-.864-.172-.238-.395-.262-.598-.059-.254.25-.492.516-.723.79-.262.304-.492.636-.766.93-.613.652-1.222.62-1.699-.13-.386-.61-.687-1.277-1.039-1.91-.156-.273-.347-.527-.578-.871-.207.332-.363.57-.504.816-.223.387-.41.793-.652 1.168-.38.59-.824.657-1.317.153-.34-.348-.613-.766-.886-1.172-.368-.547-.684-1.125-1.067-1.66-.394-.551-.535-.532-.91.043-.258.39-.484.804-.75 1.187-.535.762-1.078.73-1.469-.105-.289-.625-.504-1.285-.761-1.926-.118-.29-.258-.566-.426-.922-.176.203-.32.336-.43.492-.262.38-.484.782-.754 1.149-.453.613-.969.633-1.402-.004-.387-.567-.68-1.2-1.008-1.809-.242-.449-.453-.922-.715-1.36-.308-.519-.469-.519-.867-.05-.21.246-.406.508-.617.75-.106.125-.227.25-.363.344-.414.281-.848.144-.965-.34-.184-.77-.317-1.55-.473-2.328a1.284 1.284 0 0 0-.168-.457c-.09.207-.18.414-.273.62-.106.224-.192.454-.32.661-.239.383-.583.387-.81-.008a3.886 3.886 0 0 1-.366-.894c-.243-.93-.454-1.864-.684-2.797-.05-.211-.121-.422-.184-.63h-.101c-.047.224-.137.45-.137.673-.008 2.762-.004 5.523-.004 8.285 0 .098.012.195.059.293.05-1.61.105-3.219.16-4.824h.062v11.46c-.043 0-.09.005-.136.005-.016-.43-.035-.864-.043-1.293-.008-.446-.004-.891-.059-1.344-.015.027-.039.058-.039.09-.004 1.05-.047 2.105.008 3.152.074 1.441.836 2.57 1.805 3.566 1.441 1.489 3.191 2.532 5.035 3.43 3.531 1.727 7.273 2.844 11.086 3.738 4.21.989 8.48 1.653 12.781 2.106 3.469.363 6.95.594 10.434.691 4.84.14 9.671.051 14.5-.285 5.003-.351 9.976-.96 14.898-1.96 4.328-.884 8.582-2.016 12.633-3.829 1.836-.82 3.597-1.777 5.148-3.082 1.07-.898 2.008-1.914 2.453-3.281.137-.418.227-.875.23-1.313.016-4.93.009-9.863.009-14.793v-.3c-.012-.004-.024-.004-.036-.008-.078.496-.152.992-.234 1.484ZM10.32 79.664c.805-.203 1.559-.394 2.309-.59l18.016-4.629c9.003-2.312 18.003-4.629 27.007-6.941 8.57-2.203 17.145-4.406 25.715-6.61 5.445-1.398 10.89-2.792 16.336-4.199 1.512-.39 2.461-1.418 3.059-2.812 1.281-2.988.21-6.969-2.364-8.801-1.203-.855-2.5-1.11-3.957-.73-7.683 1.996-15.375 3.96-23.062 5.937-9.66 2.48-19.32 4.965-28.98 7.45-9.348 2.402-18.696 4.808-28.044 7.21-2.93.754-5.863 1.508-8.796 2.258-.075.02-.149.047-.274.086 4.73 1.344 6.676 8.664 3.035 12.371ZM192.72 37.98c-.914 1.47-2.18 2.586-3.586 3.56-2.5 1.733-5.258 2.948-8.106 3.98-3.828 1.386-7.77 2.367-11.761 3.156-3.52.691-7.063 1.254-10.637 1.582a230.61 230.61 0 0 1-10.766.758c-3.136.14-6.285.168-9.425.113-3.114-.055-6.235-.219-9.344-.434a132.313 132.313 0 0 1-7.649-.761c-6.605-.84-13.12-2.11-19.425-4.332-.063-.02-.125-.04-.25-.075.09.118.144.192.199.262 1.91 2.508 2.445 5.254 1.328 8.23-.656 1.754-1.918 2.903-3.79 3.305-.16.035-.316.078-.573.145.191.09.3.148.41.195 3.32 1.41 6.761 2.441 10.265 3.285 4.454 1.07 8.97 1.813 13.52 2.344 3.984.46 7.98.793 11.992.89 3.02.075 6.043.165 9.059.098 3.453-.078 6.902-.285 10.347-.5 3.637-.23 7.25-.695 10.848-1.281 5.77-.941 11.453-2.21 16.914-4.355 2.547-1 5.004-2.184 7.195-3.852 1.098-.84 2.082-1.79 2.809-2.984.562-.926.844-1.93.84-3.024-.008-3.512 0-7.023 0-10.531v-.352a.409.409 0 0 1-.067-.015c-.113.199-.226.398-.347.593Zm-4.45-6.777c0 .797-.039 1.594.008 2.383.102 1.773-.586 3.223-1.742 4.492-1.262 1.395-2.805 2.406-4.445 3.29-3.078 1.652-6.367 2.757-9.727 3.667-4.05 1.094-8.168 1.836-12.328 2.38-3.89.507-7.797.839-11.719.98-2.472.09-4.945.144-7.421.125a137.832 137.832 0 0 1-13.008-.7c-4.782-.492-9.524-1.222-14.196-2.367-3.5-.855-6.93-1.918-10.187-3.484-1.977-.953-3.86-2.059-5.406-3.657-1.012-1.046-1.766-2.238-1.934-3.734a3.669 3.669 0 0 1-.023-.465V27.281c-.063.008-.11.004-.141.02-1.738.98-3.379 2.09-4.688 3.625-.87 1.023-1.503 2.168-1.605 3.539-.11 1.5.461 2.777 1.356 3.93 1.062 1.37 2.402 2.43 3.882 3.296 1.227.72 2.485 1.41 3.782 1.989 3.898 1.734 7.976 2.925 12.132 3.86 3.524.788 7.082 1.394 10.66 1.855 3.551.457 7.11.82 10.684.953 3.7.14 7.399.242 11.098.25 3.695.007 7.39-.196 11.082-.493 3.52-.285 7.031-.671 10.52-1.23 6.038-.96 11.988-2.273 17.69-4.55 2.325-.93 4.567-2.024 6.595-3.509 1.242-.91 2.367-1.941 3.152-3.289 1.058-1.824 1.05-3.652-.024-5.465-.976-1.644-2.425-2.8-4.046-3.89v3.031ZM9.032 68.86c-2.394-1.988-5.437-1.316-6.816 1.477-1.461 2.957-.492 7.059 2.137 9.043 1.835 1.387 4.05 1.32 5.605-.192 1.031-1.003 1.504-2.273 1.668-3.675.031-.266.04-.535.063-.809-.098-2.305-.833-4.336-2.657-5.844Zm88.153-25.261c-1.47-.762-2.891-1.555-4.184-2.555-1.309-1.012-2.469-2.152-3.277-3.734v8.203c2.476-.637 4.945-1.27 7.46-1.914Zm0 0"/><path style="stroke:none;fill-rule:nonzero;fill:#000;fill-opacity:1" d="M165.879 14.738c-.125-.18-.215-.289-.281-.41-.23-.406-.45-.82-.688-1.226a5.049 5.049 0 0 0-.43-.637c-.597-.754-1.195-.727-1.738.074-.14.215-.258.445-.387.664-.43.735-.902 1.43-1.69 1.836.437-.105.78-.367 1.054-.7.332-.405.613-.847.914-1.277.156-.214.285-.457.465-.652.359-.387.675-.398 1.02 0 .273.317.491.684.706 1.047.227.371.399.777.633 1.14.098.153.305.337.441.325.133-.012.305-.25.348-.418.2-.8.348-1.613.54-2.414.081-.356.214-.703.35-1.047.06-.156.18-.29.325-.516.14.254.273.422.336.614.273.882.516 1.773.8 2.656.133.406.298.82.528 1.18.285.449.77.52 1.14.148.34-.34.598-.77.86-1.18.203-.316.332-.68.54-.996.222-.344.41-.316.53.082.125.414.192.848.27 1.274.074.386.23.715.586.941-.543-.484-.461-1.16-.574-1.773-.04-.196-.079-.395-.153-.582-.164-.422-.469-.477-.75-.13-.168.208-.297.446-.43.677-.203.347-.374.71-.593 1.046a1.991 1.991 0 0 1-.461.48c-.242.192-.524.188-.7-.081a3.721 3.721 0 0 1-.46-.914c-.27-.875-.496-1.762-.75-2.64-.063-.212-.137-.434-.262-.61-.113-.16-.309-.367-.457-.36-.176.008-.422.196-.488.368-.23.585-.426 1.195-.582 1.804-.149.563-.227 1.14-.344 1.707-.031.149-.094.285-.168.5ZM132.055 10.777c-.082-.312-.176-.535-.196-.77-.058-.734-.086-1.468-.129-2.206a.916.916 0 0 0-.066-.29c-.09-.187-.238-.21-.367-.054a1.358 1.358 0 0 0-.242.434c-.297.89-.578 1.78-.868 2.671-.046.149-.101.29-.187.54-.14-.395-.246-.696-.355-.997-.258-.722-.504-1.453-.786-2.168-.097-.25-.214-.597-.539-.562-.347.043-.351.422-.402.7-.148.823-.254 1.655-.418 2.476-.129.652-.41 1.23-1.063 1.535.497-.11.817-.45.977-.895.203-.59.348-1.199.488-1.804.098-.414.133-.836.215-1.254.031-.18.106-.356.16-.531.04-.008.075-.016.114-.02.109.203.246.402.324.617.277.79.531 1.586.805 2.38.066.198.136.401.242.581.156.262.375.258.504-.015.129-.286.214-.586.312-.883.227-.688.445-1.38.672-2.07.04-.11.09-.215.21-.317.02.438.032.879.063 1.313.036.425.059.851.149 1.261.039.18.21.414.367.457.152.04.41-.09.54-.222.554-.59.765-1.348.944-2.11.055-.23.082-.465.145-.691.035-.13.113-.25.215-.465.164.242.312.398.383.582.195.52.37 1.05.535 1.582.172.559.508.953 1.066 1.16-.746-.367-.922-1.062-1.09-1.785-.101-.441-.285-.867-.48-1.277-.074-.157-.293-.344-.434-.336-.133.011-.304.242-.363.406-.152.457-.215.941-.383 1.387-.16.433-.394.843-.62 1.25-.079.133-.24.215-.442.39ZM144.754 17.23c.117.48.223.965.355 1.442.188.664.38 1.332.606 1.98.094.274.226.618.594.598.355-.02.421-.371.511-.637.18-.535.317-1.09.485-1.633.07-.222.14-.457.27-.644.124-.176.327-.297.5-.441.144.171.323.328.417.523.098.195.11.434.153.652.14.68.55 1.164 1.082 1.559.023-.02.043-.035.062-.055-.14-.129-.289-.254-.418-.394-.34-.36-.539-.782-.601-1.278a2.683 2.683 0 0 0-.223-.8c-.227-.489-.684-.54-.996-.106a3.495 3.495 0 0 0-.438.86c-.195.542-.347 1.105-.531 1.656-.059.172-.16.328-.289.586-.16-.266-.309-.426-.363-.614-.246-.836-.465-1.675-.692-2.515-.086-.313-.16-.63-.27-.93-.038-.105-.187-.258-.261-.246-.11.02-.258.148-.285.262-.149.582-.242 1.18-.395 1.758-.18.69-.39 1.375-.605 2.054-.05.16-.172.301-.305.524-.097-.184-.172-.297-.226-.422-.274-.621-.528-1.254-.825-1.864-.14-.293-.304-.648-.707-.625-.418.028-.476.426-.593.723-.211.531-.387 1.074-.606 1.598-.156.379-.36.738-.531 1.129.11-.157.242-.297.32-.461.324-.711.617-1.434.95-2.14.113-.24.3-.446.453-.665.191.2.441.371.558.61.266.538.465 1.109.692 1.667.05.125.093.25.152.372.184.355.46.386.691.054.133-.191.254-.402.317-.625.277-1.031.535-2.07.8-3.105.036-.137.067-.27.098-.403.035 0 .063-.004.094-.004ZM115.004 25.633c-.113-.653-.219-1.309-.348-1.961a6.394 6.394 0 0 0-.277-.996c-.043-.121-.203-.2-.313-.297-.082.11-.21.207-.242.328a3 3 0 0 1-1.039 1.637c-.101.086-.254.11-.383.164-.03-.133-.086-.27-.09-.403-.03-1.015-.035-2.035-.078-3.046-.011-.223-.144-.438-.218-.657-.098.2-.227.387-.293.594-.176.555-.29 1.125-.493 1.668-.125.34-.363.64-.554.973.832-.739.933-1.813 1.336-2.77.011.16.039.317.039.477 0 .914-.008 1.832-.008 2.75 0 .078 0 .156.004.234.031.434.328.625.683.371.352-.254.66-.59.934-.933.2-.258.309-.586.496-.953.13.593.254 1.144.363 1.695.079.383.122.773.211 1.152.032.133.16.242.243.363.12-.097.3-.175.347-.3.223-.594.406-1.203.606-1.809.093-.285.168-.578.273-.86.063-.171.168-.324.305-.581.133.226.265.359.3.515.106.508.2 1.024.254 1.543.055.492.196.918.653 1.18-.48-.402-.496-.945-.524-1.512a6.09 6.09 0 0 0-.25-1.375c-.05-.176-.27-.394-.437-.418-.125-.02-.36.219-.422.387-.277.73-.508 1.477-.758 2.215-.074.215-.164.426-.246.637a3.08 3.08 0 0 1-.074-.012ZM147.145 9.188a2.92 2.92 0 0 0 1.632-1.485c.32-.664.551-1.371.883-2.058.016.257.04.515.047.773.02.687.55 1.02 1.176.727.375-.18.59-.5.754-.864.074-.16.148-.32.304-.484.106.355.207.71.313 1.066.07.235.125.477.226.7.192.433.54.476.81.082.202-.293.355-.622.5-.946.155-.355.276-.726.413-1.094.008-.015.031-.027.09-.078.277 1.114.262 2.348 1.387 3.047-.012-.031-.016-.062-.035-.082-.614-.539-.895-1.23-.977-2.027a5.67 5.67 0 0 0-.16-.89c-.031-.118-.16-.212-.246-.317-.09.086-.215.156-.266.265-.23.508-.43 1.028-.664 1.536-.098.21-.258.398-.45.691-.12-.281-.214-.453-.269-.637-.133-.437-.23-.886-.375-1.32-.047-.137-.195-.316-.312-.328-.113-.012-.274.148-.36.273-.12.184-.175.41-.289.602-.105.168-.222.363-.382.45-.188.1-.47.183-.645.112-.145-.058-.242-.34-.285-.539-.059-.281-.035-.578-.078-.863-.016-.102-.133-.188-.203-.281-.09.07-.23.125-.266.218-.14.36-.27.731-.371 1.106-.3 1.125-.844 2.062-1.902 2.644ZM178.742 20.121c-.086-.21-.172-.422-.254-.637-.129-.343-.234-.699-.383-1.035-.09-.203-.19-.512-.468-.414-.14.05-.227.34-.282.54-.171.597-.308 1.206-.48 1.804-.055.183-.184.348-.281.52h-.094c-.05-.192-.105-.387-.152-.583-.149-.648-.426-1.218-.942-1.656-.246-.21-.535-.328-.863-.238-.121.031-.23.121-.332.226.289-.16.59-.238.86-.027.23.18.48.387.617.637.203.387.324.824.464 1.242.082.242.036.633.36.629.187-.004.453-.293.531-.508.234-.621.39-1.273.57-1.914.032-.105.035-.215.055-.324a.607.607 0 0 0 .09-.02l.387 1.004c.101.258.171.535.3.778.196.363.532.378.711.007.242-.496.41-1.03.61-1.55.07-.184.144-.368.254-.645.148.195.285.305.332.445.222.63.46 1.254.609 1.903.09.39.254.633.621.73.344.09.691.149 1.043.192-.367-.114-.738-.211-1.098-.34-.234-.082-.336-.254-.39-.524-.13-.64-.32-1.27-.5-1.902a.94.94 0 0 0-.203-.379c-.118-.117-.286-.27-.418-.258-.13.012-.297.184-.36.324-.152.348-.238.72-.375 1.075-.117.304-.265.601-.398.902-.047-.004-.094-.004-.14-.004ZM108.258 12.324c-.106-.508-.184-.933-.285-1.355-.051-.215-.043-.547-.344-.52-.133.012-.25.309-.356.489-.203.332-.359.695-.593.996-.235.3-.41.242-.532-.121-.105-.317-.183-.645-.32-.95-.172-.379-.476-.441-.726-.117-.286.375-.559.79-.711 1.23-.2.583-.528.91-1.137.958.57.058.926-.168 1.168-.668.215-.438.441-.875.719-1.274.234-.34.41-.293.543.09.086.254.14.52.207.777.16.598.586.73.992.258.305-.36.52-.793.785-1.21.066.34.133.702.215 1.066.14.644.437.742.933.297.496-.442.786-1.016.965-1.653.051-.176.117-.347.2-.594.144.157.277.235.316.344.156.434.351.871.41 1.324.05.407.164.739.469.993.273.234.574.437.902.593-.254-.207-.516-.402-.754-.62-.285-.259-.39-.579-.441-.973-.063-.508-.246-1.008-.438-1.489-.062-.148-.328-.308-.484-.3-.133.011-.309.25-.356.421-.168.59-.394 1.141-.82 1.586-.137.149-.316.258-.527.422ZM185.7 23.305c-.11 4.558-.06 9.12.16 13.68h.12c-.046-4.563-.097-9.122-.148-13.684-.043 0-.086 0-.133.004ZM187.441 34.328l.141-12.824h-.082c-.242 1.328-.36 12.21-.059 12.824ZM120.281 41.797c.258-1.442.41-10.274.246-12.207-.082 2.07-.195 4.137-.238 6.207-.039 2.078-.008 4.152-.008 6ZM170.242 31.363c-.117 3.93-.129 7.864.094 11.793.176-2.152.105-10.965-.094-11.793ZM126.746 31.867c-.242 4.043-.355 8.09-.223 12.14.254-4.042.336-8.089.223-12.14ZM186.938 35.527c.132-3.875.113-7.75-.137-11.62v11.62h.137ZM99.129 36.89c.457-4.035.691-8.09.777-12.152-.457 4.04-.699 8.09-.777 12.153ZM131.398 32.637a120.799 120.799 0 0 0-.312 11.773c.289-3.918.39-7.844.312-11.773ZM100.71 26.285c-.35 3.8-.5 7.61-.468 11.426.356-3.8.488-7.61.469-11.426ZM103.012 27.426a121.122 121.122 0 0 0-.461 11.293c.043.004.082.004.125.008l.457-11.301h-.121ZM183.797 26.793c-.149 3.965-.14 7.926.07 11.887.18-1.344.14-9.512-.07-11.887ZM174.266 30.773a91.38 91.38 0 0 0 .074 10.188c.172-3.395.14-6.79-.074-10.188ZM159.523 33.281c-.265 3.649-.351 7.301-.234 10.961.285-3.648.313-7.304.234-10.96ZM151.828 34.32v10.73c.293-1.605.277-9.382 0-10.73ZM183.074 28.398c-.277 1.446-.273 9.059 0 10.239V28.398ZM163.379 43.04c.176-3.442.172-6.884.023-10.372-.238.703-.21 8.96-.023 10.371ZM182.273 37.676c.16-3.63.137-7.254-.074-10.875-.164 3.625-.137 7.25.074 10.875ZM123.21 33.469c-.304 3.492-.444 6.992-.362 10.496.3-3.492.437-6.992.363-10.496ZM156.664 33.953a86.696 86.696 0 0 0-.121 10.125h.121V33.953ZM98.645 26.332c-.254 1.148-.532 8-.403 9.98.328-3.32.43-6.644.403-9.98ZM113.29 31.457a86.245 86.245 0 0 0-.618 10.04c.398-3.333.586-6.68.617-10.04ZM97.598 34.64c.293-3.28.394-6.566.304-9.855a88.312 88.312 0 0 0-.304 9.856ZM147.266 34.375c-.114 3.215-.028 6.422.199 9.652.207-.89.07-7.797-.2-9.652ZM142.223 43.672c.183-3.258.183-6.52 0-9.777h-.098v9.777h.098ZM185.16 35.18c.164-3.153.067-6.305-.129-9.492-.199.886-.113 7.601.13 9.492ZM106.805 39.848c.277-3.235.34-6.473.238-9.715-.285 3.23-.324 6.472-.238 9.715ZM178.344 30.746c-.223 2.902-.305 5.805-.153 8.711.25-2.902.282-5.809.153-8.71ZM166.895 32.023v9.024h.109a86.91 86.91 0 0 0 .004-9.024h-.113ZM138.441 35.246v8.406c.286-.879.301-6.715.086-8.394l-.086-.012ZM118.508 42.047v-8.098h-.11c-.171 2.7-.175 5.399.004 8.098h.106ZM134.844 44.047c.293-2.629.328-5.266.246-7.906-.293 2.629-.328 5.265-.246 7.906ZM128.977 35.223A46.888 46.888 0 0 0 129 42.48c.188-2.414.184-4.828.027-7.242 0-.004-.02-.008-.05-.015Zm0 0"/></svg>