<?xml version="1.0" standalone="no"?>
<!DOCTYPE svg PUBLIC "-//W3C//DTD SVG 20010904//EN"
 "http://www.w3.org/TR/2001/REC-SVG-20010904/DTD/svg10.dtd">
<svg version="1.0" xmlns="http://www.w3.org/2000/svg"
 width="450.000000pt" height="450.000000pt" viewBox="0 0 450.000000 450.000000"
 preserveAspectRatio="xMidYMid meet">

<g transform="translate(0.000000,450.000000) scale(0.100000,-0.100000)"
fill="#AFEEEE" stroke="none">
<path d="M2326 4462 c-2 -4 -11 -29 -20 -57 -15 -47 -43 -100 -160 -300 -117
-201 -164 -438 -127 -635 15 -76 82 -207 137 -269 l47 -52 -17 -122 c-9 -67
-21 -169 -26 -225 -4 -57 -11 -106 -14 -110 -4 -3 -14 5 -24 18 -62 87 -105
204 -122 330 -12 89 -43 170 -65 170 -16 0 -42 -101 -55 -222 -24 -214 32
-436 166 -659 25 -42 34 -68 34 -101 0 -54 -25 -204 -41 -245 l-11 -28 -29 35
c-17 19 -57 82 -90 140 -80 138 -126 192 -158 183 -24 -6 -24 -6 -18 -127 3
-67 13 -148 22 -181 32 -118 139 -315 198 -364 13 -10 17 -30 17 -76 l0 -63
-127 -6 c-71 -3 -191 -9 -269 -12 l-141 -6 -6 88 c-4 49 -18 156 -31 238 l-25
149 38 46 c61 74 108 165 142 269 27 85 32 116 36 244 4 98 2 169 -7 210 -14
71 -36 121 -52 116 -6 -2 -27 -49 -48 -103 -20 -55 -53 -132 -73 -172 -34 -67
-90 -143 -106 -143 -4 0 -17 55 -30 123 -13 67 -32 156 -42 199 -23 94 -24 88
5 88 45 0 98 122 112 258 10 103 -11 227 -66 391 -54 164 -68 238 -77 417 -7
145 -20 171 -51 102 -10 -24 -44 -90 -76 -148 -149 -273 -204 -530 -162 -752
20 -104 35 -143 88 -225 l39 -62 -11 -263 c-12 -287 -17 -348 -30 -348 -17 0
-111 140 -146 216 -93 210 -94 210 -134 184 -20 -12 -27 -257 -10 -345 30
-158 138 -351 227 -406 l35 -22 -5 -151 c-3 -83 -8 -161 -12 -173 -7 -23 -9
-23 -204 -23 -297 0 -387 -27 -457 -136 -19 -30 -38 -54 -42 -54 -14 0 -42
-69 -42 -101 0 -79 55 -138 159 -169 l67 -21 -1 -297 c0 -257 3 -307 19 -372
21 -85 22 -98 11 -122 -7 -17 3 -18 131 -18 77 0 195 -5 264 -10 69 -5 292
-16 495 -25 204 -8 523 -27 710 -41 408 -31 943 -43 1080 -25 50 7 171 28 270
47 217 41 338 53 360 34 10 -8 19 -10 25 -4 29 29 73 318 90 581 9 145 8 178
-4 207 -14 34 -14 35 12 52 15 10 47 36 72 59 25 23 57 45 72 49 34 8 52 58
51 142 -1 123 -53 218 -150 277 l-58 35 -90 -9 c-49 -4 -163 -11 -252 -15
-192 -8 -190 -10 -111 93 99 131 167 314 199 542 16 112 7 255 -16 281 -10 11
-21 20 -25 20 -4 0 -30 -47 -57 -104 -67 -136 -179 -305 -186 -279 -3 10 -9
88 -13 175 l-6 156 27 36 c15 19 45 82 67 138 38 98 40 107 35 183 -4 44 -22
168 -42 275 -20 107 -42 260 -50 339 -8 79 -20 162 -26 185 -14 51 -39 96 -55
96 -7 0 -20 -49 -34 -117 -18 -98 -36 -152 -107 -316 -108 -254 -127 -325
-121 -466 4 -89 9 -119 36 -186 18 -45 46 -103 63 -130 l32 -50 -17 -210 c-23
-301 -27 -314 -62 -260 -18 28 -110 264 -120 308 -5 23 -29 47 -48 47 -8 0
-23 -66 -31 -130 -3 -30 -1 -103 4 -161 20 -214 63 -355 132 -433 21 -24 39
-48 39 -53 0 -7 -570 -37 -576 -30 -1 1 -5 93 -9 203 l-8 201 43 54 c126 158
221 477 219 739 0 104 -20 189 -46 197 -6 2 -26 -43 -45 -99 -35 -107 -173
-361 -193 -355 -23 8 -45 269 -45 527 l0 189 53 53 c63 63 126 171 164 283 23
65 28 97 28 170 -1 107 -16 164 -90 330 -37 84 -61 158 -80 246 -32 146 -66
219 -107 230 -16 4 -30 4 -32 1z m43 -135 c2 -66 36 -192 88 -321 30 -76 61
-160 69 -185 21 -70 18 -196 -7 -277 -32 -105 -106 -244 -130 -244 -5 0 -9 38
-9 85 0 54 -8 117 -21 170 -33 131 -43 118 -89 -110 -18 -88 -37 -169 -43
-180 -9 -18 -12 -17 -39 15 -35 42 -76 127 -94 195 -41 152 10 381 127 575 76
126 96 170 109 241 6 35 14 73 17 84 l6 20 8 -20 c4 -11 8 -33 8 -48z m-1179
-822 c75 -220 88 -342 49 -487 -24 -88 -43 -101 -53 -35 -9 55 -56 141 -80
145 -26 5 -36 -14 -37 -78 0 -30 -4 -77 -8 -105 l-7 -50 -22 35 c-57 89 -76
265 -48 430 21 121 80 296 119 357 l31 48 12 -85 c7 -47 26 -125 44 -175z
m2155 -472 c45 -208 46 -275 4 -383 -29 -75 -49 -101 -49 -63 0 9 -7 39 -15
67 -8 28 -20 70 -25 94 -19 78 -44 46 -66 -86 -8 -48 -17 -102 -20 -119 -2
-18 -9 -33 -15 -33 -17 0 -60 106 -71 176 -20 131 12 254 130 498 l77 159 7
-74 c4 -41 24 -147 43 -236z m-1010 -503 c8 -118 22 -303 30 -410 24 -326 37
-612 28 -619 -4 -3 -88 -5 -187 -3 l-178 3 6 32 c4 18 20 104 36 192 16 88 49
270 74 405 64 347 74 413 91 610 19 209 30 286 52 360 l17 55 8 -205 c4 -113
14 -302 23 -420z m-312 239 c14 -25 47 -72 73 -103 46 -57 46 -58 39 -114 -7
-61 -33 -162 -44 -175 -10 -10 -88 178 -111 270 -11 42 -20 108 -20 146 0 69
0 70 18 46 10 -13 30 -45 45 -70z m-814 -329 c33 -168 68 -359 76 -425 9 -66
30 -205 46 -310 16 -104 30 -199 32 -210 2 -19 -4 -20 -163 -20 l-165 0 -3 70
c-1 39 11 201 28 360 17 160 35 380 40 490 5 110 14 234 19 275 6 41 11 82 11
90 2 45 24 -43 79 -320z m298 -16 c-26 -123 -127 -349 -147 -327 -9 9 -30 136
-30 184 0 25 12 44 53 88 29 31 71 87 92 124 l40 69 3 -34 c2 -19 -4 -66 -11
-104z m1099 -42 c-29 -101 -89 -248 -120 -294 -40 -60 -46 -50 -46 81 0 67 4
121 9 121 12 0 76 88 131 178 l45 73 3 -36 c2 -21 -8 -76 -22 -123z m659 -167
c4 -104 13 -270 21 -368 19 -240 19 -313 -2 -321 -9 -3 -43 -6 -75 -6 l-60 0
6 68 c3 37 12 139 21 227 8 88 21 243 29 345 30 391 48 408 60 55z m-2455 132
c0 -15 103 -149 151 -197 l42 -41 -8 -102 c-4 -56 -9 -105 -12 -110 -11 -18
-46 20 -98 106 -71 120 -96 191 -103 297 -5 78 -4 84 11 71 10 -7 17 -18 17
-24z m2726 -288 c-13 -52 -38 -129 -55 -171 -40 -96 -96 -185 -104 -166 -3 8
-8 64 -12 124 l-7 109 79 97 c43 53 87 111 98 130 l19 33 4 -30 c1 -16 -8 -73
-22 -126z m-1652 -23 c31 -47 74 -100 96 -118 l40 -33 -19 -93 c-10 -51 -21
-95 -24 -98 -10 -10 -91 141 -118 221 -26 74 -49 205 -36 205 3 0 30 -38 61
-84z m1123 -81 c14 -27 41 -69 60 -93 35 -43 35 -44 29 -115 -4 -40 -9 -92
-13 -116 l-6 -45 -27 31 c-48 53 -100 243 -100 363 1 61 2 64 16 45 9 -11 27
-42 41 -70z m911 -499 c64 -34 112 -112 112 -185 0 -80 -100 -153 -244 -176
-95 -16 -398 -39 -417 -33 -9 3 -13 34 -14 114 0 85 -6 125 -24 182 -13 42
-20 77 -15 82 10 9 281 26 462 28 80 2 121 -2 140 -12z m-629 -82 c20 -49 25
-81 29 -187 l4 -128 -38 3 -39 3 -7 90 c-4 57 -16 117 -33 165 -15 41 -29 83
-32 92 -4 13 3 17 34 21 56 5 56 5 82 -59z m-145 15 c30 -45 82 -255 72 -294
-6 -24 -31 -35 -85 -35 l-34 0 6 73 c7 97 -6 161 -47 227 -38 61 -35 70 25 70
31 0 40 -5 63 -41z m-174 6 c23 -13 45 -39 63 -74 24 -49 27 -65 27 -159 l0
-105 -167 6 c-463 17 -991 28 -1098 23 -66 -3 -142 -13 -169 -21 -40 -12 -115
-15 -395 -14 -432 1 -449 3 -487 48 -24 29 -29 43 -27 84 3 60 42 149 83 187
27 25 34 27 63 19 42 -13 935 -1 1074 15 61 6 286 11 550 11 431 0 449 -1 483
-20z m-2350 -5 c0 -5 -16 -39 -36 -76 -36 -65 -37 -67 -31 -151 l6 -84 -32 7
c-74 16 -88 50 -62 153 21 86 46 128 88 146 38 17 67 19 67 5z m-150 -13 c0
-7 -9 -31 -21 -52 -14 -27 -22 -67 -26 -122 -3 -46 -8 -83 -10 -83 -10 0 -50
24 -70 43 -52 47 -10 171 70 208 50 22 57 23 57 6z m280 10 c0 -2 -13 -41 -30
-87 -35 -101 -38 -157 -10 -193 37 -47 23 -55 -69 -38 -24 5 -47 15 -52 22
-14 23 -10 132 7 181 22 66 75 118 119 118 19 0 35 -1 35 -3z m1775 -418 c332
-17 914 -16 1065 0 69 8 147 15 175 15 48 1 49 0 57 -34 17 -75 -19 -457 -59
-627 -18 -81 -12 -76 -133 -88 -36 -4 -121 -17 -190 -30 -69 -13 -201 -31
-295 -41 -154 -16 -200 -17 -500 -5 -181 6 -413 21 -515 31 -197 21 -755 52
-1265 71 -171 6 -314 15 -320 21 -6 6 -10 137 -10 355 l0 346 130 -7 c72 -3
189 -11 260 -16 72 -5 315 -9 540 -9 354 0 427 2 535 19 83 13 155 18 215 15
50 -3 189 -10 310 -16z"/>
<path d="M2335 4129 c-4 -6 -5 -13 -2 -16 7 -7 27 6 27 18 0 12 -17 12 -25 -2z"/>
<path d="M2305 4021 c-6 -11 9 -23 19 -14 9 9 7 23 -3 23 -6 0 -12 -4 -16 -9z"/>
<path d="M2230 3884 c0 -9 7 -14 17 -12 25 5 28 28 4 28 -12 0 -21 -6 -21 -16z"/>
<path d="M2310 3800 c0 -11 7 -20 15 -20 8 0 15 9 15 20 0 11 -7 20 -15 20 -8
0 -15 -9 -15 -20z"/>
<path d="M2262 3757 c-7 -8 -7 -18 -1 -27 8 -13 10 -13 19 0 12 19 12 27 1 34
-5 3 -13 0 -19 -7z"/>
<path d="M1160 3370 c0 -13 5 -20 13 -17 6 2 12 10 12 17 0 7 -6 15 -12 18 -8
2 -13 -5 -13 -18z"/>
<path d="M1107 3323 c-4 -3 -7 -12 -7 -20 0 -17 26 -17 33 1 8 21 -11 35 -26
19z"/>
<path d="M1180 3264 c0 -17 22 -14 28 4 2 7 -3 12 -12 12 -9 0 -16 -7 -16 -16z"/>
<path d="M1196 3161 c-4 -7 -5 -15 -2 -18 9 -9 19 4 14 18 -4 11 -6 11 -12 0z"/>
<path d="M3220 3030 c-11 -7 -12 -12 -3 -21 13 -13 33 -4 33 17 0 16 -9 18
-30 4z"/>
<path d="M3244 2949 c-10 -17 13 -36 27 -22 12 12 4 33 -11 33 -5 0 -12 -5
-16 -11z"/>
<path d="M3134 2899 c-7 -12 15 -31 28 -23 4 3 8 12 8 20 0 17 -26 19 -36 3z"/>
<path d="M3306 2836 c8 -22 36 -30 32 -9 -2 10 -11 19 -21 21 -12 2 -15 -1
-11 -12z"/>
<path d="M3335 2740 c4 -6 11 -8 16 -5 14 9 11 15 -7 15 -8 0 -12 -5 -9 -10z"/>
<path d="M2230 2124 c-6 -14 -10 -49 -10 -77 l0 -52 19 24 c25 33 45 19 38
-26 -5 -30 -4 -33 9 -22 18 15 15 46 -12 127 -20 58 -30 64 -44 26z"/>
<path d="M2107 1713 c-9 -17 5 -94 17 -90 15 5 14 89 -1 94 -6 2 -13 0 -16 -4z"/>
<path d="M2165 1698 c-9 -23 -2 -83 10 -83 14 0 19 75 6 88 -7 7 -12 5 -16 -5z"/>
<path d="M1166 1811 c-21 -40 -32 -111 -17 -111 6 0 14 8 17 18 3 9 14 37 24
62 10 24 16 48 14 52 -10 15 -24 8 -38 -21z"/>
<path d="M1211 1748 c-5 -13 -12 -42 -16 -65 -9 -59 10 -55 24 5 7 26 14 55
17 65 8 25 -15 21 -25 -5z"/>
<path d="M3410 1366 c0 -8 7 -17 16 -20 14 -5 15 -17 9 -82 -8 -84 6 -95 26
-21 18 66 -1 137 -37 137 -8 0 -14 -6 -14 -14z"/>
<path d="M3523 1314 c3 -11 9 -36 13 -56 7 -44 24 -51 23 -10 -2 42 -13 75
-28 80 -9 3 -11 -2 -8 -14z"/>
<path d="M860 1298 c-27 -44 -35 -94 -20 -113 19 -23 33 -18 26 9 -4 15 2 46
14 76 23 59 23 60 10 60 -6 0 -19 -15 -30 -32z"/>
<path d="M2490 1296 c0 -42 19 -88 34 -83 6 2 10 13 9 23 -8 79 -43 128 -43
60z"/>
<path d="M1816 1280 c-19 -47 -20 -66 -6 -75 10 -6 50 74 50 101 0 29 -28 12
-44 -26z"/>
<path d="M2598 1305 c-8 -9 9 -76 22 -89 10 -8 11 -1 7 33 -5 43 -18 67 -29
56z"/>
<path d="M1910 1271 c0 -37 10 -62 21 -55 10 6 12 45 3 68 -10 26 -24 18 -24
-13z"/>
<path d="M957 1213 c-4 -6 -3 -21 1 -34 5 -13 11 -18 15 -12 4 6 3 21 -1 34
-5 13 -11 18 -15 12z"/>
<path d="M3578 888 c-5 -14 -98 -25 -328 -36 -158 -8 -210 -19 -210 -44 0 -7
16 -8 48 -4 26 4 112 11 192 16 80 5 177 12 216 16 l71 7 6 -29 c7 -39 -1 -45
-68 -53 -72 -8 -67 -26 8 -25 60 1 62 -1 48 -40 -7 -16 -19 -26 -37 -28 -15
-2 -30 -9 -32 -17 -4 -11 3 -12 32 -7 l36 7 -5 -93 c-4 -53 -2 -99 3 -107 18
-26 32 0 33 62 0 107 16 219 30 228 8 5 24 9 37 9 13 0 22 6 22 15 0 10 -11
15 -35 15 -32 0 -35 2 -35 29 0 28 2 30 55 36 57 8 79 22 66 44 -7 10 -16 10
-50 0 -31 -9 -47 -9 -67 -1 -31 15 -31 15 -36 0z"/>
<path d="M641 871 c-14 -25 -15 -241 -1 -241 13 0 18 27 25 146 6 102 -2 136
-24 95z"/>
<path d="M727 883 c-9 -15 -20 -192 -13 -219 13 -50 30 -8 33 84 2 48 5 98 6
111 2 23 -16 40 -26 24z"/>
<path d="M2796 853 c-12 -12 -6 -33 9 -33 8 0 15 6 15 14 0 17 -14 28 -24 19z"/>
<path d="M2862 818 c6 -18 28 -21 28 -4 0 9 -7 16 -16 16 -9 0 -14 -5 -12 -12z"/>
<path d="M800 768 c0 -13 4 -29 9 -37 13 -20 24 4 17 35 -8 30 -26 32 -26 2z"/>
<path d="M2397 754 c-8 -8 1 -24 14 -24 5 0 9 7 9 15 0 15 -12 20 -23 9z"/>
<path d="M1435 433 c3 -43 5 -84 5 -92 0 -11 3 -11 15 -1 18 15 21 120 5 151
-21 38 -29 18 -25 -58z"/>
<path d="M1542 428 c6 -24 17 -50 24 -58 12 -12 14 -10 14 17 0 43 -16 83 -34
83 -11 0 -12 -8 -4 -42z"/>
<path d="M1690 403 c0 -13 5 -23 10 -23 13 0 13 11 0 30 -8 12 -10 11 -10 -7z"/>
<path d="M3374 396 c-11 -11 -29 -26 -39 -32 -28 -15 -10 -37 18 -23 33 17 67
51 67 66 0 19 -22 14 -46 -11z"/>
<path d="M2390 334 c0 -17 22 -14 28 4 2 7 -3 12 -12 12 -9 0 -16 -7 -16 -16z"/>
<path d="M3418 334 c-16 -8 -28 -17 -28 -19 0 -13 40 -3 61 15 29 24 8 27 -33
4z"/>
<path d="M2262 333 c-32 -6 -22 -28 14 -28 18 0 29 5 29 14 0 17 -11 20 -43
14z"/>
<path d="M2675 330 c-66 -4 -128 -8 -137 -9 -10 0 -18 -8 -18 -18 0 -14 16
-16 163 -10 170 6 197 10 197 33 0 15 -1 15 -205 4z"/>
</g>
</svg>
