<?xml version="1.0" standalone="no"?>
<!DOCTYPE svg PUBLIC "-//W3C//DTD SVG 20010904//EN"
 "http://www.w3.org/TR/2001/REC-SVG-20010904/DTD/svg10.dtd">
<svg version="1.0" xmlns="http://www.w3.org/2000/svg"
 width="450.000000pt" height="450.000000pt" viewBox="0 0 450.000000 450.000000"
 preserveAspectRatio="xMidYMid meet">

<g transform="translate(0.000000,450.000000) scale(0.100000,-0.100000)"
fill="#AFEEEE" stroke="none">
<path d="M2222 4455 c-7 -14 -12 -46 -12 -71 0 -73 76 -389 110 -457 41 -83
40 -91 -13 -84 -60 8 -183 67 -285 136 -132 89 -217 141 -230 141 -16 0 -15
-39 2 -87 16 -45 154 -299 210 -388 22 -33 59 -84 83 -115 29 -34 40 -56 33
-58 -16 -6 -319 146 -417 208 -40 25 -92 58 -117 73 -94 58 -104 14 -36 -159
71 -183 82 -199 213 -328 130 -127 205 -182 339 -246 146 -71 88 -93 -93 -34
-197 63 -513 189 -707 281 -55 26 -143 53 -174 53 -49 0 -6 -55 230 -292 80
-81 143 -150 140 -153 -12 -12 -152 26 -275 74 -205 80 -251 87 -261 38 -7
-37 299 -344 466 -467 64 -47 96 -76 86 -78 -34 -8 -291 102 -464 197 -30 17
-75 40 -100 51 -25 12 -57 27 -71 35 -18 11 -38 12 -70 7 -51 -9 -53 -24 -12
-79 35 -45 338 -330 386 -361 43 -28 47 -42 13 -42 -56 0 -320 41 -419 65
-110 27 -167 29 -174 8 -2 -6 27 -36 64 -66 91 -73 417 -376 421 -391 2 -7
-18 -17 -46 -25 -64 -16 -162 -63 -184 -87 -29 -33 -58 -107 -58 -151 0 -65
35 -148 78 -183 38 -31 128 -70 162 -70 20 0 42 -57 80 -210 55 -222 254 -920
273 -959 12 -25 29 -48 37 -52 40 -19 212 -40 475 -59 160 -11 353 -28 430
-36 188 -21 548 -21 720 1 72 9 199 19 283 22 178 7 163 -3 201 138 12 44 46
154 75 245 30 91 57 181 61 200 11 54 117 363 167 485 62 152 80 209 76 246
-3 30 -1 32 52 45 72 19 157 78 197 137 38 56 58 141 48 205 -16 107 -74 204
-121 202 -10 0 -32 0 -49 0 -16 0 -83 0 -147 0 -66 0 -118 4 -118 9 0 5 23 26
51 47 30 23 92 93 152 172 55 74 111 141 124 149 13 8 23 24 23 34 0 17 -3 17
-45 5 -24 -8 -104 -21 -177 -30 -73 -9 -169 -21 -213 -27 -44 -6 -100 -13
-125 -16 l-45 -6 50 55 c28 31 75 86 105 123 30 37 72 86 92 109 20 23 40 55
44 71 4 17 28 53 54 81 49 52 68 90 53 105 -5 5 -43 -7 -88 -27 -44 -20 -104
-44 -132 -54 -54 -19 -427 -103 -518 -116 l-50 -7 59 54 c33 30 121 136 196
236 113 152 150 210 223 355 73 145 103 228 83 228 -2 0 -100 -46 -218 -101
-212 -101 -317 -144 -327 -134 -3 3 24 36 60 73 95 97 146 166 189 257 35 72
51 115 93 255 8 25 18 53 22 63 13 31 -15 19 -68 -29 -77 -69 -418 -264 -462
-264 -8 0 -4 29 13 88 21 73 25 109 26 222 0 158 -17 270 -43 270 -19 0 -101
-57 -101 -71 0 -4 -34 -31 -76 -59 l-75 -51 -42 25 c-23 14 -87 64 -142 111
-55 48 -114 93 -131 101 -40 19 -111 106 -137 167 -22 53 -38 59 -55 22z m153
-256 c28 -28 96 -87 153 -131 56 -44 102 -84 102 -88 0 -4 -39 -25 -86 -46
-98 -43 -92 -46 -139 47 -23 44 -95 242 -95 260 0 19 17 8 65 -42z m581 -258
c-7 -138 -45 -331 -64 -331 -4 0 -43 20 -87 46 -44 25 -100 51 -125 59 -25 7
-84 25 -132 39 -48 15 -90 31 -93 36 -3 5 59 41 138 79 84 41 186 101 247 145
90 65 106 73 114 59 5 -9 6 -67 2 -132z m-1023 -9 c119 -81 273 -149 517 -229
162 -53 320 -119 320 -133 0 -13 -41 -20 -112 -20 -115 0 -218 -19 -320 -60
l-98 -39 -54 57 c-89 94 -159 183 -213 267 -75 120 -106 185 -87 185 3 0 24
-13 47 -28z m1417 -286 c-57 -108 -93 -156 -187 -247 -101 -98 -189 -162 -287
-210 -117 -57 -137 -59 -179 -16 -43 42 -107 79 -259 147 -65 29 -122 58 -128
65 -8 10 2 17 42 34 78 31 147 41 285 41 113 0 134 3 217 31 99 33 312 141
446 226 79 50 85 52 88 32 2 -12 -15 -58 -38 -103z m-1736 31 c87 -73 146
-112 291 -189 228 -123 372 -192 514 -248 125 -50 216 -102 214 -125 -1 -13
-242 -95 -301 -101 -43 -5 -57 0 -165 55 -169 88 -206 114 -353 252 -167 158
-184 178 -224 269 -63 144 -59 157 24 87z m2006 -262 c0 -3 -13 -26 -28 -52
-16 -27 -54 -93 -85 -148 -58 -102 -139 -212 -269 -366 -91 -106 -149 -154
-211 -175 -32 -11 -52 -24 -59 -40 -18 -38 -54 -32 -77 14 -26 51 -96 129
-143 158 -59 37 -180 73 -305 89 -63 8 -119 15 -125 15 -6 0 -9 2 -6 5 10 11
278 98 398 130 329 88 694 235 829 335 48 35 81 50 81 35z m-2109 -316 c427
-183 586 -232 914 -279 164 -24 211 -39 270 -91 45 -40 95 -106 95 -126 0 -11
-60 -13 -368 -11 l-367 3 -162 105 c-130 85 -199 139 -357 283 -176 160 -204
187 -193 187 2 0 77 -32 168 -71z m-383 -218 c107 -53 409 -114 452 -91 13 7
55 -17 183 -103 91 -62 166 -115 167 -119 0 -4 -19 -20 -42 -34 -24 -14 -66
-49 -94 -76 l-52 -50 -83 41 c-97 48 -231 125 -279 160 -18 14 -92 80 -164
149 -155 147 -167 163 -88 123z m2680 -178 c-31 -37 -121 -134 -200 -215 -124
-127 -155 -152 -211 -178 -37 -16 -73 -30 -80 -30 -8 0 -26 -9 -41 -21 l-26
-20 -53 30 c-140 80 -337 110 -599 92 -88 -7 -163 -9 -166 -6 -3 3 2 19 11 34
19 33 22 51 7 51 -6 0 -20 -20 -32 -45 -19 -40 -26 -45 -55 -45 -18 0 -33 4
-33 9 0 4 16 28 35 52 19 24 35 50 35 57 0 27 -20 9 -60 -55 l-42 -66 -157 7
c-170 7 -300 21 -313 34 -24 24 42 76 127 103 27 8 174 14 445 19 423 8 481
13 745 66 216 43 434 101 576 153 73 27 136 48 138 45 2 -2 -21 -34 -51 -71z
m-2347 -323 c274 -72 484 -94 854 -90 450 5 546 4 610 -10 143 -29 298 -115
358 -198 44 -60 70 -112 62 -120 -4 -4 -248 -7 -543 -8 -457 -1 -554 -4 -652
-19 -63 -9 -158 -20 -210 -24 l-95 -6 -50 40 c-27 22 -75 55 -105 74 -30 19
-84 58 -120 86 -342 270 -423 335 -472 384 -32 30 -58 59 -58 63 0 3 69 -27
153 -67 106 -52 188 -84 268 -105z m2519 -78 c0 -18 -173 -224 -212 -253 -78
-57 -145 -82 -233 -87 l-80 -4 -13 48 c-8 30 -30 68 -57 100 -25 29 -45 57
-45 62 0 24 146 60 395 97 61 9 137 22 170 30 76 17 75 16 75 7z m-2803 -127
c181 -21 199 -26 263 -81 30 -26 98 -75 151 -109 53 -35 100 -68 103 -74 8
-12 -28 -14 -329 -16 l-179 -1 -96 99 c-52 54 -130 126 -172 158 -43 33 -78
63 -78 68 0 4 45 -1 99 -10 55 -10 162 -25 238 -34z m2567 -295 c46 -17 61
-55 66 -167 3 -57 10 -104 15 -106 16 -3 15 160 -1 212 -23 75 -24 74 64 69
89 -5 191 -45 217 -85 38 -58 26 -196 -22 -254 -48 -56 -74 -61 -328 -60 -126
0 -260 4 -297 7 l-68 7 0 36 c0 63 -20 161 -49 246 l-29 83 30 6 c17 3 50 6
74 6 40 0 46 -3 70 -41 61 -98 90 -226 64 -293 -11 -31 4 -36 20 -7 20 38 11
132 -21 221 -16 47 -32 93 -35 102 -6 15 5 18 92 21 55 1 102 4 106 5 4 1 18
-2 32 -8z m-430 -115 c29 -77 40 -119 44 -181 4 -79 4 -81 -19 -87 -13 -4 -44
-7 -69 -7 l-46 0 0 93 c0 76 -5 105 -28 167 -47 127 -48 122 20 118 l59 -3 39
-100z m-170 22 c40 -78 62 -178 52 -231 -12 -61 -19 -63 -254 -70 -118 -4
-237 -12 -265 -19 -52 -11 -132 -13 -342 -7 -60 1 -145 -3 -187 -10 -56 -9
-163 -11 -382 -8 -296 5 -305 5 -352 29 -100 49 -139 157 -94 257 16 35 24 42
48 42 l30 0 4 -97 c4 -102 18 -143 60 -183 22 -21 78 -28 78 -10 0 6 -9 10
-21 10 -29 0 -75 50 -88 96 -6 21 -11 65 -11 97 0 91 -1 90 245 105 116 7 242
17 280 22 39 5 109 9 156 10 l86 0 7 -52 c3 -29 6 -79 6 -110 0 -32 4 -58 9
-58 16 0 21 30 15 85 -4 29 -3 74 0 99 l7 46 45 0 c39 0 46 -3 54 -26 6 -14
10 -47 10 -74 0 -48 19 -83 21 -38 2 38 -1 91 -7 121 -5 26 -4 27 33 28 21 1
49 4 62 7 13 4 167 8 341 9 l318 2 36 -72z m-1865 -36 c12 -8 13 -18 2 -65
-16 -73 -2 -124 50 -181 21 -23 39 -45 39 -49 0 -3 -31 -6 -69 -6 -55 0 -74 4
-96 22 -36 28 -55 76 -55 140 0 71 25 120 70 135 43 15 42 15 59 4z m-133 -28
c-31 -110 -30 -149 10 -222 13 -24 24 -47 24 -52 0 -5 -22 -9 -50 -9 -58 0
-67 9 -99 107 -17 50 -19 71 -12 104 12 51 16 56 72 73 59 19 61 19 55 -1z
m-150 -85 c1 -43 9 -82 27 -123 14 -33 23 -63 21 -66 -6 -10 -69 6 -106 28
-98 57 -99 166 -3 209 55 24 60 20 61 -48z m1563 -289 c375 -17 417 -17 541
-1 52 7 229 15 393 19 296 6 297 6 297 -15 0 -11 -9 -40 -19 -65 -35 -82 -152
-440 -186 -572 -19 -71 -65 -222 -103 -335 l-69 -205 -35 -12 c-70 -23 -363
-36 -688 -30 -173 4 -436 8 -585 10 -278 5 -425 20 -513 53 -26 10 -58 14 -78
11 l-34 -6 -29 97 c-63 211 -145 518 -192 722 -28 118 -59 234 -71 258 -11 24
-19 45 -17 47 2 1 42 8 89 14 47 6 97 14 112 18 44 13 839 7 1187 -8z"/>
<path d="M2749 3873 c-5 -15 -13 -47 -16 -72 -5 -38 -3 -44 8 -33 12 11 38 90
39 120 0 22 -20 12 -31 -15z"/>
<path d="M2825 3868 c-4 -9 -5 -33 -3 -54 l3 -39 14 43 c11 32 11 46 3 54 -8
8 -13 7 -17 -4z"/>
<path d="M2216 3665 c-9 -25 -7 -83 3 -90 14 -8 19 4 22 54 4 45 -13 67 -25
36z"/>
<path d="M2305 3615 c-7 -58 1 -88 16 -64 11 18 11 106 0 113 -5 3 -12 -19
-16 -49z"/>
<path d="M2738 3394 c-13 -21 -47 -118 -43 -122 10 -11 33 21 45 62 12 43 10
81 -2 60z"/>
<path d="M2805 3365 c-4 -11 -17 -42 -27 -70 -19 -49 -19 -49 0 -31 27 23 45
68 40 98 -4 22 -5 22 -13 3z"/>
<path d="M2106 3268 c-9 -34 -7 -78 3 -78 13 0 21 26 21 66 0 38 -15 46 -24
12z"/>
<path d="M2180 3215 c-14 -68 -9 -104 9 -61 6 16 15 49 18 73 9 64 -13 54 -27
-12z"/>
<path d="M3111 3056 c-12 -25 -31 -57 -43 -71 -28 -36 -14 -44 21 -11 37 36
68 103 54 117 -7 7 -17 -3 -32 -35z"/>
<path d="M2986 3018 c-35 -60 -49 -101 -34 -96 11 4 78 115 78 131 0 20 -22 2
-44 -35z"/>
<path d="M2106 2773 c-13 -47 -17 -103 -7 -103 11 0 31 62 31 98 0 26 -17 30
-24 5z"/>
<path d="M2190 2758 c0 -13 -3 -41 -6 -63 -5 -28 -3 -37 4 -30 14 14 32 84 25
101 -8 22 -23 17 -23 -8z"/>
<path d="M2265 2704 c-8 -58 0 -68 14 -17 13 47 14 63 2 63 -5 0 -12 -21 -16
-46z"/>
<path d="M1555 2669 c-9 -26 4 -95 14 -83 5 5 11 30 15 57 4 37 3 47 -9 47 -7
0 -17 -9 -20 -21z"/>
<path d="M1644 2595 c0 -47 3 -80 7 -73 11 21 21 115 14 137 -13 42 -21 19
-21 -64z"/>
<path d="M3325 2521 c-24 -40 -73 -146 -69 -151 8 -7 48 45 74 97 15 30 19 48
12 55 -6 6 -12 6 -17 -1z"/>
<path d="M3242 2488 c-12 -16 -52 -95 -52 -104 0 -3 7 -1 15 6 14 12 65 93 65
104 0 11 -17 6 -28 -6z"/>
<path d="M2000 2173 c-27 -42 -39 -83 -25 -83 8 0 75 107 75 120 0 23 -22 7
-50 -37z"/>
<path d="M2094 2126 c-36 -78 -41 -108 -10 -62 22 34 58 127 51 134 -2 3 -21
-30 -41 -72z"/>
<path d="M2822 2173 c-21 -30 -52 -88 -52 -98 0 -3 4 -5 8 -5 9 0 82 106 82
120 0 19 -19 10 -38 -17z"/>
<path d="M2893 2138 c-51 -73 -79 -125 -60 -109 22 18 107 130 107 142 0 20
-18 7 -47 -33z"/>
<path d="M3585 2157 c-18 -28 -31 -87 -18 -87 9 0 53 83 53 100 0 18 -19 10
-35 -13z"/>
<path d="M3651 2131 c-24 -56 -25 -61 -12 -61 5 0 18 22 30 49 24 56 25 61 12
61 -5 0 -18 -22 -30 -49z"/>
<path d="M1218 2079 c-22 -31 -35 -89 -20 -89 15 0 44 67 40 93 -3 22 -3 22
-20 -4z"/>
<path d="M1303 2083 c-3 -10 -12 -33 -19 -52 -17 -40 -17 -41 -4 -41 11 0 50
73 50 95 0 21 -19 19 -27 -2z"/>
<path d="M3909 1747 c2 -66 5 -77 13 -57 11 28 5 116 -8 130 -5 5 -8 -25 -5
-73z"/>
<path d="M1546 1635 c-7 -18 2 -44 22 -67 22 -26 36 -22 18 4 -9 12 -16 35
-16 50 0 30 -14 38 -24 13z"/>
<path d="M1942 1248 c3 -8 12 -50 18 -94 17 -105 34 -122 24 -24 -9 94 -16
122 -34 128 -8 3 -11 -1 -8 -10z"/>
<path d="M1380 1237 c0 -40 56 -195 66 -184 6 6 -22 131 -37 170 -12 28 -29
37 -29 14z"/>
<path d="M3535 1240 c-4 -7 -15 -37 -25 -69 -10 -31 -28 -80 -41 -108 -12 -29
-20 -56 -16 -60 12 -12 24 8 68 120 30 76 39 111 32 118 -8 8 -13 7 -18 -1z"/>
<path d="M1850 1227 c0 -21 31 -121 41 -131 19 -20 20 5 4 73 -11 45 -23 71
-31 71 -8 0 -14 -6 -14 -13z"/>
<path d="M1298 1219 c-2 -7 8 -58 23 -113 14 -56 29 -113 33 -128 7 -30 26
-38 26 -11 0 9 -12 66 -27 127 -26 108 -46 153 -55 125z"/>
<path d="M3427 1183 c-16 -32 -47 -134 -47 -155 0 -11 37 66 70 149 14 33 -7
38 -23 6z"/>
<path d="M2280 1121 c0 -92 6 -117 25 -101 9 8 10 21 3 52 -5 23 -8 53 -7 67
3 42 0 61 -11 61 -6 0 -10 -33 -10 -79z"/>
<path d="M2380 1096 c0 -41 5 -78 10 -81 6 -4 10 21 10 69 0 41 -4 78 -10 81
-6 4 -10 -21 -10 -69z"/>
<path d="M1794 998 c18 -95 27 -131 36 -146 13 -20 5 80 -11 141 -12 46 -34
51 -25 5z"/>
<path d="M1675 1010 c-10 -16 30 -215 45 -225 4 -3 14 2 21 11 10 13 10 20 -5
44 -9 16 -19 53 -22 82 -3 29 -7 63 -10 76 -5 23 -18 29 -29 12z"/>
<path d="M2460 735 c0 -8 7 -15 15 -15 8 0 15 7 15 15 0 8 -7 15 -15 15 -8 0
-15 -7 -15 -15z"/>
<path d="M2340 675 c0 -8 9 -15 20 -15 13 0 18 5 14 15 -4 8 -12 15 -20 15 -8
0 -14 -7 -14 -15z"/>
<path d="M1600 615 c0 -23 71 -193 90 -218 30 -37 35 -10 8 45 -14 29 -36 81
-49 115 -23 59 -49 90 -49 58z"/>
<path d="M2450 615 c0 -9 5 -15 11 -13 6 2 11 8 11 13 0 5 -5 11 -11 13 -6 2
-11 -4 -11 -13z"/>
<path d="M3309 568 c-13 -29 -40 -70 -59 -92 -64 -71 -224 -166 -280 -166 -39
0 -70 -16 -70 -36 0 -19 27 -12 144 34 90 36 184 92 223 134 32 34 93 139 93
160 0 35 -27 17 -51 -34z"/>
<path d="M1510 592 c0 -30 80 -232 92 -232 18 0 -5 82 -58 208 -12 29 -34 44
-34 24z"/>
<path d="M1750 470 c0 -17 37 -85 54 -99 24 -20 20 1 -9 59 -23 46 -45 65 -45
40z"/>
<path d="M3075 451 c-119 -43 -195 -77 -195 -88 0 -17 -3 -17 71 16 35 16 82
34 104 40 42 11 84 36 75 44 -3 3 -28 -2 -55 -12z"/>
<path d="M1880 280 c0 -5 4 -10 9 -10 6 0 13 5 16 10 3 6 -1 10 -9 10 -9 0
-16 -4 -16 -10z"/>
<path d="M1795 271 c-7 -12 12 -24 25 -16 11 7 4 25 -10 25 -5 0 -11 -4 -15
-9z"/>
<path d="M610 2256 c0 -2 7 -9 15 -16 9 -7 15 -8 15 -2 0 5 -7 12 -15 16 -8 3
-15 4 -15 2z"/>
</g>
</svg>
