<?xml version="1.0" standalone="no"?>
<!DOCTYPE svg PUBLIC "-//W3C//DTD SVG 20010904//EN"
 "http://www.w3.org/TR/2001/REC-SVG-20010904/DTD/svg10.dtd">
<svg version="1.0" xmlns="http://www.w3.org/2000/svg"
 width="450.000000pt" height="450.000000pt" viewBox="0 0 450.000000 450.000000"
 preserveAspectRatio="xMidYMid meet">

<g transform="translate(0.000000,450.000000) scale(0.100000,-0.100000)"
fill="#AFEEEE" stroke="none">
<path d="M3767 4359 c-32 -24 -76 -107 -102 -191 l-18 -56 -92 5 c-150 9 -225
-30 -335 -171 -23 -31 -48 -56 -56 -56 -7 0 -32 24 -56 53 -69 84 -213 214
-269 243 -78 39 -177 56 -329 57 l-135 1 -157 -52 c-267 -89 -443 -192 -573
-334 -199 -217 -301 -560 -275 -922 22 -301 54 -440 141 -604 33 -62 57 -117
55 -121 -3 -5 -45 -11 -93 -15 -299 -24 -452 -117 -453 -275 0 -57 44 -105
108 -115 83 -13 95 -42 117 -297 32 -348 151 -944 231 -1155 55 -146 72 -175
111 -195 18 -9 45 -30 60 -46 37 -40 94 -49 403 -63 328 -16 414 -15 585 8 83
12 240 31 350 42 110 12 204 25 209 27 18 12 77 155 115 284 50 164 135 525
151 634 6 44 31 181 55 305 52 269 69 397 61 455 -6 40 -5 43 19 49 15 4 48
28 74 54 55 55 76 115 75 207 -1 71 -21 114 -66 147 -29 20 -44 23 -123 22
-49 0 -139 -4 -199 -9 l-109 -8 7 24 c27 89 115 478 126 562 8 56 17 76 50
118 22 28 40 55 40 60 0 13 77 86 141 133 122 91 283 294 324 411 11 31 18 77
17 122 -1 67 1 73 26 89 15 9 40 30 56 46 17 15 33 28 36 28 17 0 130 143 130
164 0 33 -35 73 -70 81 -44 10 -45 22 -6 65 73 81 71 164 -5 194 -55 22 -66
21 -133 -21 -45 -27 -61 -33 -64 -23 -19 57 -102 78 -155 39z m83 -95 c0 -107
11 -109 100 -18 70 71 105 94 143 94 64 0 38 -95 -54 -196 -27 -30 -47 -60
-43 -66 4 -7 29 -9 66 -5 50 4 60 3 68 -14 8 -14 6 -28 -9 -56 -36 -70 -147
-171 -175 -160 -9 4 -27 29 -41 58 -36 70 -109 146 -170 176 -27 14 -51 27
-53 28 -2 1 20 49 48 106 49 100 91 156 111 144 5 -4 9 -44 9 -91z m-1291
-138 c70 -54 164 -154 225 -239 49 -69 92 -155 82 -165 -4 -3 -26 -1 -49 5
-23 6 -44 9 -47 7 -11 -12 20 -39 46 -42 87 -8 91 -18 39 -118 -19 -37 -33
-69 -31 -72 5 -4 53 68 63 94 17 45 37 -17 59 -189 9 -71 14 -131 11 -134 -3
-3 -19 -1 -36 5 -16 6 -32 8 -34 5 -10 -10 5 -33 22 -33 9 0 27 -7 39 -16 34
-24 30 -84 -13 -173 -19 -40 -35 -76 -35 -79 0 -4 16 11 34 33 l34 40 7 -47
c10 -67 2 -225 -12 -239 -9 -9 -19 -6 -43 15 -17 14 -36 26 -41 26 -22 0 -6
-28 38 -66 l47 -41 -45 -31 c-80 -56 -84 -60 -77 -68 5 -4 16 0 25 8 18 16 77
48 88 48 3 0 5 -12 5 -27 0 -32 -55 -362 -61 -367 -2 -2 -88 -6 -190 -9 l-185
-7 0 185 c0 133 3 185 11 185 6 0 34 -16 61 -35 70 -50 78 -42 16 15 -62 56
-63 71 -4 120 27 22 33 33 25 41 -8 8 -22 -3 -53 -43 -23 -29 -48 -56 -55 -60
-10 -6 -14 39 -20 218 -5 147 -4 229 3 236 6 6 21 -1 45 -21 32 -29 67 -41 67
-23 0 4 -13 16 -30 25 -16 10 -35 27 -41 38 -9 17 -5 25 25 54 33 31 46 55 30
55 -4 0 -22 -13 -41 -30 -62 -55 -63 -51 -63 150 0 200 3 208 57 147 40 -46
63 -60 41 -24 -10 15 -26 39 -35 54 l-17 26 49 43 c27 24 46 46 42 50 -3 4
-23 -8 -43 -25 -37 -33 -81 -58 -88 -50 -9 10 -14 229 -5 229 5 0 28 -9 49
-20 50 -25 51 -14 4 26 l-37 30 42 55 c22 29 41 60 41 68 0 8 -16 -7 -35 -32
-32 -41 -62 -67 -79 -67 -3 0 -6 37 -6 83 0 65 -5 97 -24 143 -13 32 -22 62
-19 66 13 22 68 6 122 -36z m226 10 c59 -27 186 -141 265 -238 69 -84 144
-216 175 -305 28 -83 52 -217 67 -385 15 -160 1 -286 -74 -668 l-53 -268 -100
-4 c-55 -2 -102 -3 -104 -1 -3 2 16 126 25 156 7 23 17 22 53 -9 37 -31 40
-20 6 26 -14 19 -25 39 -25 45 0 6 16 26 35 45 19 18 32 37 28 42 -3 6 -20 -4
-37 -21 -18 -17 -35 -29 -38 -26 -2 3 1 36 8 73 8 37 17 127 20 200 5 89 11
132 19 132 6 0 27 -11 45 -25 48 -36 54 -10 6 29 -20 17 -36 36 -36 43 0 6 20
28 44 48 43 35 62 62 51 73 -3 3 -30 -18 -60 -48 -30 -30 -57 -51 -61 -47 -4
3 -10 83 -15 176 -5 94 -10 176 -11 183 -5 23 53 10 84 -18 21 -21 28 -24 28
-11 0 9 -16 28 -35 43 -19 14 -35 31 -35 37 0 6 16 28 36 48 20 21 34 43 32
49 -2 7 -23 -8 -50 -35 -59 -62 -74 -57 -83 27 -9 81 -55 222 -100 307 -41 77
-182 250 -249 305 -25 20 -46 42 -46 48 0 18 129 0 185 -26z m-391 -33 c12
-80 18 -193 11 -193 -4 0 -14 8 -21 18 -12 16 -13 16 -20 -1 -5 -13 3 -28 25
-51 17 -17 31 -38 31 -45 0 -7 -12 -32 -26 -57 -14 -24 -21 -44 -16 -44 6 0
14 5 17 10 3 6 13 10 21 10 12 0 14 -29 14 -175 0 -96 -3 -175 -8 -175 -4 0
-18 7 -30 16 -37 26 -39 7 -3 -30 31 -32 33 -37 22 -67 -6 -18 -23 -48 -37
-66 -14 -19 -23 -37 -19 -41 7 -7 49 37 58 60 10 30 15 -8 21 -194 7 -217 8
-214 -52 -178 -68 42 -72 15 -4 -31 26 -18 49 -33 51 -35 2 -2 -11 -28 -29
-58 -17 -31 -30 -64 -28 -73 3 -13 10 -6 26 25 12 23 26 42 31 42 4 0 11 -48
14 -107 8 -131 9 -203 1 -203 -11 0 -50 23 -71 43 -19 17 -23 18 -23 5 0 -9
18 -31 40 -48 34 -27 39 -36 34 -58 -4 -15 -12 -37 -20 -48 -20 -33 -3 -38 24
-7 l23 28 -4 -63 c-3 -35 -7 -65 -9 -67 -2 -2 -93 -11 -203 -20 -138 -11 -208
-13 -226 -7 -22 9 -31 26 -57 104 -35 108 -75 287 -70 318 3 21 4 21 42 -9 56
-45 65 -38 17 14 l-42 45 27 46 c14 25 24 47 21 50 -2 3 -21 -14 -40 -37 l-36
-41 -12 43 c-8 29 -13 115 -13 249 -1 169 2 210 15 233 l16 29 41 -48 c23 -26
44 -45 46 -43 3 2 -12 30 -32 62 -34 56 -35 59 -17 69 30 17 91 77 78 78 -6 0
-32 -16 -57 -35 -54 -41 -68 -44 -62 -12 3 12 8 40 11 62 8 50 94 327 105 339
5 5 21 -12 37 -38 15 -25 34 -46 40 -46 18 0 16 6 -7 38 -11 15 -21 38 -22 51
-3 20 4 25 43 37 44 13 68 37 50 49 -5 2 -21 -1 -37 -9 -16 -8 -41 -17 -56
-20 l-28 -6 22 52 c11 29 33 84 48 121 15 37 32 73 37 78 11 11 238 96 260 98
6 1 14 -16 17 -36z m1259 -60 c9 -2 17 -7 16 -11 0 -4 -31 -31 -69 -60 -67
-51 -88 -54 -75 -12 4 11 2 20 -4 20 -18 0 -41 -44 -41 -80 0 -30 -10 -48 -61
-106 -33 -38 -71 -86 -85 -106 -13 -21 -29 -38 -34 -38 -5 0 -24 28 -41 62
l-31 62 18 34 c25 46 189 219 217 228 61 19 135 22 190 7z m115 -55 c27 -27 5
-123 -53 -238 -25 -50 -28 -53 -41 -35 -8 10 -14 31 -14 46 0 15 -4 30 -9 34
-16 9 -22 -28 -11 -65 19 -68 13 -95 -43 -176 -63 -93 -80 -103 -71 -45 8 47
-12 59 -22 14 -12 -55 -13 -56 -49 -50 -43 7 -46 -8 -5 -31 16 -9 30 -22 30
-29 0 -18 -80 -115 -93 -110 -6 2 -17 39 -24 82 -8 44 -20 105 -28 136 -8 31
-15 66 -15 78 0 23 77 131 94 131 6 0 28 -11 48 -25 20 -14 42 -25 47 -25 19
0 12 29 -9 42 -29 18 -25 26 19 39 22 7 42 18 45 25 6 17 2 17 -48 3 -67 -19
-64 2 11 79 108 111 203 158 241 120z m-1778 -13 c0 -2 -14 -39 -31 -82 -17
-43 -43 -116 -58 -162 -14 -47 -31 -86 -38 -88 -6 -2 -19 10 -29 26 -18 30
-44 42 -44 20 0 -6 9 -22 20 -36 29 -37 25 -48 -25 -67 -25 -10 -45 -22 -45
-27 0 -12 42 -11 76 1 15 6 29 8 32 6 2 -3 -10 -79 -28 -168 -18 -93 -34 -211
-37 -275 -4 -73 -10 -113 -17 -113 -6 0 -24 7 -40 15 -35 19 -46 19 -46 1 0
-7 13 -19 30 -26 53 -22 55 -33 16 -103 -39 -68 -41 -77 -26 -77 5 0 18 17 29
38 11 21 27 44 35 51 14 12 16 9 16 -20 1 -36 28 -213 56 -366 10 -51 15 -96
11 -99 -3 -4 -27 -1 -53 5 -25 7 -49 10 -52 7 -10 -11 21 -36 44 -36 12 0 34
-4 48 -10 24 -9 25 -13 19 -55 -4 -30 -2 -45 6 -45 6 0 11 5 11 10 0 6 4 10 8
10 13 0 45 -77 38 -89 -5 -7 -54 -11 -136 -11 l-130 0 -20 40 c-11 22 -38 67
-60 100 -65 101 -101 246 -131 515 -35 323 55 671 230 886 52 65 100 103 221
177 79 49 100 59 100 47z m1855 -117 c25 -62 30 -145 12 -193 -8 -22 -21 -56
-28 -75 -21 -55 -141 -227 -219 -315 -39 -44 -101 -118 -138 -164 l-67 -83 -7
53 c-12 103 -9 152 12 184 35 55 185 229 195 228 6 -1 17 -24 25 -52 27 -90
40 -77 18 18 -6 28 -9 53 -7 56 3 2 19 1 36 -4 32 -9 60 0 49 17 -3 6 -21 14
-39 17 -48 11 -50 14 -26 53 81 136 108 188 142 285 10 28 24 20 42 -25z
m-350 -1688 c8 -24 -4 -176 -16 -207 -6 -16 -17 -23 -35 -23 -25 0 -26 2 -20
48 3 26 8 79 12 117 3 39 8 73 11 78 9 15 42 6 48 -13z m-415 -12 c0 -28 -28
-216 -36 -240 -3 -10 -19 -19 -37 -22 -148 -21 -446 -47 -602 -51 -229 -7
-712 -23 -848 -29 -117 -6 -107 -15 -163 157 -38 116 -38 119 -20 133 22 16 7
15 476 18 231 2 369 7 475 20 83 9 265 20 405 25 140 4 276 9 303 9 43 2 47 0
47 -20z m110 -5 c-1 -34 -27 -233 -32 -238 -1 -1 -23 -6 -47 -10 l-43 -7 4 33
c9 57 39 223 43 237 2 6 20 12 40 12 32 0 35 -3 35 -27z m82 -53 c-1 -41 -8
-100 -15 -130 -12 -52 -14 -55 -46 -58 -28 -3 -32 -1 -28 15 3 10 13 68 22
128 9 61 19 114 22 118 3 5 15 7 26 5 21 -3 22 -8 19 -78z m134 -12 c-12 -159
-10 -154 -69 -161 -28 -4 -53 -5 -55 -2 -4 4 17 221 23 243 3 7 23 12 56 12
l52 0 -7 -92z m245 71 c5 -8 9 -47 9 -86 0 -71 -1 -73 -30 -88 -17 -9 -51 -19
-76 -24 l-46 -9 7 97 c9 139 7 134 72 129 32 -3 59 -11 64 -19z m-2283 -182
c48 -139 51 -157 22 -157 -34 0 -55 33 -88 135 -41 124 -41 145 -4 145 26 0
29 -6 70 -123z m-86 -22 c21 -65 38 -123 38 -127 0 -4 -15 -8 -33 -8 -26 0
-36 6 -45 25 -22 47 -63 208 -58 222 4 9 16 13 33 11 24 -3 29 -12 65 -123z
m-106 14 c37 -113 39 -129 14 -129 -34 0 -80 29 -90 56 -15 38 -12 97 6 122
26 38 47 23 70 -49z m2310 -226 c-3 -43 -24 -166 -45 -273 -22 -107 -62 -323
-90 -480 -50 -283 -84 -420 -165 -660 l-42 -125 -65 -7 c-35 -4 -113 -11 -174
-17 -60 -6 -189 -20 -285 -31 -134 -15 -241 -20 -452 -20 l-278 0 -1 68 c0 74
-17 61 -18 -15 -1 -36 -4 -43 -20 -43 -13 0 -21 9 -25 27 -23 122 -28 143 -35
143 -4 0 -3 -34 2 -75 5 -42 6 -79 2 -83 -4 -4 -16 4 -28 18 -19 23 -40 75
-104 258 -17 50 -38 57 -28 9 4 -17 22 -77 42 -132 45 -128 49 -145 32 -145
-28 0 -95 41 -111 68 -28 47 -96 274 -119 395 -12 62 -39 202 -61 312 -21 110
-54 322 -73 470 -19 149 -37 285 -41 304 l-7 34 64 -9 c187 -26 1391 16 1579
55 19 4 47 3 61 -3 18 -6 84 -3 215 11 104 11 209 21 233 22 l44 1 -7 -77z"/>
<path d="M2152 3538 c6 -18 28 -21 28 -4 0 9 -7 16 -16 16 -9 0 -14 -5 -12
-12z"/>
<path d="M2095 3511 c-8 -15 3 -31 21 -31 9 0 14 7 12 17 -4 20 -24 28 -33 14z"/>
<path d="M2170 3439 c0 -12 5 -19 12 -17 18 6 20 25 3 31 -10 5 -15 0 -15 -14z"/>
<path d="M2153 2439 c20 -35 43 -65 52 -67 22 -5 18 7 -23 67 -53 77 -72 77
-29 0z"/>
<path d="M2070 2474 c0 -23 61 -126 78 -132 20 -6 13 27 -13 62 -14 18 -25 37
-25 43 0 5 -9 18 -20 28 -19 17 -20 17 -20 -1z"/>
<path d="M1512 3046 c1 -10 8 -17 13 -17 15 1 12 24 -3 29 -9 3 -13 -2 -10
-12z"/>
<path d="M1600 3044 c0 -9 5 -14 12 -12 18 6 21 28 4 28 -9 0 -16 -7 -16 -16z"/>
<path d="M1517 2924 c-8 -8 3 -34 14 -34 5 0 9 9 9 20 0 19 -11 26 -23 14z"/>
<path d="M1552 2828 c6 -18 28 -21 28 -4 0 9 -7 16 -16 16 -9 0 -14 -5 -12
-12z"/>
<path d="M2285 2033 c4 -21 14 -51 23 -68 23 -44 28 -8 7 55 -20 59 -41 68
-30 13z"/>
<path d="M2975 2040 c-4 -18 -3 -36 3 -42 7 -7 12 1 17 22 4 18 3 36 -3 42 -7
7 -12 -1 -17 -22z"/>
<path d="M2207 2043 c-3 -4 4 -36 15 -71 24 -72 41 -66 24 8 -11 50 -29 79
-39 63z"/>
<path d="M2360 2025 c1 -11 7 -33 16 -50 l14 -30 -5 39 c-5 42 -25 75 -25 41z"/>
<path d="M1470 1933 c0 -11 9 -31 21 -44 l20 -24 -7 25 c-4 14 -13 34 -20 45
-14 19 -14 19 -14 -2z"/>
<path d="M3577 2089 c-7 -25 2 -51 14 -43 12 7 12 64 0 64 -5 0 -11 -9 -14
-21z"/>
<path d="M3249 1686 c-2 -2 -104 -14 -226 -27 -123 -12 -223 -26 -223 -30 0
-20 28 -27 70 -19 25 5 135 18 244 29 145 15 204 25 215 36 14 13 11 15 -30
15 -25 0 -48 -2 -50 -4z"/>
<path d="M1420 1593 c1 -15 28 -179 35 -205 7 -27 19 -36 28 -20 3 4 -1 32 -8
62 -7 30 -16 81 -20 113 -4 40 -11 57 -21 57 -8 0 -14 -3 -14 -7z"/>
<path d="M2902 1561 c-35 -6 -45 -26 -12 -25 11 0 42 1 68 2 27 1 57 9 68 17
17 13 14 14 -36 13 -30 0 -70 -3 -88 -7z"/>
<path d="M1494 1543 c3 -10 12 -47 21 -83 17 -64 33 -105 40 -98 6 5 -23 138
-36 171 -12 29 -34 38 -25 10z"/>
<path d="M2870 1451 c8 -5 33 -5 55 -1 40 8 40 8 -15 9 -35 0 -50 -3 -40 -8z"/>
<path d="M1814 1259 c9 -54 32 -109 46 -109 6 0 9 8 6 18 -2 9 -12 43 -20 75
-19 67 -42 79 -32 16z"/>
<path d="M1885 1251 c8 -50 33 -116 41 -108 8 8 -25 130 -37 142 -8 7 -9 -3
-4 -34z"/>
<path d="M2600 1066 c0 -9 7 -16 16 -16 17 0 14 22 -4 28 -7 2 -12 -3 -12 -12z"/>
<path d="M1910 1055 c0 -8 5 -15 10 -15 6 0 10 7 10 15 0 8 -4 15 -10 15 -5 0
-10 -7 -10 -15z"/>
<path d="M2690 1036 c0 -9 7 -16 16 -16 17 0 14 22 -4 28 -7 2 -12 -3 -12 -12z"/>
<path d="M1925 990 c-7 -12 2 -30 16 -30 5 0 9 9 9 20 0 21 -15 27 -25 10z"/>
<path d="M2701 449 c-18 -6 -31 -13 -28 -15 6 -6 117 15 117 22 0 7 -53 3 -89
-7z"/>
<path d="M2420 440 c0 -5 5 -10 10 -10 6 0 10 5 10 10 0 6 -4 10 -10 10 -5 0
-10 -4 -10 -10z"/>
<path d="M2524 389 c-8 -14 11 -33 25 -25 6 4 11 11 11 16 0 13 -29 20 -36 9z"/>
<path d="M2697 394 c-16 -16 10 -24 83 -24 75 0 108 11 74 24 -21 8 -149 8
-157 0z"/>
<path d="M2808 306 c-64 -6 -119 -14 -122 -17 -4 -3 -1 -11 7 -17 9 -8 34 -7
92 3 44 8 108 14 142 15 65 0 93 6 93 21 0 11 -61 10 -212 -5z"/>
<path d="M2530 301 c0 -5 7 -11 15 -15 9 -3 15 0 15 9 0 8 -7 15 -15 15 -8 0
-15 -4 -15 -9z"/>
</g>
</svg>
