<?xml version="1.0" standalone="no"?>
<!DOCTYPE svg PUBLIC "-//W3C//DTD SVG 20010904//EN"
 "http://www.w3.org/TR/2001/REC-SVG-20010904/DTD/svg10.dtd">
<svg version="1.0" xmlns="http://www.w3.org/2000/svg"
 width="450.000000pt" height="450.000000pt" viewBox="0 0 450.000000 450.000000"
 preserveAspectRatio="xMidYMid meet">

<g transform="translate(0.000000,450.000000) scale(0.100000,-0.100000)"
fill="#AFEEEE" stroke="none">
<path d="M1793 4250 c-18 -11 -54 -47 -79 -80 -26 -33 -50 -60 -54 -60 -4 0
-21 5 -39 11 -24 9 -35 8 -48 -2 -23 -19 -50 -85 -58 -141 -7 -46 -9 -48 -40
-48 -47 0 -68 -24 -60 -69 9 -47 40 -106 65 -124 l21 -15 -21 -41 c-22 -40
-22 -41 -3 -73 25 -43 78 -78 119 -78 31 0 32 -1 27 -37 -8 -58 24 -93 83 -93
55 0 95 20 124 60 12 16 25 30 28 30 4 0 16 -46 26 -102 10 -57 40 -206 66
-333 79 -374 166 -872 156 -883 -6 -6 -115 95 -222 205 -59 60 -94 79 -94 50
0 -7 8 -24 17 -37 14 -20 19 -57 25 -185 13 -306 88 -445 261 -485 29 -7 62
-18 74 -26 32 -20 47 -106 47 -284 1 -124 -3 -175 -21 -255 -29 -131 -49 -270
-63 -425 -6 -69 -13 -145 -16 -170 l-6 -45 -30 58 c-16 32 -42 93 -58 135 -33
90 -210 502 -278 647 -54 114 -146 290 -203 384 -43 72 -48 91 -21 91 21 0 69
84 108 186 50 134 90 382 82 517 -5 80 -36 197 -54 197 -10 0 -102 -141 -159
-244 -43 -80 -84 -216 -96 -322 -6 -54 -13 -119 -16 -144 l-5 -45 -50 55 c-27
30 -93 109 -146 175 -53 66 -129 157 -169 202 -40 45 -73 84 -73 86 0 2 23 7
51 10 62 8 110 34 127 70 16 34 6 77 -19 77 -27 0 -24 27 7 72 17 24 29 57 32
88 4 43 1 52 -19 70 -18 15 -36 19 -68 18 l-44 -3 -12 50 c-15 57 -61 105
-101 105 -13 0 -42 -9 -64 -20 -32 -16 -40 -17 -47 -6 -15 25 -86 66 -115 66
-47 0 -106 -36 -122 -75 -13 -29 -20 -35 -46 -35 -45 0 -92 -23 -123 -59 -29
-35 -33 -60 -16 -93 9 -17 6 -26 -24 -57 -42 -43 -57 -71 -57 -105 0 -33 45
-84 83 -94 30 -8 31 -10 29 -53 -4 -54 20 -113 53 -135 13 -9 43 -18 65 -21
36 -5 43 -10 56 -44 19 -46 49 -67 107 -75 91 -13 160 44 197 161 l13 40 69
-75 c113 -122 394 -477 473 -595 78 -118 130 -214 121 -222 -3 -3 -32 2 -63
11 -136 41 -177 48 -261 43 -139 -10 -296 -62 -309 -104 -3 -7 27 -28 68 -49
40 -20 103 -62 140 -93 37 -31 103 -74 146 -96 68 -34 88 -40 163 -43 66 -3
103 1 161 17 82 23 119 26 119 11 0 -5 32 -80 71 -167 85 -188 187 -446 223
-564 29 -94 77 -301 72 -306 -1 -2 -38 4 -82 12 -107 20 -154 19 -238 -7 -89
-27 -143 -26 -332 6 -169 29 -222 31 -321 14 -66 -11 -70 -10 -141 21 -151 66
-226 70 -335 14 -46 -23 -137 -98 -137 -112 0 -15 53 -61 70 -61 10 0 40 19
67 42 112 97 199 110 339 52 107 -44 169 -51 251 -30 55 15 72 15 175 1 62 -8
140 -22 173 -31 89 -23 196 -22 279 4 79 25 146 27 231 7 94 -23 192 -19 273
10 87 31 127 31 227 -1 114 -37 225 -42 338 -15 116 28 126 27 217 -14 72 -33
88 -36 231 -45 85 -6 176 -15 202 -21 36 -8 52 -8 60 0 8 8 8 11 -1 11 -7 0
-12 8 -12 18 0 18 -55 49 -78 44 -8 -2 -37 2 -65 8 -29 7 -106 15 -172 19
-104 7 -130 12 -193 40 -85 37 -152 41 -267 16 -109 -23 -191 -19 -297 14
-125 39 -143 41 -206 25 -30 -8 -57 -12 -60 -9 -8 8 25 84 91 206 69 129 365
569 383 569 7 0 53 -16 103 -35 120 -47 184 -52 285 -26 132 35 246 114 301
209 11 17 25 32 32 32 8 0 23 15 34 34 11 19 31 37 44 40 30 8 33 41 9 88
l-16 31 -25 -28 c-26 -27 -27 -27 -107 -19 -135 15 -344 10 -395 -10 -57 -21
-64 -20 -50 7 19 37 182 311 190 321 4 5 22 -3 39 -18 38 -31 72 -33 125 -6
32 16 46 18 69 10 83 -29 157 1 199 80 18 36 39 59 64 72 95 51 106 117 33
201 -30 33 -40 54 -40 79 0 40 -35 104 -71 130 -14 11 -44 22 -67 25 -33 4
-43 11 -53 35 -13 33 -73 68 -115 68 -15 0 -42 -9 -60 -21 -24 -14 -38 -18
-51 -11 -66 34 -138 14 -181 -49 -20 -29 -27 -33 -62 -30 -52 3 -76 -21 -85
-88 -4 -32 -12 -51 -20 -51 -27 0 -55 -51 -55 -99 0 -52 22 -93 66 -122 17
-11 33 -33 39 -55 14 -51 62 -77 132 -71 l52 4 -13 -32 c-8 -18 -29 -54 -48
-81 -19 -27 -101 -148 -183 -269 -82 -121 -194 -283 -249 -360 -152 -213 -260
-382 -316 -496 -83 -168 -94 -189 -104 -189 -13 0 -1 315 19 484 33 295 90
498 272 981 44 116 99 266 123 335 24 69 46 128 50 133 3 4 40 2 82 -4 75 -12
76 -12 144 20 38 18 128 54 199 81 218 81 249 98 239 125 -3 7 5 15 18 18 l22
6 -29 31 c-20 21 -36 29 -49 26 -11 -3 -69 2 -130 10 -137 19 -227 9 -317 -37
-34 -17 -63 -28 -66 -25 -5 4 20 55 103 212 l26 52 44 -20 c36 -16 50 -17 83
-8 21 5 50 19 64 30 20 16 34 19 65 14 64 -10 113 23 137 93 10 28 21 40 46
48 41 14 68 49 76 98 4 30 0 45 -21 78 -25 37 -26 42 -12 58 44 48 18 126 -56
166 -33 17 -36 23 -40 72 -5 59 -35 100 -93 128 -37 17 -91 20 -100 5 -10 -16
-41 -11 -60 10 -25 27 -99 54 -129 46 -27 -7 -106 -98 -106 -121 0 -10 -13
-12 -54 -8 l-54 6 -25 -44 c-31 -55 -40 -105 -28 -159 8 -38 7 -42 -14 -50
-61 -23 -69 -125 -15 -196 16 -22 30 -52 30 -67 0 -47 26 -93 65 -117 32 -20
41 -21 73 -12 20 6 38 10 40 8 2 -2 -33 -75 -76 -163 -79 -158 -180 -402 -242
-583 -17 -52 -51 -140 -75 -195 -24 -55 -58 -143 -76 -195 -36 -106 -56 -142
-63 -119 -2 8 -21 131 -41 274 -54 387 -71 490 -121 714 -25 112 -43 210 -40
216 2 7 22 15 44 19 22 3 69 25 104 48 53 37 68 53 97 111 l35 69 7 191 c4
110 14 223 23 265 9 40 16 85 16 100 0 37 -19 102 -30 102 -5 0 -24 -26 -44
-58 -19 -32 -45 -67 -57 -78 -76 -68 -200 -318 -230 -462 -7 -34 -16 -62 -19
-62 -10 0 -90 363 -97 436 l-6 62 86 3 c102 5 133 23 158 90 10 26 29 52 49
66 19 12 37 28 42 35 16 25 8 89 -18 139 l-25 50 25 20 c49 38 22 113 -60 170
-37 25 -43 34 -38 54 8 33 -12 64 -51 81 -45 18 -85 18 -135 -2 l-40 -16 -26
31 c-30 36 -56 39 -101 11z m83 -57 c10 -50 13 -53 31 -46 10 4 24 13 31 20
22 21 93 36 126 26 30 -9 31 -12 31 -62 l0 -53 49 -16 c88 -30 115 -109 46
-134 -32 -11 -41 -42 -15 -52 21 -8 65 -104 58 -125 -11 -29 -25 -41 -65 -51
-43 -12 -57 -32 -38 -55 17 -21 3 -53 -33 -71 -24 -13 -49 -15 -110 -11 -43 3
-81 8 -84 10 -10 11 14 38 48 55 24 12 38 28 48 57 19 57 18 143 -2 185 -38
77 -138 105 -208 57 -83 -56 -77 -140 17 -262 47 -62 51 -104 12 -162 -31 -47
-80 -73 -125 -66 -42 7 -50 34 -24 77 11 18 18 36 14 39 -3 4 -29 7 -56 7 -56
0 -100 22 -116 58 -17 37 -5 62 30 62 43 0 36 21 -22 70 -54 46 -74 81 -64
117 6 25 33 31 52 12 26 -26 40 -2 45 75 7 113 52 160 98 104 l18 -22 28 48
c42 70 63 96 98 117 46 28 74 25 82 -8z m30 -287 c16 -12 19 -27 19 -94 0 -71
-3 -83 -24 -106 -28 -30 -61 -33 -83 -8 -47 53 -62 137 -33 180 14 19 56 38
91 41 5 1 19 -5 30 -13z m1094 -386 c11 -11 17 -25 15 -32 -3 -7 -1 -19 4 -27
8 -12 17 -10 52 13 49 33 90 31 140 -5 45 -32 55 -66 29 -100 -11 -16 -20 -33
-20 -38 0 -5 24 -17 53 -26 55 -18 97 -54 97 -84 0 -10 -15 -26 -35 -37 -19
-10 -35 -20 -35 -23 0 -2 18 -23 40 -47 47 -51 54 -100 20 -134 -22 -22 -46
-25 -85 -10 l-26 10 6 -54 c6 -47 4 -57 -14 -75 -31 -31 -69 -37 -108 -16 -32
18 -34 18 -48 -1 -8 -10 -15 -22 -15 -26 0 -4 -13 -14 -30 -23 -75 -39 -120
-1 -120 103 0 62 1 64 23 57 75 -23 101 -18 152 26 66 58 68 146 4 210 -61 61
-152 65 -209 8 -44 -44 -57 -102 -36 -160 24 -70 21 -96 -18 -135 -29 -29 -41
-34 -83 -34 -27 0 -54 5 -61 12 -15 15 -15 53 -1 76 10 16 5 26 -35 66 -45 45
-47 48 -44 99 l3 52 44 3 c47 4 46 -1 16 81 -36 99 30 203 101 156 32 -21 49
-9 59 42 10 54 54 93 104 93 28 0 48 -7 61 -20z m-692 -137 c-3 -49 -7 -127
-7 -175 -1 -114 -27 -183 -96 -253 -27 -28 -65 -57 -83 -63 l-34 -12 7 43 c10
62 52 201 90 292 48 116 115 255 123 255 4 0 4 -39 0 -87z m717 -199 c20 -8
45 -56 45 -86 0 -62 -76 -122 -125 -100 -31 14 -52 79 -39 124 13 45 76 78
119 62z m-2305 -144 c16 -11 38 -41 50 -66 25 -51 40 -52 56 -4 28 86 144 42
144 -55 0 -16 3 -41 7 -53 5 -20 10 -23 32 -17 76 19 80 18 92 -9 15 -33 -8
-90 -57 -137 -19 -18 -34 -37 -34 -41 0 -4 17 -16 38 -25 20 -10 37 -25 37
-33 0 -21 -82 -60 -127 -60 -20 0 -49 5 -63 12 -22 10 -25 17 -20 37 33 142
-2 201 -121 201 -71 0 -119 -67 -112 -154 9 -101 61 -156 149 -156 l48 0 -6
-37 c-9 -59 -39 -120 -69 -140 -38 -25 -115 -24 -143 1 -12 11 -21 31 -21 48
0 16 -5 38 -10 48 -9 16 -15 18 -36 10 -69 -27 -124 9 -124 81 0 24 7 50 15
59 19 21 10 50 -16 50 -38 0 -99 32 -105 55 -11 45 37 105 84 105 11 0 26 7
33 16 11 14 9 20 -19 43 -49 40 -40 81 25 114 40 21 73 22 99 2 37 -28 46 -19
39 34 -6 45 -5 50 22 69 36 27 77 28 113 2z m80 -303 c66 -52 66 -160 0 -187
-58 -24 -130 35 -130 107 0 15 9 43 20 61 17 27 25 32 57 32 21 0 45 -6 53
-13z m831 -322 c-17 -177 -52 -322 -108 -438 -52 -108 -67 -127 -78 -100 -12
32 -5 181 15 296 17 95 32 139 98 287 l77 175 3 -50 c2 -27 -1 -104 -7 -170z
m1587 99 c12 -3 22 -9 22 -13 0 -9 -60 -34 -230 -98 -80 -29 -168 -63 -197
-74 -31 -12 -68 -19 -92 -17 l-42 3 23 45 c13 25 37 54 54 65 72 46 102 61
164 83 56 19 79 22 170 18 58 -3 115 -8 128 -12z m169 -233 c24 -15 32 -28 35
-53 l3 -33 56 3 c52 3 58 1 89 -29 30 -30 32 -37 27 -83 -4 -50 -4 -51 44 -96
56 -53 62 -83 26 -126 -17 -19 -37 -29 -68 -33 -42 -6 -44 -7 -44 -41 0 -52
-12 -75 -49 -95 -40 -22 -107 -16 -138 12 -19 17 -20 17 -39 -9 -21 -29 -72
-45 -108 -33 -12 3 -28 20 -37 38 -14 26 -15 38 -4 84 12 58 24 64 70 38 78
-44 160 19 160 123 0 52 -34 101 -90 130 -88 44 -184 20 -215 -55 -19 -45 -13
-81 21 -120 37 -43 9 -106 -56 -123 -50 -13 -125 13 -114 39 16 39 9 53 -36
70 -58 21 -78 55 -64 108 9 36 11 38 46 36 l37 -2 -6 62 c-4 51 -2 66 11 80
23 23 53 21 61 -3 10 -31 19 -25 49 30 15 28 37 60 49 70 38 36 117 18 117
-26 0 -25 27 -15 54 21 32 41 64 45 113 16z m-1377 -106 c105 -133 147 -221
159 -338 l7 -69 -30 6 c-17 3 -60 21 -95 38 -48 25 -69 42 -83 69 -34 66 -66
323 -45 357 14 22 26 13 87 -63z m1313 -156 c36 -44 14 -118 -40 -137 -59 -20
-101 25 -89 93 10 52 40 79 80 71 17 -3 39 -16 49 -27z m-1918 -495 c33 -14
95 -40 138 -57 68 -27 82 -37 98 -69 27 -53 25 -68 -11 -68 -17 0 -63 -9 -102
-20 -103 -28 -160 -26 -233 9 -33 16 -83 49 -111 73 -29 25 -73 58 -98 74 -25
16 -46 32 -46 35 0 4 19 12 43 18 147 39 237 41 322 5z m2028 -240 c21 -4 36
-12 34 -18 -7 -20 -161 -124 -252 -171 -148 -74 -280 -91 -387 -48 -43 17 -44
22 -23 63 30 58 226 169 320 181 62 8 241 3 308 -7z"/>
</g>
</svg>
