<?xml version="1.0" encoding="utf-8"?>
<!-- Generator: Adobe Illustrator 24.0.2, SVG Export Plug-In . SVG Version: 6.00 Build 0)  -->
<svg version="1.1" id="Warstwa_2_1_" xmlns="http://www.w3.org/2000/svg" xmlns:xlink="http://www.w3.org/1999/xlink" x="0px"
	 y="0px" viewBox="0 0 1884.15979 2026.8603516" style="enable-background:new 0 0 1884.15979 2026.8603516;" xml:space="preserve">
<style type="text/css">
	.st0{fill:#E6EFF8;stroke:#000000;stroke-width:5;stroke-miterlimit:10;}
	.st1{fill:none;stroke:#000000;stroke-width:5;stroke-miterlimit:10;}
	.st2{fill:#FCFDFE;stroke:#000000;stroke-width:5;stroke-miterlimit:10;}
	.st3{fill:#E0E5E5;stroke:#000000;stroke-width:5;stroke-miterlimit:10;}
</style>
<g>
	<g>
		<path class="st0" d="M1210.5369873,1045.378418c142.2058105,37.081665,191.0583496,15.4912109,191.0583496,15.4912109
			l183.0577393-74.5827026c-6.5587158,355.2645874-120.2434082,406.6412964-120.2434082,406.6412964
			c19.6761475,303.8878174-100.5671387,366.1956787-100.5671387,366.1956787s-135.5471191,122.4296875-471.135498,114.777832
			s-357.4507446-231.7418213-357.4507446-231.7418213c-337.7745972-103.8465576-388.058197-419.758667-388.058197-419.758667
			L773.340271,986.2869263L1210.5369873,1045.378418z"/>
		<path class="st1" d="M535.2562866,1642.1599121c0,0,216.0083618,54.5487061,263.4597778,30.822998"/>
		<path class="st1" d="M825.0779419,1707.253418c0,0,25.0437622,101.4932861,64.5866089,126.5369873"/>
		<path class="st1" d="M1035.9730225,1545.1276855c0,0,245.1656494-26.3618164,253.0742188-374.3388672"/>
		<path class="st1" d="M1464.409668,1392.9282227c0,0-43.5529785,48.0700684-135.8195801,61.2509766"/>
	</g>
	<g>
		<g>
			<path class="st0" d="M698.1844482,302.4794312l609.4916992,126.8413391
				c24.2401123,5.9005432,44.5030518,10.179657,61.4228516,13.2423096
				c71.2797852,12.9024048,83.2247314,4.2151489,83.2247314,4.2151489l290.4508057-83.0585022
				c8.696167,166.9666748-85.8321533,534.3889771-85.8321533,534.3889771
				c-12.4667969,70.8323975-72.2893066,88.1782227-72.2893066,88.1782227l-183.0577393,74.5827026
				c0,0-48.8525391,21.5904541-191.0583496-15.4912109L773.340271,986.2869263L698.1844482,302.4794312z"/>
			<g>
				<path class="st0" d="M1452.3237305,446.7782288c0,0-11.9449463,8.6872559-83.2247314-4.2151489
					c-16.9197998-3.0626526-37.1827393-7.3417664-61.4228516-13.2423096L676.1450806,297.8927917
					c0,0-44.0453491-15.5454102,15.5454102-75.1361237c0,0,225.4768677-132.8233337,439.2262573-91.368927l562.1569824,91.368927
					c0,0,87.3933105,18.6973114,96.7459717,75.748764l3.8596191,50.6573181L1452.3237305,446.7782288z"/>
				<path class="st1" d="M1276.6459961,327.7764893l87.2637939,13.9621887c0,0,51.0117188,6.296936,102.9711914-6.9810791
					c0,0,176.2727051-30.5422974,250.4468994-63.7025146"/>
			</g>
		</g>
		<path class="st1" d="M1415.7508545,477.9125977c0,0,16.7127686,302.3505859-94.199707,556.0820313"/>
	</g>
	<g>
		<g>
			<path class="st2" d="M1174.7042236,978.9372559c119.6429443-115.7883301,141.7056885-316.7195435,143.5057373-434.147583
				c1.2425537-81.0644836-14.0852051-161.6264648-46.1318359-236.0979309
				C1170.53479,72.7214355,984.4243774,79.7634506,984.4243774,79.7634506S740.3699341,65.9750595,659.0184326,417.57901
				c0,0-70.3208008,221.9930725,63.4265747,460.532196L1174.7042236,978.9372559z"/>
			<path class="st1" d="M1029.9261475,128.0228119c0,0,173.7336426,51.0170441,205.4468994,357.1192627
				c31.7133789,306.1022339-102.7235107,455.0168457-102.7235107,455.0168457"/>
		</g>
		<g>
			<path class="st2" d="M722.4450073,878.1112061l452.2592163,100.8260498c0,0,66.6860352,41.0319214,23.0963135,144.8780518
				s-219.2307739,152.5640869-219.2307739,152.5640869s-181.1713257,74.7358398-485.8974304,43.5897217
				c-298.9229126-30.5529785-379.4871826-128.2050781-379.4871826-128.2050781s-97.4358978-67.9487305,19.2307739-201.2820435
				s523.0770264-115.3846436,523.0770264-115.3846436L722.4450073,878.1112061z"/>
			
				<ellipse transform="matrix(0.9997331 -0.0231039 0.0231039 0.9997331 -24.612608 14.9088163)" class="st0" cx="632.9019165" cy="1072.6131592" rx="337.8275757" ry="68.821167"/>
		</g>
	</g>
	<g>
		<ellipse class="st3" cx="1366.1427002" cy="553.1542358" rx="41.0090332" ry="57.2980957"/>
		<path class="st3" d="M1348.2166748,543.4580688c2.102417-9.2782593,10.461792-15.8016357,19.9730225-16.0056152
			c20.425415-0.4380493,86.0848389-0.5784302,104.7242432,14.9544678
			c22.1671143,18.4725342,5.9112549,42.8563232,5.9112549,42.8563232s-11.0834961,19.9503174-67.2401123,10.3446045
			c-24.7596436-4.2352295-40.0390625-11.1183472-49.3847656-17.4911499
			c-10.8779297-7.4176636-16.690918-20.4936523-14.2388916-33.4296875
			C1348.0390625,544.2769775,1348.1240234,543.8670654,1348.2166748,543.4580688z"/>
	</g>
</g>
</svg>
