<?xml version="1.0" standalone="no"?>
<!DOCTYPE svg PUBLIC "-//W3C//DTD SVG 20010904//EN"
 "http://www.w3.org/TR/2001/REC-SVG-20010904/DTD/svg10.dtd">
<svg version="1.0" xmlns="http://www.w3.org/2000/svg"
 width="350.000000pt" height="350.000000pt" viewBox="0 0 350.000000 350.000000"
 preserveAspectRatio="xMidYMid meet">

<g transform="translate(0.000000,350.000000) scale(0.100000,-0.100000)"
fill="#84dd7d" stroke="none">
<path d="M1937 3448 c-9 -29 -32 -78 -51 -108 -20 -30 -48 -75 -63 -100 -15
-25 -39 -90 -53 -145 -26 -103 -26 -113 -1 -258 7 -46 6 -51 -36 -113 -23 -35
-59 -95 -78 -133 -43 -87 -55 -95 -55 -39 0 47 -29 169 -50 208 -7 14 -27 41
-45 61 -18 20 -51 68 -74 108 -23 39 -46 71 -51 71 -5 0 -7 -27 -3 -63 4 -49
-1 -94 -22 -192 -31 -145 -31 -236 0 -295 10 -19 43 -61 73 -93 l56 -58 -27
-52 c-15 -29 -40 -77 -57 -107 -16 -30 -39 -83 -51 -117 -11 -35 -24 -63 -28
-63 -4 0 -15 17 -25 38 -36 76 -133 209 -204 280 -40 39 -66 72 -58 72 8 0 24
24 37 58 18 44 23 75 22 139 -2 130 -13 147 -267 436 -72 82 -132 144 -134
139 -1 -5 14 -45 35 -88 l37 -79 -3 -155 c-1 -85 -4 -191 -4 -235 -2 -69 2
-88 25 -135 44 -90 83 -116 204 -135 38 -6 49 -15 110 -92 37 -47 89 -122 116
-167 55 -90 151 -276 143 -276 -3 0 -22 9 -42 20 -48 25 -102 25 -262 0 -82
-13 -145 -17 -189 -13 l-66 6 23 -31 c12 -18 26 -32 29 -32 4 0 34 -27 67 -60
75 -76 187 -152 257 -176 82 -27 139 -22 220 20 38 20 73 36 77 36 22 0 147
-371 175 -515 43 -227 68 -432 64 -517 l-3 -67 -55 127 c-91 212 -147 292
-303 431 -98 86 -315 229 -386 253 -50 17 -66 30 -120 94 -49 58 -76 80 -129
106 -63 31 -72 33 -172 32 -86 0 -120 -5 -190 -28 -47 -15 -89 -32 -94 -36
-15 -15 3 -56 30 -69 15 -6 47 -34 72 -62 24 -27 64 -63 88 -80 136 -93 204
-101 333 -39 45 22 90 40 99 40 91 -1 333 -139 441 -253 l33 -35 -41 5 c-48 7
-150 -11 -206 -36 -22 -10 -80 -50 -130 -90 -136 -108 -149 -121 -139 -131 5
-5 48 -17 94 -25 47 -8 130 -31 185 -50 111 -39 148 -42 203 -20 47 20 127 98
154 149 l20 39 26 -44 c53 -89 172 -379 172 -419 0 -36 -68 -40 -148 -10 -71
27 -102 25 -182 -10 -82 -36 -100 -37 -166 -6 -80 37 -105 40 -189 17 -100
-28 -133 -26 -208 9 -35 16 -78 33 -95 36 -44 9 -126 -13 -153 -42 -22 -24
-22 -24 -3 -39 24 -18 23 -18 75 1 24 8 69 16 99 16 45 1 67 -6 125 -36 63
-34 75 -37 121 -32 28 3 70 13 94 21 63 22 121 19 171 -10 58 -33 101 -31 192
5 88 35 110 37 168 11 80 -35 110 -36 175 -3 90 45 107 46 181 17 l65 -27 97
23 c99 23 138 26 203 14 30 -6 47 -2 84 19 54 30 68 31 117 11 50 -21 87 -19
161 7 63 22 64 22 104 4 28 -13 52 -16 79 -12 21 3 59 9 86 12 69 9 62 38 -15
63 -29 10 -48 9 -94 -3 -50 -13 -61 -13 -92 0 -44 18 -90 18 -135 -1 -47 -19
-103 -19 -158 1 -50 17 -88 13 -129 -16 -30 -22 -80 -26 -110 -10 -14 8 -47 3
-124 -16 l-105 -26 -67 22 c-38 13 -83 23 -101 22 -32 -1 -33 0 -33 37 0 47
111 274 192 394 49 71 55 77 82 72 16 -3 43 -16 60 -29 100 -75 269 -63 433
31 127 73 186 100 230 108 52 8 95 40 74 54 -7 4 -54 16 -105 26 -50 9 -129
31 -176 47 -97 34 -176 39 -283 19 -37 -8 -70 -11 -73 -8 -11 11 173 280 251
367 18 19 37 53 43 75 l12 40 94 1 c170 3 207 43 232 247 14 110 52 220 93
270 13 16 13 19 1 27 -10 6 -21 3 -35 -10 -11 -10 -51 -30 -88 -43 -78 -29
-128 -61 -208 -135 -78 -72 -100 -121 -107 -235 -5 -104 -7 -107 -113 -228
-37 -42 -101 -129 -142 -193 -42 -63 -112 -162 -155 -218 -128 -167 -220 -304
-268 -400 -25 -50 -49 -87 -53 -82 -4 5 -15 83 -25 174 -23 213 -39 307 -72
405 -20 61 -24 92 -20 129 7 61 57 169 132 284 55 84 89 129 203 271 65 80 99
133 114 175 5 17 46 82 91 144 88 122 94 126 175 102 98 -28 198 49 235 180
35 125 86 348 86 378 0 36 -12 41 -33 12 -17 -25 -70 -63 -166 -119 -98 -58
-153 -116 -198 -210 -30 -61 -37 -89 -40 -145 -3 -79 3 -70 -141 -243 l-110
-133 -4 83 c-3 54 -14 106 -31 152 -58 159 -66 182 -74 228 -4 27 -12 48 -18
48 -5 0 -16 -27 -25 -60 -9 -33 -38 -102 -63 -155 -117 -240 -124 -374 -26
-480 21 -24 39 -49 39 -56 0 -7 -33 -67 -74 -134 -40 -66 -81 -142 -91 -168
-10 -27 -21 -48 -25 -48 -5 0 -21 33 -36 73 -15 39 -67 152 -116 249 -48 98
-88 186 -88 196 0 64 111 294 205 427 24 33 72 119 108 190 75 151 127 225
242 344 119 124 135 151 135 224 0 39 -10 92 -29 151 -16 50 -35 133 -42 184
-7 54 -17 92 -24 92 -6 0 -19 -24 -28 -52z m-42 -282 c-19 -118 -63 -297 -75
-310 -17 -18 -32 78 -27 175 5 106 22 153 78 229 43 58 47 43 24 -94z m92 15
c8 -41 13 -92 10 -114 -6 -44 -65 -137 -103 -162 -23 -15 -24 -14 -24 4 0 21
67 356 76 381 8 21 21 -15 41 -109z m-1018 -425 c49 -64 61 -105 60 -206 -1
-52 -4 -106 -8 -120 -7 -24 -8 -24 -35 19 -63 99 -80 149 -105 316 -6 39 -14
81 -17 95 -6 20 2 15 37 -24 24 -27 55 -63 68 -80z m513 38 c40 -72 68 -191
68 -291 0 -45 -4 -83 -8 -83 -11 0 -36 89 -57 205 -18 99 -28 143 -44 193 -15
49 6 36 41 -24z m-612 -144 c9 -55 27 -102 66 -179 30 -57 54 -108 54 -112 0
-5 -19 -7 -42 -3 -131 18 -149 60 -123 284 8 74 15 142 16 150 1 17 12 -32 29
-140z m587 -45 c8 -44 26 -115 40 -158 36 -113 21 -136 -45 -68 -73 75 -91
195 -49 325 l22 70 8 -45 c4 -24 15 -80 24 -124z m1123 66 c0 -23 -135 -205
-256 -345 -62 -72 -54 57 10 162 44 72 74 101 161 151 72 43 85 47 85 32z m24
-78 c-31 -161 -68 -229 -146 -269 -46 -24 -108 -32 -108 -15 0 8 12 23 127
164 33 42 76 101 95 131 18 31 36 56 39 56 3 0 0 -30 -7 -67z m-660 -528 c1
-121 -17 -199 -59 -251 l-22 -28 -13 72 c-11 58 -11 90 -2 155 7 45 18 129 24
187 l12 104 30 -64 c27 -59 30 -75 30 -175z m-109 46 c-13 -71 -16 -126 -12
-213 3 -65 2 -118 -1 -118 -17 0 -85 115 -89 150 -7 49 26 161 75 255 46 86
52 68 27 -74z m955 -127 c0 -4 -13 -21 -29 -40 -17 -18 -54 -80 -83 -136 -46
-92 -118 -188 -138 -188 -4 0 -5 33 -2 73 6 90 21 117 115 200 96 84 137 112
137 91z m34 -79 c-7 -38 -19 -98 -25 -133 -7 -35 -22 -78 -33 -95 -28 -42 -98
-77 -154 -77 l-45 0 41 43 c22 24 65 93 95 153 49 96 120 195 131 183 2 -2 -2
-35 -10 -74z m-1488 -195 c42 -21 81 -56 72 -65 -2 -3 -76 -1 -164 4 -150 9
-224 23 -224 41 0 12 144 38 214 39 41 1 73 -5 102 -19z m-251 -75 c33 -8 117
-18 187 -22 71 -3 128 -9 128 -13 0 -27 -151 -63 -217 -53 -60 9 -211 91 -196
106 3 4 14 5 22 2 9 -2 43 -11 76 -20z m-423 -226 c34 -18 138 -108 138 -120
0 -4 -17 -2 -38 5 -22 8 -83 26 -137 41 -53 14 -123 38 -154 52 -48 22 -53 26
-36 34 31 13 196 5 227 -12z m-189 -53 c45 -19 120 -44 167 -56 47 -13 110
-34 140 -47 l55 -24 -70 -30 c-51 -22 -80 -29 -105 -25 -69 11 -161 67 -320
195 l-25 20 38 1 c21 0 74 -15 120 -34z m2028 -332 c26 -13 67 -28 93 -35 59
-15 48 -33 -31 -49 -71 -15 -443 -3 -443 14 1 17 32 52 60 66 34 18 187 39
235 33 22 -3 61 -16 86 -29z m123 -108 c-49 -35 -184 -95 -237 -106 -70 -14
-132 -7 -242 27 -44 14 -81 26 -83 28 -2 2 3 13 10 25 13 21 16 21 258 18 180
-2 250 0 265 9 29 18 55 17 29 -1z m-1298 -62 c30 -8 54 -21 54 -28 0 -19
-235 -88 -320 -94 l-75 -5 24 27 c55 59 167 113 239 115 13 1 48 -6 78 -15z
m85 -96 c4 -69 -16 -103 -77 -130 l-45 -19 -112 32 c-62 18 -141 38 -177 44
l-65 11 100 7 c56 3 114 11 130 17 42 16 206 59 228 60 11 0 17 -8 18 -22z"/>
<path d="M1910 10 c0 -5 12 -10 28 -9 24 0 25 1 7 9 -27 12 -35 12 -35 0z"/>
</g>
</svg>
