<?xml version="1.0" standalone="no"?>
<!DOCTYPE svg PUBLIC "-//W3C//DTD SVG 20010904//EN"
 "http://www.w3.org/TR/2001/REC-SVG-20010904/DTD/svg10.dtd">
<svg version="1.0" xmlns="http://www.w3.org/2000/svg"
 width="350.000000pt" height="350.000000pt" viewBox="0 0 350.000000 350.000000"
 preserveAspectRatio="xMidYMid meet">

<g transform="translate(0.000000,350.000000) scale(0.100000,-0.100000)"
fill="#000000" stroke="none">
<path d="M1275 3338 c4 -33 -3 -73 -30 -168 -20 -69 -39 -159 -42 -200 -17
-230 145 -448 397 -533 23 -7 70 -131 83 -219 9 -63 8 -99 -5 -194 -9 -64 -20
-120 -26 -126 -6 -6 -21 11 -41 47 -37 66 -87 117 -191 199 -99 77 -169 145
-241 232 -67 82 -94 96 -102 54 -14 -65 -19 -328 -8 -385 15 -84 70 -189 136
-262 69 -77 163 -126 285 -150 47 -10 86 -18 88 -19 2 -1 -8 -58 -22 -127 -18
-87 -26 -156 -26 -229 0 -123 8 -172 52 -326 l32 -113 -65 -65 c-59 -59 -69
-65 -123 -74 -71 -11 -132 -46 -183 -104 l-39 -44 -91 5 c-74 5 -97 3 -117
-10 -22 -15 -32 -15 -129 4 -84 16 -113 18 -145 10 -54 -15 -121 -69 -176
-142 l-47 -62 30 -13 c17 -7 31 -18 31 -23 0 -6 18 -23 40 -37 34 -23 54 -28
136 -32 53 -3 126 0 163 7 53 9 80 9 137 -2 64 -13 77 -12 153 6 80 20 84 20
132 3 64 -23 130 -24 200 -1 55 17 57 17 120 -4 76 -25 100 -26 156 -5 46 18
65 15 175 -25 78 -29 137 -27 205 5 75 36 128 40 208 19 62 -17 68 -17 131 0
46 12 84 16 128 12 76 -7 141 6 183 39 30 22 33 30 33 75 0 40 -5 54 -24 72
-13 12 -37 34 -52 48 -51 47 -178 109 -255 125 -41 8 -86 23 -100 32 -104 66
-125 76 -173 80 -29 2 -78 -3 -112 -12 -81 -21 -112 -20 -154 4 -19 11 -54 30
-76 41 -41 21 -42 23 -54 96 -12 76 -9 96 12 75 18 -18 115 -15 156 5 61 28
182 159 231 248 110 199 160 270 236 339 42 38 74 70 71 73 -2 3 -22 9 -42 13
-33 8 -46 5 -89 -19 -78 -44 -179 -81 -309 -113 -65 -16 -132 -36 -148 -44
-52 -27 -109 -87 -139 -145 -16 -32 -33 -60 -39 -64 -29 -18 5 175 64 361 24
77 49 176 55 219 6 44 16 84 21 89 7 7 34 6 80 -2 183 -31 350 11 438 112 63
72 89 151 117 361 8 66 31 183 49 260 l33 140 -26 18 c-25 17 -26 17 -41 -3
-46 -64 -278 -279 -338 -314 -151 -87 -193 -120 -257 -197 -36 -44 -67 -79
-69 -79 -2 0 -15 37 -30 83 -39 124 -114 267 -154 294 -18 12 -37 23 -42 25
-5 2 -2 50 7 108 28 186 -11 294 -156 439 -97 97 -266 251 -276 251 -3 0 -3
-19 0 -42z m182 -200 c136 -141 181 -238 170 -372 -17 -205 -20 -236 -26 -236
-34 0 -165 350 -217 580 -8 36 -17 73 -20 83 -11 36 25 15 93 -55z m-82 -103
c48 -186 69 -249 122 -378 25 -59 42 -111 39 -115 -23 -22 -162 105 -220 202
-52 87 -60 141 -40 267 17 110 41 186 55 172 4 -4 24 -71 44 -148z m1145 -591
c-26 -200 -84 -345 -158 -401 -64 -48 -195 -86 -279 -81 -42 2 -77 10 -92 20
l-23 16 43 22 c70 35 228 157 310 239 63 63 86 97 140 201 72 141 80 138 59
-16z m-789 35 c16 -31 44 -110 63 -177 80 -275 76 -348 -34 -772 -54 -205 -56
-272 -15 -518 15 -94 26 -174 24 -175 -2 -2 -23 -2 -47 1 -50 5 -51 6 -87 152
-52 205 -45 294 45 625 104 381 107 578 11 790 -34 74 -36 87 -20 116 15 29
29 20 60 -42z m693 -36 c-45 -80 -91 -139 -152 -195 -63 -58 -218 -170 -285
-206 l-42 -22 -3 30 c-3 23 7 43 41 87 57 74 140 153 193 182 23 13 46 33 52
45 6 13 35 32 78 49 37 16 81 39 97 53 44 37 52 29 21 -23z m-1054 -334 c101
-74 163 -146 206 -238 43 -89 52 -138 31 -165 -14 -19 -15 -19 -30 10 -8 16
-74 85 -146 152 -152 143 -185 188 -218 289 -34 108 -31 113 30 56 28 -27 86
-74 127 -104z m-200 69 c0 -7 18 -50 41 -97 38 -79 53 -98 188 -230 80 -79
141 -145 134 -148 -18 -7 -133 26 -199 58 -113 53 -169 145 -187 308 -11 97
-6 138 13 126 5 -3 10 -11 10 -17z m1155 -774 c-42 -102 -160 -269 -244 -347
-68 -63 -120 -82 -168 -62 -68 29 -46 73 111 220 138 129 196 177 252 205 59
29 67 27 49 -16z m-141 -9 c-4 -8 -10 -15 -15 -15 -5 0 -81 -68 -169 -151 -88
-84 -163 -149 -166 -146 -8 7 23 112 46 157 46 90 169 164 282 169 20 1 26 -3
22 -14z m-399 -625 c15 -6 45 -26 67 -45 22 -18 54 -37 72 -41 17 -3 58 -20
91 -37 55 -27 66 -29 135 -24 41 2 92 12 112 20 l36 15 78 -48 c49 -32 97 -53
133 -61 82 -16 134 -36 180 -69 76 -56 88 -102 33 -138 -37 -24 -256 -38 -479
-30 -68 2 -86 -1 -137 -25 -72 -33 -93 -34 -184 -3 -92 32 -112 33 -198 17
-64 -12 -76 -12 -124 4 -41 14 -66 16 -114 10 -33 -5 -88 -8 -121 -7 -33 1
-152 3 -265 6 -145 3 -235 0 -307 -10 -55 -8 -107 -12 -115 -10 -7 2 -25 7
-40 10 -57 13 -24 101 58 159 60 42 106 44 222 12 l98 -27 55 25 c53 26 56 26
109 12 30 -8 64 -15 74 -15 11 0 52 31 91 69 71 69 90 79 189 96 29 5 56 23
112 76 74 70 91 77 139 59z"/>
<path d="M1686 600 c-26 -28 -44 -55 -41 -61 4 -6 28 12 57 42 29 31 46 55 40
61 -5 5 -28 -12 -56 -42z"/>
<path d="M1765 553 c-48 -67 -43 -77 10 -20 25 27 45 53 45 58 0 21 -22 6 -55
-38z"/>
<path d="M2324 502 c-17 -12 -44 -56 -44 -72 1 -17 70 53 70 70 0 12 -11 13
-26 2z"/>
<path d="M2371 412 c-12 -24 -21 -46 -18 -48 8 -8 48 58 45 74 -3 12 -11 3
-27 -26z"/>
</g>
</svg>
