<?xml version="1.0" standalone="no"?>
<!DOCTYPE svg PUBLIC "-//W3C//DTD SVG 20010904//EN"
 "http://www.w3.org/TR/2001/REC-SVG-20010904/DTD/svg10.dtd">
<svg version="1.0" xmlns="http://www.w3.org/2000/svg"
 width="350.000000pt" height="350.000000pt" viewBox="0 0 350.000000 350.000000"
 preserveAspectRatio="xMidYMid meet">

<g transform="translate(0.000000,350.000000) scale(0.100000,-0.100000)"
fill="#D1D1D1" stroke="none">
<path d="M1530 3329 c-118 -23 -250 -128 -287 -229 -21 -55 -21 -55 -70 -61
-191 -24 -332 -267 -296 -514 11 -80 58 -191 112 -265 17 -24 31 -47 31 -52 0
-5 -18 -35 -40 -66 -83 -119 -99 -280 -44 -455 34 -107 75 -174 173 -279 l80
-85 -6 -86 c-5 -80 -4 -90 21 -141 40 -81 107 -137 205 -169 44 -15 89 -27
100 -27 26 0 29 -17 36 -250 8 -255 20 -365 45 -405 41 -66 33 -64 259 -52
147 7 223 7 275 -1 39 -6 75 -7 79 -3 8 8 -26 301 -38 334 -4 10 -3 17 4 17 5
0 25 13 44 29 18 17 66 49 107 73 40 24 78 51 84 60 18 29 -20 127 -65 170
-54 51 -77 55 -145 24 -31 -14 -60 -24 -64 -21 -4 2 -10 21 -13 42 -3 21 -8
45 -12 54 -5 14 3 18 47 24 82 10 131 35 204 99 80 71 110 130 119 232 6 52 3
86 -9 127 -21 71 -20 74 6 83 13 4 58 39 101 78 65 59 85 85 122 160 43 84 45
94 45 173 0 101 -25 183 -79 263 -65 95 -65 93 -30 136 80 100 130 298 109
432 -14 83 -55 178 -111 255 -57 78 -167 179 -224 206 -156 73 -333 67 -441
-15 l-47 -36 -41 45 c-49 54 -85 74 -174 93 -75 15 -106 16 -172 3z m231 -120
c29 -13 78 -43 108 -68 46 -37 55 -41 63 -27 5 9 16 16 24 16 8 0 47 16 87 37
57 29 87 37 144 41 88 6 180 -11 247 -45 60 -30 153 -125 189 -192 92 -169 68
-399 -59 -566 -30 -39 -35 -52 -31 -81 3 -19 19 -51 35 -72 85 -107 130 -225
118 -307 -11 -67 -70 -180 -123 -233 -26 -26 -74 -62 -106 -80 -74 -42 -86
-68 -57 -133 22 -53 27 -149 9 -213 -13 -45 -77 -118 -133 -151 -76 -44 -252
-59 -331 -29 -72 28 -73 27 -110 -5 -70 -61 -199 -111 -287 -111 -131 0 -275
89 -317 197 -15 38 -9 51 35 69 19 8 34 20 34 27 0 19 -35 61 -147 173 -112
112 -151 178 -180 305 -27 121 6 254 87 346 47 53 41 84 -35 197 -106 155
-125 267 -74 430 24 79 80 145 153 181 45 22 61 25 103 19 l50 -6 7 38 c21
114 66 183 148 225 106 54 247 61 349 18z m157 -2193 c15 -7 47 -17 72 -21 78
-13 78 -12 82 -129 3 -108 8 -126 30 -109 27 22 146 63 182 63 30 0 38 -4 47
-27 13 -35 7 -49 -33 -69 -18 -9 -68 -39 -110 -68 l-78 -51 1 -50 c0 -27 6
-97 13 -155 7 -58 11 -108 10 -111 -2 -3 -29 -2 -61 3 -32 5 -144 6 -250 2
l-191 -6 -6 63 c-3 35 -10 163 -16 284 -5 121 -12 229 -15 241 -6 18 -1 22 34
28 39 6 138 55 210 103 40 27 43 27 79 9z"/>
<path d="M1590 3008 c0 -6 24 -36 54 -67 29 -31 59 -73 67 -94 15 -42 29 -49
29 -14 0 27 -39 88 -93 145 -42 43 -57 51 -57 30z"/>
<path d="M1470 2933 c-33 -13 -85 -61 -112 -102 -21 -34 -28 -57 -28 -93 0
-57 15 -91 62 -135 43 -41 76 -53 150 -53 60 0 63 1 104 45 62 64 79 139 48
213 -17 43 -67 97 -106 118 -27 14 -90 18 -118 7z m94 -53 c48 -18 62 -143 23
-201 -20 -29 -29 -34 -69 -37 -55 -4 -98 15 -127 57 -35 49 -28 87 28 142 51
52 87 61 145 39z"/>
<path d="M2106 2915 c-101 -36 -166 -164 -137 -272 23 -83 101 -142 189 -143
94 0 170 67 191 167 19 86 9 126 -44 179 -83 83 -123 96 -199 69z m118 -59
c61 -25 72 -112 24 -197 -29 -51 -72 -73 -133 -67 -161 19 -139 228 29 269 45
10 44 10 80 -5z"/>
<path d="M1776 2753 c-11 -11 -6 -23 9 -23 8 0 15 4 15 9 0 13 -16 22 -24 14z"/>
<path d="M1770 2635 c0 -8 5 -15 10 -15 6 0 10 7 10 15 0 8 -4 15 -10 15 -5 0
-10 -7 -10 -15z"/>
<path d="M1420 2370 c-8 -5 -27 -11 -43 -15 -33 -7 -91 -82 -107 -142 -16 -54
-1 -101 49 -156 77 -86 168 -89 254 -8 75 69 77 192 5 257 -47 43 -134 78
-158 64z m97 -81 c19 -37 16 -109 -7 -147 -24 -40 -81 -66 -124 -58 -40 8 -76
44 -76 76 0 40 54 117 107 150 41 27 49 28 67 16 12 -7 27 -24 33 -37z"/>
<path d="M1420 2256 c0 -9 5 -16 10 -16 6 0 10 4 10 9 0 6 -4 13 -10 16 -5 3
-10 -1 -10 -9z"/>
<path d="M1406 2212 c-3 -6 -1 -14 5 -17 15 -10 25 3 12 16 -7 7 -13 7 -17 1z"/>
<path d="M1983 2235 c-61 -26 -118 -95 -152 -183 -33 -87 -36 -102 -22 -102 5
0 21 32 36 71 34 89 78 147 132 173 25 13 42 28 43 39 0 9 -1 17 -2 17 -2 -1
-17 -7 -35 -15z"/>
<path d="M2042 2140 c-45 -11 -86 -52 -112 -113 -32 -74 -25 -181 16 -240 43
-62 103 -89 183 -85 63 4 65 5 109 54 57 62 81 116 82 177 0 62 -25 110 -89
170 -47 44 -53 47 -103 46 -29 -1 -68 -5 -86 -9z m168 -90 c45 -45 16 -167
-54 -228 -70 -62 -170 -33 -197 58 -14 47 -7 79 28 121 55 64 180 92 223 49z"/>
<path d="M2090 1970 c0 -5 5 -10 10 -10 6 0 10 5 10 10 0 6 -4 10 -10 10 -5 0
-10 -4 -10 -10z"/>
<path d="M2537 1998 c-3 -23 -15 -53 -26 -67 -40 -50 -54 -72 -48 -77 9 -9 56
45 78 88 20 38 26 98 10 98 -4 0 -11 -19 -14 -42z"/>
<path d="M1136 1833 c-23 -48 -37 -93 -28 -93 6 0 36 62 60 122 2 4 0 8 -5 8
-5 0 -17 -17 -27 -37z"/>
<path d="M1183 1777 c-17 -46 -18 -57 -7 -42 25 31 46 87 37 96 -4 4 -18 -20
-30 -54z"/>
<path d="M1545 1673 c-73 -38 -105 -88 -105 -163 0 -95 57 -167 155 -195 47
-14 58 -14 88 -2 62 26 117 120 117 199 0 58 -36 110 -103 148 -58 33 -106 38
-152 13z m115 -43 c6 -11 22 -23 35 -26 21 -5 25 -12 25 -44 0 -89 -57 -170
-119 -170 -78 0 -140 72 -121 140 15 52 39 80 83 101 54 24 84 24 97 -1z"/>
<path d="M1610 1565 c0 -9 5 -15 11 -13 6 2 11 8 11 13 0 5 -5 11 -11 13 -6 2
-11 -4 -11 -13z"/>
<path d="M1580 1510 c0 -5 5 -10 10 -10 6 0 10 5 10 10 0 6 -4 10 -10 10 -5 0
-10 -4 -10 -10z"/>
<path d="M1950 885 c-15 -18 -4 -55 16 -55 11 0 13 6 9 20 -4 13 -1 22 9 26 9
3 16 10 16 15 0 14 -36 10 -50 -6z"/>
<path d="M1701 508 c0 -132 14 -119 21 20 3 71 1 92 -9 92 -10 0 -13 -26 -12
-112z"/>
<path d="M1767 534 c-10 -11 -8 -104 2 -104 13 0 24 76 14 95 -5 8 -12 12 -16
9z"/>
</g>
</svg>
